<?xml version="1.0" encoding="utf-8"?>
<!-- Generator: Adobe Illustrator 21.1.0, SVG Export Plug-In . SVG Version: 6.00 Build 0)  -->
<svg version="1.1" id="Layer_1" xmlns="http://www.w3.org/2000/svg" xmlns:xlink="http://www.w3.org/1999/xlink" x="0px" y="0px"
	 viewBox="0 0 256 256" style="enable-background:new 0 0 256 256;" xml:space="preserve">
<style type="text/css">
	.st0{fill:none;stroke:#000000;stroke-miterlimit:10;}
</style>
<path class="st0" d="M224,96c-5.4,0.8-10.9,1.5-16.6,2.2c5.3,5.7,8.6,13.4,8.6,21.8c0,17.7-14.3,32-32,32s-32-14.3-32-32
	c0-6.5,2-12.6,5.3-17.7c-9.6,0.4-19.4,0.7-29.6,0.7c-35.9,0-68.1-2.8-95.8-6.8c0,2.6,0,5.2,0,7.8c17.7,0,32,14.3,32,32
	c0,12.6-7.2,23.4-17.8,28.7c12,3.4,23.4,5.8,34,7.5c-0.2-1.4-0.3-2.8-0.3-4.2c0-17.7,14.3-32,32-32s32,14.3,32,32
	c0,2.6-0.3,5.2-0.9,7.6c21.7-1.1,49.8-4.9,80.9-15.4C224,138.8,224,117.4,224,96z"/>
<path class="st0" d="M184,152c17.7,0,32-14.3,32-32c0-8.4-3.3-16.1-8.6-21.8c-15.5,1.9-32.3,3.3-50.1,4.1
	c-3.4,5.1-5.3,11.1-5.3,17.7C152,137.7,166.3,152,184,152z"/>
<path class="st0" d="M64,136c0-17.7-14.3-32-32-32c0,18.8,0,37.5,0,56.3c4.8,1.6,9.6,3.1,14.2,4.4C56.8,159.4,64,148.6,64,136z"/>
<path class="st0" d="M112,136c-17.7,0-32,14.3-32,32c0,1.4,0.1,2.8,0.3,4.2c18.7,3,34.9,3.8,47.7,3.8c4.6,0,9.6-0.1,15.1-0.4
	c0.6-2.4,0.9-5,0.9-7.6C144,150.3,129.7,136,112,136z"/>
<line class="st0" x1="16" y1="72" x2="16" y2="184"/>
<line class="st0" x1="240" y1="72" x2="240" y2="184"/>
<line class="st0" x1="224" y1="96" x2="240" y2="80"/>
<line class="st0" x1="32" y1="96" x2="16" y2="80"/>
</svg>
