<?xml version="1.0" encoding="utf-8"?>
<!-- Generator: Adobe Illustrator 21.1.0, SVG Export Plug-In . SVG Version: 6.00 Build 0)  -->
<svg version="1.1" id="Layer_1" xmlns="http://www.w3.org/2000/svg" xmlns:xlink="http://www.w3.org/1999/xlink" x="0px" y="0px"
	 viewBox="0 0 256 256" style="enable-background:new 0 0 256 256;" xml:space="preserve">
<style type="text/css">
	.st0{fill:none;stroke:#000000;stroke-miterlimit:10;}
</style>
<path class="st0" d="M232,64h-64v-8h-16v8h-48v-8H88v8H24c-4.4,0-8,3.6-8,8v112c0,4.4,3.6,8,8,8h64v40H68c-2.2,0-4,1.8-4,4
	c0,2.2,1.8,4,4,4h20h16h48h16h20c2.2,0,4-1.8,4-4c0-2.2-1.8-4-4-4h-20v-40h64c4.4,0,8-3.6,8-8V72C240,67.6,236.4,64,232,64z
	 M104,232v-40h48v40H104z"/>
<path class="st0" d="M226,72h-84.1c6.3,7.6,10.1,17.4,10.1,28c0,24.3-19.7,44-44,44s-44-19.7-44-44c0-10.6,3.8-20.4,10.1-28H30
	c-3.3,0-6,2.7-6,6v100c0,3.3,2.7,6,6,6h4.7c-1.7-3.6-2.7-7.7-2.7-12c0-15.5,12.5-28,28-28s28,12.5,28,28c0,4.3-1,8.4-2.7,12H226
	c3.3,0,6-2.7,6-6V78C232,74.7,229.3,72,226,72z M44,128c-2.2,0-4-1.8-4-4c0-2.2,1.8-4,4-4s4,1.8,4,4C48,126.2,46.2,128,44,128z
	 M44,104c-6.6,0-12-5.4-12-12c0-6.6,5.4-12,12-12s12,5.4,12,12C56,98.6,50.6,104,44,104z M188,80c2.2,0,4,1.8,4,4c0,2.2-1.8,4-4,4
	s-4-1.8-4-4C184,81.8,185.8,80,188,80z M148,176c-6.6,0-12-5.4-12-12c0-6.6,5.4-12,12-12s12,5.4,12,12C160,170.6,154.6,176,148,176z
	 M192,136c-4.4,0-8-3.6-8-8s3.6-8,8-8s8,3.6,8,8S196.4,136,192,136z"/>
<path class="st0" d="M108,144c24.3,0,44-19.7,44-44c0-10.6-3.8-20.4-10.1-28H74.1C67.8,79.6,64,89.4,64,100
	C64,124.3,83.7,144,108,144z"/>
<circle class="st0" cx="188" cy="84" r="4"/>
<circle class="st0" cx="192" cy="128" r="8"/>
<circle class="st0" cx="148" cy="164" r="12"/>
<circle class="st0" cx="44" cy="124" r="4"/>
<circle class="st0" cx="44" cy="92" r="12"/>
<path class="st0" d="M60,144c-15.5,0-28,12.5-28,28c0,4.3,1,8.4,2.7,12h50.6c1.7-3.6,2.7-7.7,2.7-12C88,156.5,75.5,144,60,144z"/>
</svg>
