<?xml version="1.0" encoding="utf-8"?>
<!-- Generator: Adobe Illustrator 21.1.0, SVG Export Plug-In . SVG Version: 6.00 Build 0)  -->
<svg version="1.1" id="Layer_1" xmlns="http://www.w3.org/2000/svg" xmlns:xlink="http://www.w3.org/1999/xlink" x="0px" y="0px"
	 viewBox="0 0 256 256" style="enable-background:new 0 0 256 256;" xml:space="preserve">
<style type="text/css">
	.st0{fill:none;stroke:#000000;stroke-miterlimit:10;}
</style>
<g>
	<path class="st0" d="M199.9,63.6c0,0.4-0.7,8.4-4.7,17.9c0,0,0,0.1,0,0.1c-0.3,0.6-0.5,1.2-0.8,1.8c-0.2,0.4-0.3,0.7-0.5,1.1
		c-0.1,0.2-0.2,0.5-0.3,0.7c-0.1,0.3-0.3,0.5-0.4,0.8c-0.2,0.4-0.4,0.8-0.6,1.2c-0.2,0.4-0.4,0.8-0.7,1.2c-0.2,0.4-0.5,0.8-0.7,1.2
		c-5.5,9.2-15.3,19.8-32.3,24.2c1-1.4,2-2.8,2.9-4.3c1.9-3,3.6-6.2,5.1-9.5c6.4-3.6,11.7-8.7,15.7-15.5c0.3-0.5,0.6-1,0.8-1.4
		c0.3-0.5,0.5-1,0.8-1.4c5-9.7,5.8-18.6,5.8-18.7c0-0.2,0-0.3-0.1-0.4c-0.1-0.1-0.2-0.2-0.4-0.2H174v-10h15.5c3,0,5.8,1.2,7.8,3.4
		C199.2,57.8,200.2,60.7,199.9,63.6z"/>
	<path class="st0" d="M82.3,52.3v10h0L82.3,52.3L82.3,52.3z M94.5,109.4c-1.9-3-3.6-6.2-5.1-9.5c0,0-0.1,0-0.1,0
		c1.5,3.3,3.3,6.6,5.2,9.7c0.9,1.4,1.8,2.7,2.7,4c0.1,0,0.1,0,0.2,0C96.4,112.3,95.4,110.9,94.5,109.4z"/>
	<path class="st0" d="M97.2,113.7C80.3,109.3,70.5,98.8,65,89.6c-0.2-0.3-0.4-0.7-0.6-1c-0.1-0.2-0.3-0.4-0.4-0.6
		c-0.1-0.3-0.3-0.5-0.4-0.7c-0.2-0.4-0.4-0.8-0.6-1.2c-0.1-0.3-0.3-0.5-0.4-0.8c-0.1-0.2-0.2-0.4-0.3-0.7c-0.2-0.3-0.3-0.7-0.5-1.1
		c-0.3-0.6-0.6-1.3-0.8-1.9c-4-9.6-4.7-17.5-4.7-17.9c-0.2-2.9,0.8-5.9,2.7-8c2-2.1,4.8-3.4,7.8-3.4h15.5v10H66.8
		c-0.2,0-0.3,0.1-0.4,0.2c-0.1,0.1-0.1,0.2-0.1,0.4c0,0.1,0.8,9.1,5.8,18.7c0,0,0,0.1,0.1,0.1c0.3,0.5,0.5,1,0.8,1.5
		c0.3,0.5,0.6,1,0.9,1.6c4,6.6,9.2,11.7,15.5,15.2c1.5,3.3,3.3,6.6,5.2,9.7C95.3,111,96.3,112.4,97.2,113.7z"/>
	<path class="st0" d="M94.5,109.4c-1.9-3-3.6-6.2-5.1-9.5c0,0-0.1,0-0.1,0c1.5,3.3,3.3,6.6,5.2,9.7c0.9,1.4,1.8,2.7,2.7,4
		c0.1,0,0.1,0,0.2,0C96.4,112.3,95.4,110.9,94.5,109.4z"/>
	<path class="st0" d="M136,135v20.3h-16V135c2.1,1.3,4.2,2.5,6.4,3.6c0,0,0.1,0,0.1,0c0.5,0.2,1,0.3,1.5,0.3c0.5,0,1.1-0.1,1.6-0.4
		C131.8,137.5,133.9,136.3,136,135z"/>
	<path class="st0" d="M149.9,157.5v6.3h-43.8v-6.3c0-1.2,0.9-2.1,2.1-2.1h39.6C148.9,155.3,149.9,156.3,149.9,157.5z"/>
	<path class="st0" d="M142.3,195.1c0,1.7-1.4,3-3,3h-22.5c-1.7,0-3-1.4-3-3c0-1.7,1.4-3,3-3h22.5C141,192.1,142.3,193.4,142.3,195.1
		z"/>
	<path class="st0" d="M95.6,179.8v30.5h64.8v-30.5H95.6z M149.6,203.1c0,1.2-1,2.1-2.1,2.1h-39c-1.2,0-2.1-0.9-2.1-2.1v-16
		c0-1.2,1-2.1,2.1-2.1h39c1.2,0,2.1,0.9,2.1,2.1V203.1z"/>
	<path class="st0" d="M139.3,192.1h-22.5c-1.7,0-3,1.4-3,3c0,1.7,1.4,3,3,3h22.5c1.7,0,3-1.4,3-3C142.3,193.4,141,192.1,139.3,192.1
		z"/>
	<path class="st0" d="M147.5,185h-39c-1.2,0-2.1,0.9-2.1,2.1v16c0,1.2,1,2.1,2.1,2.1h39c1.2,0,2.1-0.9,2.1-2.1v-16
		C149.6,186,148.7,185,147.5,185z M139.3,198.2h-22.5c-1.7,0-3-1.4-3-3c0-1.7,1.4-3,3-3h22.5c1.7,0,3,1.4,3,3
		C142.3,196.8,141,198.2,139.3,198.2z"/>
	<path class="st0" d="M167.1,165.9v11.8c0,1.2-1,2.1-2.1,2.1H91c-1.2,0-2.1-1-2.1-2.1v-11.8c0-1.2,1-2.1,2.1-2.1H165
		C166.2,163.8,167.1,164.7,167.1,165.9z"/>
	<path class="st0" d="M167.5,212.4v11.8c0,1.2-0.9,2.1-2.1,2.1H91.3c-1.2,0-2.1-0.9-2.1-2.1v-11.8c0-1.2,0.9-2.1,2.1-2.1h74.1
		C166.5,210.3,167.5,211.2,167.5,212.4z"/>
	<path class="st0" d="M150.2,67.8c-0.3-0.8-0.9-1.3-1.7-1.4l-12.9-1.9l-5.8-11.7c-0.4-0.7-1.1-1.2-1.9-1.2s-1.5,0.5-1.9,1.2
		l-5.8,11.7l-12.9,1.9c-0.8,0.1-1.5,0.7-1.7,1.4c-0.3,0.8,0,1.6,0.5,2.2l9.3,9.1l-2.2,12.8c-0.1,0.8,0.2,1.6,0.8,2.1
		c0.4,0.3,0.8,0.4,1.2,0.4c0.3,0,0.7-0.1,1-0.2l11.5-6l11.5,6c0.3,0.2,0.6,0.2,1,0.2c0.4,0,0.9-0.1,1.2-0.4c0.6-0.5,1-1.3,0.8-2.1
		L140.4,79l9.3-9.1C150.2,69.4,150.4,68.6,150.2,67.8z M142.7,104.6h-29.5c-1.7,0-3.2,1.4-3.2,3.2c0,1.7,1.4,3.1,3.2,3.1h29.5
		c1.7,0,3.2-1.4,3.2-3.1C145.9,106,144.5,104.6,142.7,104.6z M89.3,99.9C89.3,99.9,89.3,99.9,89.3,99.9c1.4,3.3,3.2,6.6,5.1,9.7
		c0.9,1.4,1.8,2.7,2.7,4c0.1,0,0.1,0,0.2,0c-1-1.4-2-2.8-2.9-4.3C92.5,106.4,90.8,103.2,89.3,99.9z M82.3,62.3L82.3,62.3l0-10h0
		V62.3z"/>
	<path class="st0" d="M94.5,109.4c-1.9-3-3.6-6.2-5.1-9.5c0,0-0.1,0-0.1,0c1.5,3.3,3.3,6.6,5.2,9.7c0.9,1.4,1.8,2.7,2.7,4
		c0.1,0,0.1,0,0.2,0C96.4,112.3,95.4,110.9,94.5,109.4z M82.3,62.3L82.3,62.3l0-10h0V62.3z"/>
	<path class="st0" d="M82.3,42.5v9.7h0v10h0v5c0,11.3,2.4,22.4,7,32.6c0,0,0.1,0,0.1,0c1.5,3.3,3.2,6.4,5.1,9.5
		c0.9,1.5,1.9,2.9,2.9,4.3c0,0-0.1,0-0.2,0c7.5,10.5,17.5,18.9,29,24.7c0.5,0.3,1.2,0.4,1.8,0.4s1.2-0.1,1.8-0.4
		c0.7-0.3,1.3-0.7,1.9-1c0.6-0.3,1.3-0.7,1.9-1.1c11.3-6.5,20.9-15.6,27.9-26.7c8-12.7,12.2-27.3,12.2-42.4V42.5H82.3z M142.7,110.9
		h-29.5c-1.7,0-3.2-1.4-3.2-3.1c0-1.8,1.4-3.2,3.2-3.2h29.5c1.7,0,3.2,1.4,3.2,3.2C145.9,109.5,144.5,110.9,142.7,110.9z M149.7,70
		l-9.3,9.1l2.2,12.8c0.1,0.8-0.2,1.6-0.8,2.1c-0.4,0.3-0.8,0.4-1.2,0.4c-0.3,0-0.7-0.1-1-0.2L128,88l-11.5,6c-0.3,0.2-0.6,0.2-1,0.2
		c-0.4,0-0.9-0.1-1.2-0.4c-0.6-0.5-1-1.3-0.8-2.1l2.2-12.8l-9.3-9.1c-0.6-0.6-0.8-1.4-0.5-2.2c0.2-0.8,0.9-1.3,1.7-1.4l12.9-1.9
		l5.8-11.7c0.4-0.7,1.1-1.2,1.9-1.2s1.5,0.5,1.9,1.2l5.8,11.7l12.9,1.9c0.8,0.1,1.5,0.7,1.7,1.4C150.4,68.6,150.2,69.4,149.7,70z"/>
	<path class="st0" d="M150.2,67.8c-0.3-0.8-0.9-1.3-1.7-1.4l-12.9-1.9l-5.8-11.7c-0.4-0.7-1.1-1.2-1.9-1.2s-1.5,0.5-1.9,1.2
		l-5.8,11.7l-12.9,1.9c-0.8,0.1-1.5,0.7-1.7,1.4c-0.3,0.8,0,1.6,0.5,2.2l9.3,9.1l-2.2,12.8c-0.1,0.8,0.2,1.6,0.8,2.1
		c0.4,0.3,0.8,0.4,1.2,0.4c0.3,0,0.7-0.1,1-0.2l11.5-6l11.5,6c0.3,0.2,0.6,0.2,1,0.2c0.4,0,0.9-0.1,1.2-0.4c0.6-0.5,1-1.3,0.8-2.1
		L140.4,79l9.3-9.1C150.2,69.4,150.4,68.6,150.2,67.8z"/>
	<path class="st0" d="M180.2,33.7v6.7c0,1.2-1,2.1-2.1,2.1H77.9c-1.2,0-2.1-1-2.1-2.1v-6.7c0-1.2,1-2.1,2.1-2.1h100.2
		C179.2,31.6,180.2,32.5,180.2,33.7z"/>
	<path class="st0" d="M139.3,192.1h-22.5c-1.7,0-3,1.4-3,3c0,1.7,1.4,3,3,3h22.5c1.7,0,3-1.4,3-3C142.3,193.4,141,192.1,139.3,192.1
		z"/>
</g>
</svg>
