<?xml version="1.0" encoding="utf-8"?>
<!-- Generator: Adobe Illustrator 21.1.0, SVG Export Plug-In . SVG Version: 6.00 Build 0)  -->
<svg version="1.1" id="Layer_1" xmlns="http://www.w3.org/2000/svg" xmlns:xlink="http://www.w3.org/1999/xlink" x="0px" y="0px"
	 viewBox="0 0 256 256" style="enable-background:new 0 0 256 256;" xml:space="preserve">
<style type="text/css">
	.st0{fill:none;stroke:#000000;stroke-miterlimit:10;}
</style>
<path class="st0" d="M219.9,191.2c2.4-1.4,4.1-4,4.1-7V40c0-4.4-3.6-8-8-8h-66.1c1.4,2.4,2.2,5.1,2.2,8c0,8.8-7.2,16-16,16
	s-16-7.2-16-16c0-2.9,0.8-5.6,2.2-8H69.6c5.8,5.1,9.4,12.6,9.4,20.9c0,15.4-12.5,27.8-27.8,27.8c-7.4,0-14.2-2.9-19.2-7.7v89
	c7.6-6.3,17.3-10,28-10c23,0,41.9,17.7,43.8,40.2H139c10.7-10,25.1-16.2,41-16.2C195.3,176,209.3,181.7,219.9,191.2z M52,136
	c-6.6,0-12-5.4-12-12c0-6.6,5.4-12,12-12s12,5.4,12,12C64,130.6,58.6,136,52,136z M204,96c-2.2,0-4-1.8-4-4c0-2.2,1.8-4,4-4
	s4,1.8,4,4C208,94.2,206.2,96,204,96z M200,48c4.4,0,8,3.6,8,8s-3.6,8-8,8s-8-3.6-8-8S195.6,48,200,48z M148,152
	c-19.9,0-36-16.1-36-36s16.1-36,36-36s36,16.1,36,36S167.9,152,148,152z"/>
<path class="st0" d="M79.1,52.9c0-8.3-3.6-15.8-9.4-20.9H40c-4.4,0-8,3.6-8,8v33.1c5,4.7,11.7,7.7,19.2,7.7
	C66.6,80.7,79.1,68.2,79.1,52.9z"/>
<path class="st0" d="M136,56c8.8,0,16-7.2,16-16c0-2.9-0.8-5.6-2.2-8h-27.7c-1.4,2.4-2.2,5.1-2.2,8C120,48.8,127.2,56,136,56z"/>
<circle class="st0" cx="148" cy="116" r="36"/>
<circle class="st0" cx="52" cy="124" r="12"/>
<circle class="st0" cx="200" cy="56" r="8"/>
<circle class="st0" cx="204" cy="92" r="4"/>
<path class="st0" d="M219.9,191.2c-10.6-9.4-24.6-15.2-39.9-15.2c-15.9,0-30.3,6.2-41,16.2h77C217.4,192.2,218.7,191.8,219.9,191.2z
	"/>
<path class="st0" d="M60,152c-10.6,0-20.4,3.8-28,10v22.2c0,4.4,3.6,8,8,8h63.8C101.9,169.7,83,152,60,152z"/>
</svg>
