<?xml version="1.0" encoding="utf-8"?>
<!-- Generator: Adobe Illustrator 21.1.0, SVG Export Plug-In . SVG Version: 6.00 Build 0)  -->
<svg version="1.1" id="Layer_1" xmlns="http://www.w3.org/2000/svg" xmlns:xlink="http://www.w3.org/1999/xlink" x="0px" y="0px"
	 viewBox="0 0 256 256" style="enable-background:new 0 0 256 256;" xml:space="preserve">
<style type="text/css">
	.st0{fill:none;stroke:#000000;stroke-miterlimit:10;}
</style>
<path class="st0" d="M217.6,32.5v63.8l-6.1-3.1V32.5h-6.1v61.1l-3.1,2.3l-3.1-2.3V32.5h-6.1v60.8l-6.1,3.1V32.5h0
	c-3.4,0-6.1,2.7-6.1,6.1v63.5l21.4,33.9l21.4-33.9V38.6C223.8,35.3,221,32.5,217.6,32.5L217.6,32.5z M202.4,124.6l-6-9.6h12.1
	L202.4,124.6z M212.3,108.9h-19.8l-4.1-6.4l7.5-3.8l6.4,4.8l6.4-4.8l7.5,3.8L212.3,108.9z M212.3,108.9"/>
<path class="st0" d="M119.3,96.8l-10.7,42.8h44.5l-10.7-42.8H119.3z"/>
<path class="st0" d="M152.8,71.8V50.9h12.2v-6.1h-12.2V32.5h-6.1v12.2h-30.6V32.5H110v12.2H97.8v6.1H110v20.9l-9.1,28H58.1V87.6H52
	v12.2H33.6v6.1H52v30.6H33.6v6.1H52v12.2h6.1v-12.2h29l-19.8,61.1H52v6.1h13.3c-1.4,4.7-2.8,9.5-4.1,14.2c2,0,4.1,0,6.1,0
	c1.5-4.7,3-9.5,4.5-14.2h19c-1.4,4.7-2.8,9.5-4.2,14.2c2.3,0,4.7,0,7,0c1.2-4.7,2.4-9.5,3.6-14.2h16v-6.1H98.8l10.5-36.7h44.3
	l10.5,36.7h-14.3v6.1h16c1.3,4.7,2.6,9.4,3.9,14.1c2.2,0,4.4,0,6.6,0.1c-1.4-4.7-2.8-9.5-4.2-14.2h19c1.6,4.7,3.2,9.5,4.8,14.2
	c2.2,0,4.3,0,6.5-0.1c-1.6-4.7-3.3-9.5-4.9-14.2h13.3v-6.1h-15.3L152.8,71.8z M116.1,50.9h30.6v18.3h-30.6V50.9z M58.1,136.5v-30.6
	H99l-9.9,30.6H58.1z M92.4,203.7H73.7l5-15.3h18.2L92.4,203.7z M170.4,203.7l-4.4-15.3h18.2l5,15.3H170.4z M170.4,203.7"/>
<path class="st0" d="M72.4,226.9"/>
</svg>
