<?xml version="1.0" encoding="utf-8"?>
<!-- Generator: Adobe Illustrator 21.1.0, SVG Export Plug-In . SVG Version: 6.00 Build 0)  -->
<svg version="1.1" id="Layer_1" xmlns="http://www.w3.org/2000/svg" xmlns:xlink="http://www.w3.org/1999/xlink" x="0px" y="0px"
	 viewBox="0 0 256 256" style="enable-background:new 0 0 256 256;" xml:space="preserve">
<style type="text/css">
	.st0{fill:none;stroke:#000000;stroke-miterlimit:10;}
</style>
<g>
	<path class="st0" d="M188.9,19c-0.9,0.1-2,0.7-2.3,0.9c-1.7,1.1-3.1,2.8-4.5,4.2c-2.8,3-5.3,6.3-7.8,9.6
		c-23.9,31.5-47.8,63-69.2,96.2c-3,4.6-6,9.5-6.5,15c-0.5,5.5,2.4,11.7,7.8,13.1c4.1,1.1,8.4-1,11.9-3.5c9.5-7,15.4-17.7,20.9-28.1
		c14.5-27.3,28.5-54.8,41.2-82.9c3.5-7.7,7.4-15.4,9.6-23.6C190.1,19.1,189.6,18.9,188.9,19z"/>
	<path class="st0" d="M110.2,161.4c-5.9,0.7-10.1-1.3-12.6-6.5c-0.5-1-7.3,2.2-8.1,2.6c-2.2,1.2-4.2,2.9-5.7,4.8
		c-3.1,3.8-4.8,8.8-5,13.7c-0.1,1.4,0,2.9-0.3,4.2s-1,2.8-2.3,3.4c-1,0.5-2.1,0.6-3.3,0.6c-2,0-4-0.2-5.9-0.5
		c-0.5-0.1,1.7,4,2.2,4.4c3.1,2.7,7.8,3.4,11.8,3.7c7.4,0.5,15.1-1.1,21-5.6C110,180.3,111.9,170.8,110.2,161.4z"/>
</g>
<path class="st0" d="M128.4,149.1V216c0,4.4-3.6,8-8,8H40c-4.4,0-8-3.6-8-8v-80.4c0-4.4,3.6-8,8-8h63.1"/>
</svg>
