<?xml version="1.0" encoding="utf-8"?>
<!-- Generator: Adobe Illustrator 21.1.0, SVG Export Plug-In . SVG Version: 6.00 Build 0)  -->
<svg version="1.1" id="Layer_1" xmlns="http://www.w3.org/2000/svg" xmlns:xlink="http://www.w3.org/1999/xlink" x="0px" y="0px"
	 viewBox="0 0 256 256" style="enable-background:new 0 0 256 256;" xml:space="preserve">
<style type="text/css">
	.st0{fill:none;stroke:#312D30;stroke-miterlimit:10;}
</style>
<path class="st0" d="M160.2,224H95.8C78.2,224,64,209.8,64,192.2V56.4c0-4.6,3.8-8.4,8.4-8.4h111.6c4.4,0,8.1,3.6,8.1,8.1v136.1
	C192,209.8,177.8,224,160.2,224z"/>
<path class="st0" d="M192,72v13c21.5,0,39,17.5,39,39s-17.5,39-39,39v13c28.7,0,52-23.3,52-52S220.7,72,192,72z"/>
<path class="st0" d="M163,128c0-16.6-13.4-30-30-30V88c-22.1,0-40,17.9-40,40s17.9,40,40,40v-10C149.6,158,163,144.6,163,128z"/>
</svg>
