<?xml version="1.0" encoding="utf-8"?>
<!-- Generator: Adobe Illustrator 21.1.0, SVG Export Plug-In . SVG Version: 6.00 Build 0)  -->
<svg version="1.1" id="Layer_1" xmlns="http://www.w3.org/2000/svg" xmlns:xlink="http://www.w3.org/1999/xlink" x="0px" y="0px"
	 viewBox="0 0 256 256" style="enable-background:new 0 0 256 256;" xml:space="preserve">
<style type="text/css">
	.st0{fill:none;stroke:#000000;stroke-miterlimit:10;}
</style>
<path class="st0" d="M192,143.5V40c0-4.4-3.6-8-8-8h-69.5c12.9,8.6,21.5,23.3,21.5,40c0,26.5-21.5,48-48,48c-8.7,0-16.9-2.4-24-6.4
	V216c0,4.4,3.6,8,8,8h59.2C139.2,189.3,161.7,160.3,192,143.5z M76,200c-2.2,0-4-1.8-4-4c0-2.2,1.8-4,4-4s4,1.8,4,4
	C80,198.2,78.2,200,76,200z M108,216c-2.2,0-4-1.8-4-4c0-2.2,1.8-4,4-4s4,1.8,4,4C112,214.2,110.2,216,108,216z M96,168
	c-8.8,0-16-7.2-16-16s7.2-16,16-16s16,7.2,16,16S104.8,168,96,168z M132,184c-2.2,0-4-1.8-4-4c0-2.2,1.8-4,4-4s4,1.8,4,4
	C136,182.2,134.2,184,132,184z M152,104c-4.4,0-8-3.6-8-8s3.6-8,8-8s8,3.6,8,8S156.4,104,152,104z M160,52c0-6.6,5.4-12,12-12
	s12,5.4,12,12c0,6.6-5.4,12-12,12S160,58.6,160,52z"/>
<path class="st0" d="M136,72c0-16.7-8.5-31.4-21.5-40H72c-4.4,0-8,3.6-8,8v73.6c7.1,4.1,15.3,6.4,24,6.4C114.5,120,136,98.5,136,72z
	"/>
<circle class="st0" cx="172" cy="52" r="12"/>
<path class="st0" d="M192,216v-72.5c-30.3,16.8-52.8,45.9-60.8,80.5H184C188.4,224,192,220.4,192,216z"/>
<circle class="st0" cx="96" cy="152" r="16"/>
<circle class="st0" cx="152" cy="96" r="8"/>
<circle class="st0" cx="76" cy="196" r="4"/>
<circle class="st0" cx="108" cy="212" r="4"/>
<circle class="st0" cx="132" cy="180" r="4"/>
</svg>
