<?xml version="1.0" encoding="utf-8"?>
<!-- Generator: Adobe Illustrator 21.1.0, SVG Export Plug-In . SVG Version: 6.00 Build 0)  -->
<svg version="1.1" id="Layer_1" xmlns="http://www.w3.org/2000/svg" xmlns:xlink="http://www.w3.org/1999/xlink" x="0px" y="0px"
	 viewBox="0 0 256 256" style="enable-background:new 0 0 256 256;" xml:space="preserve">
<style type="text/css">
	.st0{fill-rule:evenodd;clip-rule:evenodd;fill:none;stroke:#312D30;stroke-miterlimit:10;}
	.st1{fill:none;stroke:#312D30;stroke-miterlimit:10;}
</style>
<g>
	<g>
		<path class="st0" d="M58.6,100.7v50c0,0.7,0.6,1.3,1.3,1.3h18.6c0.7,0,1.3-0.6,1.3-1.3V99.9h13.4c0.7,0,1.2-0.5,1.3-1.2l1.3-15.3
			c0.1-0.8-0.5-1.4-1.3-1.4H79.7V71.2c0-2.5,2.1-4.6,4.6-4.6h10.4c0.7,0,1.3-0.6,1.3-1.3V50c0-0.7-0.6-1.3-1.3-1.3H77.2
			c-10.3,0-18.6,8.3-18.6,18.6V82h-9.3c-0.7,0-1.3,0.6-1.3,1.3v15.3c0,0.7,0.6,1.3,1.3,1.3h9.3V100.7z"/>
	</g>
</g>
<g>
	<g>
		<g>
			<path class="st1" d="M128.4,112.2c0-0.5,0-0.9,0-1.4c0.6-0.6,1.2-1.2,2.1-1.4c7.2-1.4,12-6,15.6-12c3-5.1,2.6-6.2-3.1-8.2
				c-0.3-0.1-0.7-0.2-1-0.3c-1.2-0.5-2.4-1-3.4-1.9c-2.5-2.2-1-5.3,1.9-6c2.2-0.5,4.1,0.9,6.2,1.1c1.4,0.2,2-0.3,1.8-1.8
				c-0.4-3.9-0.4-7.7-0.3-11.6c0.3-7.4,4-13,10.1-16.7c9-5.3,18.4-5.4,27.4-0.1c5.6,3.3,9.3,8.3,10.1,15c0.5,4.4,0.3,8.8,0,13.1
				c-0.1,1.9,0.2,2.3,2.1,1.8c2.3-0.5,4.3-1.7,6.7-0.7c1.3,0.6,2.4,1.8,2.4,3.2c0,1-0.6,1.9-1.3,2.5c-1.1,1-2.6,1.5-3.9,2.1
				c-1.1,0.4-2.2,0.8-3.2,1.2c-2.1,1-2.7,2.3-1.7,4.4c3.4,7.3,8.5,12.8,16.7,14.7c1,0.2,1.8,0.6,2.4,1.4c0,0.5,0,0.9,0,1.4
				c-0.8,1.6-2.2,2.5-3.7,3.1c-1.6,0.6-3.2,1.3-4.9,1.4c-2.4,0.2-3.6,1.2-4,3.6c-0.3,2.3-1,2.7-3.4,2.5c-0.6,0-1.1-0.2-1.7-0.2
				c-4.7-0.8-9.1-0.4-12.9,2.8c-0.8,0.6-1.6,1.1-2.4,1.6c-6.6,4.3-13.3,4.7-20.1,0.7c-1.9-1.1-3.6-2.3-5.4-3.5
				c-1.5-1-3.1-1.5-4.9-1.8c-2.8-0.4-5.6,0.2-8.3,0.5c-1.4,0.2-2.8-0.2-2.9-1.7c-0.2-3.5-2.4-4.4-5.3-4.7c-1.4-0.2-2.8-0.7-4.1-1.3
				C130.4,114.5,129.1,113.7,128.4,112.2z"/>
		</g>
	</g>
</g>
<g>
	<path class="st1" d="M159.8,159.5c-2.7,0-4.9,2.2-4.9,4.9c0,2.7,2.2,4.9,4.9,4.9c2.7,0,4.9-2.2,4.9-4.9
		C164.7,161.7,162.5,159.5,159.8,159.5z M138,172.3c-7.7,0-14,6.3-14,14c0,7.7,6.3,14,14,14s14-6.3,14-14
		C152,178.6,145.7,172.3,138,172.3z M171.7,202.4c0,9.5-7.7,17.3-17.3,17.3h-33.2c-9.5,0-17.3-7.7-17.3-17.3v-33.2
		c0-9.5,7.7-17.3,17.3-17.3h33.2c9.5,0,17.3,7.7,17.3,17.3V202.4z"/>
</g>
</svg>
