<?xml version="1.0" encoding="utf-8"?>
<!-- Generator: Adobe Illustrator 21.1.0, SVG Export Plug-In . SVG Version: 6.00 Build 0)  -->
<svg version="1.1" id="Layer_1" xmlns="http://www.w3.org/2000/svg" xmlns:xlink="http://www.w3.org/1999/xlink" x="0px" y="0px"
	 viewBox="0 0 256 256" style="enable-background:new 0 0 256 256;" xml:space="preserve">
<style type="text/css">
	.st0{fill:none;stroke:#000000;stroke-miterlimit:10;}
</style>
<g>
	<path class="st0" d="M136.6,83.8H62.5c-1.3,0-2.3,1-2.3,2.3v4.6h-4.6v4.6h4.6v4.6h-4.6v4.6h4.6v4.6h-4.6v4.6h4.6v4.6h-4.6v4.6h4.6
		v4.6h-4.6v4.6h4.6v4.6h-4.6v4.6h4.6v4.6h-4.6v4.6h4.6v4.6h-4.6v4.6h4.6v4.6h-4.6v4.6h4.6v4.6h-4.6v4.6h4.6v4.6h-4.6v4.6h4.6v4.6
		c0,1.3,1,2.3,2.3,2.3h74.1c1.3,0,2.3-1,2.3-2.3V86.1C138.9,84.9,137.9,83.8,136.6,83.8L136.6,83.8z M134.3,190.4H64.8V88.4h69.5
		V190.4z M134.3,190.4"/>
	<path class="st0" d="M173.6,56h-27.8c-1.3,0-2.3,1-2.3,2.3v134.4c0,1.3,1,2.3,2.3,2.3h27.8c1.3,0,2.3-1,2.3-2.3V58.3
		C176,57.1,174.9,56,173.6,56L173.6,56z M148.2,190.4V60.7h4.6v129.7H148.2z M157.4,190.4V60.7h13.9v6.9h-9.3v4.6h9.3v4.6h-4.6v4.6
		h4.6v4.6h-9.3v4.6h9.3v4.6h-4.6v4.6h4.6v4.6h-9.3v4.6h9.3v4.6h-4.6v4.6h4.6v4.6h-9.3v4.6h9.3v4.6h-4.6v4.6h4.6v4.6h-9.3v4.6h9.3
		v4.6h-4.6v4.6h4.6v4.6h-9.3v4.6h9.3v4.6h-4.6v4.6h4.6v4.6h-9.3v4.6h9.3v6.9H157.4z M157.4,190.4"/>
	<path class="st0" d="M57.8,79.2h32.4c3.8,0,6.9-3.1,7-7V63c0-3.8-3.1-6.9-7-7H57.8c-1.3,0-2.3,1-2.3,2.3v18.5
		C55.5,78.1,56.5,79.2,57.8,79.2L57.8,79.2z M92.6,63v9.3c0,1.3-1,2.3-2.3,2.3h-4.6V60.7h4.6C91.5,60.7,92.6,61.7,92.6,63L92.6,63z
		 M60.1,60.7H81v13.9H60.1V60.7z M60.1,60.7"/>
	<path class="st0" d="M194.4,76.3l-4.6-18.5c-0.3-1-1.2-1.8-2.2-1.8c-1.1,0-2,0.7-2.2,1.8l-4.6,18.5c0,0.2-0.1,0.4-0.1,0.6v115.8
		c0,1.3,1,2.3,2.3,2.3h9.3c1.3,0,2.3-1,2.3-2.3V76.9C194.5,76.7,194.5,76.5,194.4,76.3L194.4,76.3z M189.9,181.1h-4.6v-94l2.3-2.3
		l2.3,2.3V181.1z M185.2,77.2l2.3-9.3l2.3,9.3v3.4l-0.7-0.7c-0.9-0.9-2.4-0.9-3.3,0l-0.7,0.7V77.2z M189.9,190.4h-4.6v-4.6h4.6
		V190.4z M189.9,190.4"/>
	<rect x="106.5" y="97.7" width="9.3" height="4.6"/>
	<rect x="120.4" y="97.7" width="9.3" height="4.6"/>
	<rect x="69.4" y="109.3" width="60.2" height="4.6"/>
	<rect x="69.4" y="120.9" width="60.2" height="4.6"/>
	<rect x="69.4" y="132.5" width="60.2" height="4.6"/>
	<rect x="69.4" y="155.6" width="60.2" height="4.6"/>
	<rect x="69.4" y="144.1" width="60.2" height="4.6"/>
	<rect x="69.4" y="167.2" width="60.2" height="4.6"/>
	<rect x="69.4" y="178.8" width="60.2" height="4.6"/>
	<path class="st0" d="M136.6,56h-32.4c-1.3,0-2.3,1-2.3,2.3v18.5c0,1.3,1,2.3,2.3,2.3h32.4c1.3,0,2.3-1,2.3-2.3V58.3
		C138.9,57.1,137.9,56,136.6,56L136.6,56z M115.7,74.6h-9.3v-4.6H125v4.6H115.7z M134.3,74.6h-4.6v-7c0-1.3-1-2.3-2.3-2.3h-20.8
		v-4.6h27.8V74.6z M134.3,74.6"/>
	<path class="st0" d="M118.1,72.2c0,1.3-1,2.3-2.3,2.3c-1.3,0-2.3-1-2.3-2.3c0-1.3,1-2.3,2.3-2.3C117,69.9,118.1,71,118.1,72.2
		L118.1,72.2z M118.1,72.2"/>
</g>
</svg>
