<?xml version="1.0" encoding="utf-8"?>
<!-- Generator: Adobe Illustrator 21.1.0, SVG Export Plug-In . SVG Version: 6.00 Build 0)  -->
<svg version="1.1" id="Layer_1" xmlns="http://www.w3.org/2000/svg" xmlns:xlink="http://www.w3.org/1999/xlink" x="0px" y="0px"
	 viewBox="0 0 256 256" style="enable-background:new 0 0 256 256;" xml:space="preserve">
<style type="text/css">
	.st0{fill:none;stroke:#312D30;stroke-miterlimit:10;}
	.st1{fill:none;stroke:#010101;stroke-miterlimit:10;}
</style>
<path class="st0" d="M224,128c0,17.4-4.6,33.7-12.7,47.8c-4.5,1.1-9.3,1.7-14.1,1.7c-7.7,0-14.1-0.8-21-4.2
	c-6-2.9-12.4-6.8-19.3-5.6c-5,0.8-9.2,4.3-12.1,8.4c-3.1,4.4-4.3,9.9-7.3,14.2c-3.4,4.8-7.9,8.9-12.6,12.5
	c-10.3,7.9-22.9,12.4-35.8,12.8c-33.6-15-57-48.6-57-87.7c0-1.3,0-2.5,0.1-3.8C34,73,76.2,32,128,32c26.2,0,49.9,10.5,67.2,27.5
	C213,76.9,224,101.2,224,128z"/>
<circle class="st0" cx="128" cy="128" r="96"/>
<path class="st1" d="M111.5,143.1l-31.2-31.2c-1.7-1.7-4.6-1.7-6.3,0l-39,39"/>
<path class="st1" d="M223.7,126.3c-5.6-1.6-11.3-2.4-17.1-2.4c-3.6,0-7.1,0.4-10.6,1l-44.3-44.3c-1.7-1.7-4.6-1.7-6.3,0l-48.2,48.1"
	/>
<circle class="st1" cx="88" cy="72" r="16"/>
</svg>
