<?xml version="1.0" encoding="utf-8"?>
<!-- Generator: Adobe Illustrator 21.1.0, SVG Export Plug-In . SVG Version: 6.00 Build 0)  -->
<svg version="1.1" id="Layer_1" xmlns="http://www.w3.org/2000/svg" xmlns:xlink="http://www.w3.org/1999/xlink" x="0px" y="0px"
	 viewBox="0 0 256 256" style="enable-background:new 0 0 256 256;" xml:space="preserve">
<style type="text/css">
	.st0{fill:none;stroke:#000000;stroke-miterlimit:10;}
</style>
<path class="st0" d="M160,71.4V64h-6.4C155.9,66.3,158.1,68.7,160,71.4z"/>
<path class="st0" d="M156.5,178.1c-6.6,0-11.9-5.3-11.9-11.9s5.3-11.9,11.9-11.9c1.2,0,2.4,0.2,3.5,0.5v-23
	c-9.4,13.2-24.9,21.8-42.3,21.8c-7.8,0-15.1-1.7-21.7-4.8V184v8h64v-8v-6.4C158.9,177.9,157.7,178.1,156.5,178.1z"/>
<path class="st0" d="M168.4,72c5.8,8.4,9.3,18.6,9.3,29.6c0,11.3-3.6,21.7-9.7,30.2v23c4.9,1.5,8.4,6,8.4,11.4s-3.5,9.9-8.4,11.4
	v6.4h64V72H168.4z M184.7,96.1c0-3.1,2.5-5.5,5.5-5.5c3.1,0,5.5,2.5,5.5,5.5c0,3.1-2.5,5.5-5.5,5.5
	C187.2,101.6,184.7,99.1,184.7,96.1z M205.5,144.9c-6.9,0-12.5-5.6-12.5-12.5c0-6.9,5.6-12.5,12.5-12.5c6.9,0,12.5,5.6,12.5,12.5
	C218.1,139.3,212.5,144.9,205.5,144.9z"/>
<path class="st0" d="M57.7,102c0-11,3.4-21.2,9.3-29.6H24v112h64v-35.1C70.1,141,57.7,122.9,57.7,102z M34.2,90.9
	c-3.1,0-5.5-2.5-5.5-5.5c0-3.1,2.5-5.5,5.5-5.5c3.1,0,5.5,2.5,5.5,5.5C39.7,88.4,37.3,90.9,34.2,90.9z M49.1,158.2
	c-3.1,0-5.5-2.5-5.5-5.5c0-3.1,2.5-5.5,5.5-5.5c3.1,0,5.5,2.5,5.5,5.5C54.6,155.7,52.1,158.2,49.1,158.2z"/>
<path class="st0" d="M160.4,72c-0.1-0.2-0.3-0.4-0.4-0.6V72H160.4z"/>
<path class="st0" d="M96,72v76.9c6.6,3,14,4.8,21.7,4.8c17.4,0,32.8-8.6,42.3-21.8V72v-0.6c-1.9-2.7-4.1-5.1-6.4-7.4H96V72z"/>
<path class="st0" d="M168,131.9c6.1-8.5,9.7-19,9.7-30.2c0-11-3.4-21.2-9.3-29.6H168V131.9z"/>
<path class="st0" d="M88,149.2V72.3H67c-5.8,8.4-9.3,18.6-9.3,29.6C57.7,122.9,70.1,141,88,149.2z"/>
<circle class="st0" cx="205.5" cy="132.4" r="12.5"/>
<path class="st0" d="M144.6,166.3c0,6.6,5.3,11.9,11.9,11.9c1.2,0,2.4-0.2,3.5-0.5v-22.7c-1.1-0.3-2.3-0.5-3.5-0.5
	C150,154.4,144.6,159.7,144.6,166.3z"/>
<path class="st0" d="M176.4,166.3c0-5.3-3.5-9.9-8.4-11.4v22.7C172.9,176.1,176.4,171.6,176.4,166.3z"/>
<circle class="st0" cx="49.1" cy="152.6" r="5.5"/>
<circle class="st0" cx="190.2" cy="96.1" r="5.5"/>
<circle class="st0" cx="34.2" cy="85.3" r="5.5"/>
</svg>
