<?xml version="1.0" encoding="utf-8"?>
<!-- Generator: Adobe Illustrator 21.1.0, SVG Export Plug-In . SVG Version: 6.00 Build 0)  -->
<svg version="1.1" id="Layer_1" xmlns="http://www.w3.org/2000/svg" xmlns:xlink="http://www.w3.org/1999/xlink" x="0px" y="0px"
	 viewBox="0 0 256 256" style="enable-background:new 0 0 256 256;" xml:space="preserve">
<style type="text/css">
	.st0{fill:none;stroke:#010101;stroke-miterlimit:10;}
</style>
<path class="st0" d="M81.4,93.6l-35.5,33.6c-0.8,0.8-1.3,1.9-1.3,3.1c0,1.2,0.5,2.3,1.4,3l35.3,31.6c1.7,1.5,1.8,4.1,0.3,5.9
	c-0.8,0.9-1.9,1.4-3.1,1.4c-1,0-2-0.4-2.8-1.1l-42-37.6c-0.9-0.8-1.4-1.9-1.4-3c0-1.2,0.5-2.3,1.3-3.1l42-39.8
	c0.8-0.7,1.8-1.1,2.8-1.1c0,0,0.1,0,0.1,0c1.1,0,2.1,0.5,2.9,1.3c0.8,0.8,1.2,1.9,1.1,3C82.7,91.8,82.2,92.8,81.4,93.6z"/>
<path class="st0" d="M223.6,129.4c0,1.2-0.5,2.3-1.4,3l-42,37.6c-0.8,0.7-1.7,1.1-2.8,1.1h0c-1.2,0-2.3-0.5-3.1-1.4
	c-1.5-1.7-1.4-4.3,0.3-5.9l35.3-31.6c0.9-0.8,1.4-1.9,1.4-3c0-1.2-0.5-2.3-1.3-3.1l-35.5-33.6c-1.7-1.6-1.7-4.2-0.2-5.9
	c0.8-0.9,1.9-1.3,3-1.3c1,0,2,0.4,2.8,1.1l42,39.8C223.1,127.1,223.6,128.2,223.6,129.4L223.6,129.4L223.6,129.4z"/>
<path class="st0" d="M162.1,80.6L103.7,182c-1,1.8-2.9,2.9-5,2.9c-1,0-2-0.3-2.9-0.8c-2.8-1.6-3.7-5.1-2.1-7.9l58.4-101.4
	c1.1-1.8,3-2.9,5-2.9c1,0,2,0.2,2.9,0.8c1.3,0.8,2.3,2,2.7,3.5C163,77.7,162.8,79.3,162.1,80.6z"/>
</svg>
