<svg xmlns="http://www.w3.org/2000/svg" xmlns:xlink="http://www.w3.org/1999/xlink" width="677.972" height="624.876" viewBox="0 0 677.972 624.876">
  <defs>
    <linearGradient id="linear-gradient" x1="0.5" x2="0.5" y2="1" gradientUnits="objectBoundingBox">
      <stop offset="0" stop-color="#fad1d5"/>
      <stop offset="1" stop-color="#fbebed"/>
    </linearGradient>
  </defs>
  <g id="login" transform="translate(-0.005 -0.001)">
    <g id="Layer_2" data-name="Layer 2">
      <g id="Layer_1" data-name="Layer 1">
        <path id="Path_566" data-name="Path 566" d="M172.24,582.44c-83.05-28-155.08-97.59-169.83-184s39.73-183.77,125.35-202.5c40.49-8.85,84.18-.94,122.86-15.82C323.57,152.07,348.36,57.18,415.75,17.6,480.69-20.53,569.71,7,618.08,64.68S680.57,202,677.6,277.27C673.25,387.81,626.28,507,526,553.77c-84.5,39.39-263.15,50.55-353.77,28.67" fill="url(#linear-gradient)"/>
        <path id="Path_567" data-name="Path 567" d="M74.65,566.11c18.36,29.18,56.19,40.14,90.66,39.44S233.48,595,267.9,593c54.55-3.17,108,13.42,161.63,23.93s112.23,14.25,160.05-12.18c11.71-6.47,23-15.31,27.74-27.82s.46-29.11-11.88-34.28c-4.78-2-10.1-2.13-15.28-2.22L245.52,534c-58.47-1-122.94,0-166.8,38.63" fill="#ab1322"/>
        <g id="Group_864" data-name="Group 864" opacity="0.15">
          <path id="Path_568" data-name="Path 568" d="M558.94,215.09c-6.1,5.94-7.67,15.85-2,22.7,5.38,6.55,16,8.07,22.76,2.88s8.84-15.23,4.14-22.48c-4.84-7.47-14.57-10.36-23-9.11-.84.13-.65,1.56.2,1.49,6.79-.5,14.07.77,19.19,5.61a15.35,15.35,0,0,1,.48,21.56c-5.76,6.12-15.92,5.91-21.8,0s-5.25-16.31.61-22.12c.34-.34-.19-.86-.53-.53Z" fill="#3b3b3b"/>
          <path id="Path_569" data-name="Path 569" d="M101.06,147.56a22.8,22.8,0,0,0-32.18,21.7c.24,6,2.65,12.92-1.19,17.6-3,3.61-8.27,3.94-12.53,5.87-8.1,3.66-12.13,14.37-8.45,22.46,2,4.38,5.94,8.41,5.19,13.16-.49,3.07-2.93,5.5-5.63,7.05s-5.73,2.43-8.53,3.8c-10.19,5-16.39,16.58-16.09,27.93s6.53,22.11,15.49,29.08S57.51,306.58,68.86,307s23.26-2.24,31.93-9.59c6.51-5.53,10.76-13.27,13.89-21.21a105.94,105.94,0,0,0,7-47.76c-1.43-16.78-6.85-33-8-49.84-.4-5.63-.32-11.34-1.58-16.84s-4.07-10.94-8.89-13.87" fill="#3b3b3b"/>
          <path id="Path_570" data-name="Path 570" d="M98.47,149.73a50.18,50.18,0,0,1,33.85-26.83c8.94-2,18.75-1.32,26.6,3.39s13.28,13.88,12.08,23c-.74,5.61-3.78,10.62-5.71,15.94s-2.57,11.81,1,16.19c3.23,3.92,8.75,4.89,13.15,7.43a19.73,19.73,0,0,1-2,35.18,23.7,23.7,0,0,1,20.35,28.95c-2.18,9.29-9.74,16.41-17.86,21.42A78.65,78.65,0,0,1,142.3,286c-14.06.64-29.65-3.52-37.3-15.34-5-7.77-5.79-17.45-6.35-26.69-1.7-27.86-2.87-55.75-4-83.64-.18-4.48-.37-9,.69-13.41" fill="#3b3b3b"/>
          <path id="Path_571" data-name="Path 571" d="M145.81,275.61l126.13,47.28L259.9,272l32.8-8.34s35.3,99.54,10.78,102.2c-42.9,4.67-107.81-12.32-107.81-12.32Z" fill="#3b3b3b"/>
          <path id="Path_572" data-name="Path 572" d="M134.78,493S287.16,326.62,390,362.94,536.34,568.65,536.34,568.65l-81.94-1.32s-64.71-128-96.28-123S229,571.08,229,571.08Z" fill="#3b3b3b"/>
          <path id="Path_573" data-name="Path 573" d="M183,392l6.32,97.58C156.47,530,42.12,477.73,42.12,477.73l-1.34-40.8-2.65-97.18c2.63-38.7,38.57-57.69,38.57-57.69,14.86-7.41,37.52-11.61,57.94-10.6,21.31,1.05,26.58,11.26,35.36,30.71C177.09,317.88,196.34,343.47,183,392Z" fill="#3b3b3b"/>
          <path id="Path_574" data-name="Path 574" d="M63.49,496.12S46,567.3,99.3,578.52s249.35-15,300.42-10.54,196.28,13,196.28,13l10.63-84.53s-226-10.83-251.53-4.49S63.49,496.12,63.49,496.12Z" fill="#3b3b3b"/>
          <path id="Path_575" data-name="Path 575" d="M89,371.67s-16,94.19,6.56,91.87c74.14-7.62,118.29-8.65,118.29-8.65l12.29,25.51c.29,4.35-140.41,44.63-163,31.31-16-9.4-41.39-34.73-29.84-110.41L36,375.93Z" fill="#3b3b3b"/>
          <path id="Path_576" data-name="Path 576" d="M155.94,506.89l-.15-6.31,93.06-13.14,24.71-86.38,103.08-2.5-27.81,93.49Z" fill="#3b3b3b"/>
          <path id="Path_577" data-name="Path 577" d="M323.22,442a7.63,7.63,0,1,1-7.81-7.45A7.63,7.63,0,0,1,323.22,442Z" fill="#3b3b3b"/>
          <path id="Path_578" data-name="Path 578" d="M326.28,441.92a10.69,10.69,0,1,1-10.94-10.42,10.69,10.69,0,0,1,10.94,10.42Z" fill="#3b3b3b" opacity="0.41"/>
          <path id="Path_579" data-name="Path 579" d="M48.26,309.19S31,325.8,27.1,388.64L94,381.23S105.19,274.21,48.26,309.19Z" fill="#3b3b3b"/>
          <path id="Path_580" data-name="Path 580" d="M539.61,120.23s23.72,53.28,30.34,50.49,67.9-40.81,67.9-40.81-25.12-47.7-30.34-50.49S539.61,120.23,539.61,120.23Z" fill="#3b3b3b" stroke="#3b3b3b" stroke-miterlimit="10" stroke-width="1"/>
          <path id="Path_581" data-name="Path 581" d="M539.61,120.23l49.51,8.05L607.5,79.42" fill="#3b3b3b" stroke="#3b3b3b" stroke-miterlimit="10" stroke-width="1"/>
          <path id="Path_582" data-name="Path 582" d="M572.64,126q-6,19-10.49,38.48" fill="#3b3b3b" stroke="#3b3b3b" stroke-miterlimit="10" stroke-width="1"/>
          <path id="Path_583" data-name="Path 583" d="M596,113.32l37.83,6" fill="#3b3b3b" stroke="#3b3b3b" stroke-miterlimit="10" stroke-width="1"/>
          <path id="Path_584" data-name="Path 584" d="M81.78,177.48l1.52,20s-17,2.28-12.13,17.76,16.44,8.7,16.44,8.7,2.9,39.64,43.51,27.07c32.32-10,30.35-51.86,26.24-87.54A23.88,23.88,0,0,0,129,142.76l-24.42,4.75a28.34,28.34,0,0,0-22.8,29.97Z" fill="#3b3b3b"/>
          <path id="Path_585" data-name="Path 585" d="M83.3,214l10.94,58.36a23.41,23.41,0,0,0,28.44,18.45h0a23.4,23.4,0,0,0,17.61-26.86l-5.94-33.44Z" fill="#3b3b3b"/>
          <path id="Path_586" data-name="Path 586" d="M128.22,214.64s.09.12.24.33a1.6,1.6,0,0,0,.9.61,1.9,1.9,0,0,0,1.61-.44,3.53,3.53,0,0,0,1.18-2,18.83,18.83,0,0,0,.16-6.27c-.15-2.4-.33-5-.51-7.78-.34-5.52-.62-10.52-.8-14.14-.08-1.74-.14-3.18-.19-4.29a10.758,10.758,0,0,1,0-1.58,8.281,8.281,0,0,1,.2,1.57c.09,1.1.21,2.54.35,4.28.28,3.61.62,8.61,1,14.13.17,2.76.33,5.38.47,7.78a18.4,18.4,0,0,1-.29,6.4,3.75,3.75,0,0,1-1.35,2.1,2.14,2.14,0,0,1-1.85.41,1.72,1.72,0,0,1-.93-.75A1,1,0,0,1,128.22,214.64Z" fill="#3b3b3b"/>
          <path id="Path_587" data-name="Path 587" d="M141.39,246.89a2.649,2.649,0,0,1-.3.29,8.624,8.624,0,0,1-1,.74,28.386,28.386,0,0,1-3.79,2.31,32.25,32.25,0,0,1-28.42.6,29.7,29.7,0,0,1-3.89-2.15c-.44-.28-.76-.54-1-.7s-.33-.26-.32-.28a15.305,15.305,0,0,1,1.41.8,38.164,38.164,0,0,0,3.93,2,33.3,33.3,0,0,0,28.1-.6,35.253,35.253,0,0,0,3.85-2.15,11.916,11.916,0,0,1,1.43-.86Z" fill="#3b3b3b"/>
          <path id="Path_588" data-name="Path 588" d="M133.46,222.83a2.58,2.58,0,0,1-.53.7,8.57,8.57,0,0,1-1.87,1.48,9.33,9.33,0,0,1-13.43-4.32,8.45,8.45,0,0,1-.67-2.3,2.53,2.53,0,0,1,0-.87,18,18,0,0,0,1,3,9.27,9.27,0,0,0,12.92,4.16,17.661,17.661,0,0,0,2.58-1.85Z" fill="#3b3b3b"/>
          <path id="Path_589" data-name="Path 589" d="M82,217.12a1.52,1.52,0,0,1-.67.06,5,5,0,0,1-1.81-.41,3.39,3.39,0,0,1-1.92-2,2.69,2.69,0,0,1-.05-1.71,2.132,2.132,0,0,1,3.72-.68l-.44.23c-.7-1.61-1.28-3-1.68-4a7.48,7.48,0,0,1-.55-1.63,6.92,6.92,0,0,1,.84,1.5c.47,1,1.12,2.34,1.84,3.93l-.44.23a1.53,1.53,0,0,0-1.83-.45,1.88,1.88,0,0,0-1,2.44,3.09,3.09,0,0,0,1.63,1.82,11.269,11.269,0,0,0,2.36.67Z" fill="#3b3b3b"/>
          <path id="Path_590" data-name="Path 590" d="M144.48,189.13a10.66,10.66,0,0,1-1-3.14,10.47,10.47,0,0,1-.47-3.24,10.37,10.37,0,0,1,1,3.13A10,10,0,0,1,144.48,189.13Z" fill="#3b3b3b"/>
          <path id="Path_591" data-name="Path 591" d="M110.1,192.33a10.67,10.67,0,0,1-1.1-3.13,11.14,11.14,0,0,1-.64-3.26,10.67,10.67,0,0,1,1.14,3.12,10.85,10.85,0,0,1,.6,3.27Z" fill="#3b3b3b"/>
          <path id="Path_592" data-name="Path 592" d="M113.29,177.8a17.229,17.229,0,0,0-4.28.3,17.18,17.18,0,0,0-3.88,1.84,3.761,3.761,0,0,1,.9-.95,8,8,0,0,1,2.85-1.39,7.87,7.87,0,0,1,3.16-.19C112.85,177.53,113.31,177.74,113.29,177.8Z" fill="#3b3b3b"/>
          <path id="Path_593" data-name="Path 593" d="M148.4,172.24a21.048,21.048,0,0,0-4.7-.36,21.809,21.809,0,0,0-4.58,1.17,7.68,7.68,0,0,1,4.53-1.69,7.51,7.51,0,0,1,4.75.88Z" fill="#3b3b3b"/>
          <path id="Path_594" data-name="Path 594" d="M83.3,197.43C94.63,186.38,98,168,101,152.43a39.68,39.68,0,0,0,37,4.83,60,60,0,0,0,13.2,11.53c1.4.9,3.07,1.77,4.66,1.29,1.9-.58,2.75-2.76,3.2-4.69a33.31,33.31,0,0,0-.66-18.8c-2.16-6-6.68-11.24-12.62-13.54-6.34-2.45-13.47-1.38-20.05.32a111.261,111.261,0,0,0-28.31,11.7c-8.67,5.08-17,11.8-20.69,21.16S73.15,193.76,82,198.49" fill="#3b3b3b"/>
          <path id="Path_595" data-name="Path 595" d="M129.57,225c0,.35-.45.75-1.34,1a8.17,8.17,0,0,1-6.74-1.43c-.72-.59-1-1.15-.82-1.46.39-.62,2.31-.08,4.57.38S129.46,224.27,129.57,225Z" fill="#3b3b3b"/>
          <path id="Path_596" data-name="Path 596" d="M115.44,206.47c.13.7-3.85,2-9,2.22s-9.18-.69-9.12-1.4,4.09-1,9-1.21S115.31,205.75,115.44,206.47Z" fill="#3b3b3b"/>
          <path id="Path_597" data-name="Path 597" d="M158.38,203c.15.69-3.36,2-7.91,2.21s-8.16-.69-8.09-1.39,3.63-1,8-1.21S158.24,202.25,158.38,203Z" fill="#3b3b3b"/>
          <path id="Path_598" data-name="Path 598" d="M82.83,250.23a5.69,5.69,0,0,1-.09-1.13c0-.83,0-1.86-.07-3.07-.06-2.59-.16-6.17-.36-10.12s-.47-7.52-.68-10.11l-.24-3.06a4.65,4.65,0,0,1,0-1.13,4.3,4.3,0,0,1,.23,1.11c.11.72.25,1.76.4,3.05.31,2.58.63,6.15.84,10.11s.24,7.55.2,10.15a29.142,29.142,0,0,1-.09,3.08,4.08,4.08,0,0,1-.14,1.12Z" fill="#3b3b3b"/>
          <path id="Path_599" data-name="Path 599" d="M150.22,275.18c-11-4.36,73.44,27,73.44,27l-8.56,57.74L183,349.38Z" fill="#3b3b3b"/>
          <path id="Path_600" data-name="Path 600" d="M100,144.55a17.55,17.55,0,0,0,2.35-13.82c-1-3.83-3.87-7.64-7.82-7.84a8.55,8.55,0,0,0-6.08,2.51,12.49,12.49,0,0,0,11.88,21.19" fill="#3b3b3b"/>
          <path id="Path_601" data-name="Path 601" d="M604.36,514.4s27.46-39.37,24.12-24.47-31.24,81.15-31.24,81.15Z" fill="#3b3b3b"/>
          <path id="Path_602" data-name="Path 602" d="M206.09,454.89s36.29-11.38,35-7.63-7.42,3.88-13.59,9.92c0,0,40.56.44,38.61,3.78s-28.35,4.18-28.51,4.75,28.88,1.28,28.22,4.37-27.63,2.33-27.63,2.33,25,2.66,24.5,6-23.58.92-23.58.92,19.3,2.21,18.8,5.23c-.3,1.84-56.51,2.26-56.62,3.61-.06.71,4.76-33.28,4.76-33.28" fill="#3b3b3b"/>
          <path id="Path_603" data-name="Path 603" d="M262.27,275.18s-22-30.79-18.11-30.78,6,5.82,13.61,9.78c0,0-12.18-38.51-8.41-37.7S262.12,242,262.7,242s-7.75-27.72-4.62-28.06,10.79,25.42,10.79,25.42-5.25-24.49-1.94-25,8.2,22,8.2,22-3.9-18.94-.89-19.41c1.83-.28,18.46,46.72,18.46,46.72-.43,0-30.43,11.56-30.43,11.56" fill="#3b3b3b"/>
          <path id="Path_604" data-name="Path 604" d="M59.07,359.91a4.28,4.28,0,0,1,.27,1.13,12.15,12.15,0,0,1,.2,3.15,6,6,0,0,1-.55,2.16,5,5,0,0,1-1.66,2,3.5,3.5,0,0,1-2.79.63A5,5,0,0,1,52,367.25a19.113,19.113,0,0,0-2-2.08,4.93,4.93,0,0,0-6.45.42,5.31,5.31,0,0,0-1.39,2.66c-.14.71-.1,1.12-.15,1.12s0-.09-.06-.29a4.26,4.26,0,0,1,0-.87,5.18,5.18,0,0,1,1.33-2.88,5.12,5.12,0,0,1,4.38-1.61,5.23,5.23,0,0,1,2.64,1,18.292,18.292,0,0,1,2.09,2.13,4.7,4.7,0,0,0,2.27,1.54,3,3,0,0,0,2.41-.52,4.79,4.79,0,0,0,1.55-1.76,6.24,6.24,0,0,0,.57-2,14.54,14.54,0,0,0,0-3.1,6.15,6.15,0,0,1-.12-1.1Z" fill="#3b3b3b"/>
          <path id="Path_605" data-name="Path 605" d="M78.89,342.81a4.93,4.93,0,0,1,.82-.82,12.311,12.311,0,0,1,2.59-1.81,6.121,6.121,0,0,1,2.13-.65,5.11,5.11,0,0,1,2.54.39A3.52,3.52,0,0,1,89,342a5,5,0,0,1-.12,3,19.459,19.459,0,0,0-.73,2.81,4.92,4.92,0,0,0,.41,2.54,4.81,4.81,0,0,0,3.3,2.75,5.34,5.34,0,0,0,3-.19c.68-.25,1-.51,1-.47s-.07.09-.22.21a4.2,4.2,0,0,1-.74.44,5.25,5.25,0,0,1-3.16.37,5.14,5.14,0,0,1-3.65-2.9,5.29,5.29,0,0,1-.48-2.81,18.259,18.259,0,0,1,.73-2.89,4.71,4.71,0,0,0,.14-2.74,3.11,3.11,0,0,0-1.71-1.79,4.72,4.72,0,0,0-2.3-.4,6,6,0,0,0-2,.55,14.62,14.62,0,0,0-2.62,1.64,5.228,5.228,0,0,1-.96.69Z" fill="#3b3b3b"/>
          <path id="Path_606" data-name="Path 606" d="M77.55,300.19a4.7,4.7,0,0,1,.82-.81A11.93,11.93,0,0,1,81,297.56a6.119,6.119,0,0,1,2.13-.65,5,5,0,0,1,2.54.4,3.53,3.53,0,0,1,2,2.05,5,5,0,0,1-.12,3.05,18.46,18.46,0,0,0-.72,2.81,4.91,4.91,0,0,0,3.7,5.29,5.33,5.33,0,0,0,3-.19c.68-.25,1-.5,1-.46s-.06.08-.22.21a4.2,4.2,0,0,1-.74.44,5.24,5.24,0,0,1-3.15.36,5.09,5.09,0,0,1-3.66-2.9,5.27,5.27,0,0,1-.48-2.8,18.108,18.108,0,0,1,.73-2.9,4.71,4.71,0,0,0,.14-2.74,3.08,3.08,0,0,0-1.71-1.79,4.7,4.7,0,0,0-2.3-.4,6,6,0,0,0-2,.55,15.218,15.218,0,0,0-2.62,1.64A4.64,4.64,0,0,1,77.55,300.19Z" fill="#3b3b3b"/>
          <path id="Path_607" data-name="Path 607" d="M119.82,355.69a4,4,0,0,1-.88-.74,12.591,12.591,0,0,1-2-2.42,6.18,6.18,0,0,1-.83-2.06,5,5,0,0,1,.17-2.57,3.56,3.56,0,0,1,1.88-2.16,5.09,5.09,0,0,1,3-.15,19.75,19.75,0,0,0,2.87.48,4.92,4.92,0,0,0,4.94-4.15,5.37,5.37,0,0,0-.45-3c-.31-.66-.59-1-.55-1s.09.06.22.2a4.11,4.11,0,0,1,.51.7,5.29,5.29,0,0,1,.64,3.11,5.1,5.1,0,0,1-2.58,3.89,5.25,5.25,0,0,1-2.75.73,17.334,17.334,0,0,1-2.94-.48,4.64,4.64,0,0,0-2.75.11,3.07,3.07,0,0,0-1.63,1.85,4.69,4.69,0,0,0-.2,2.33,6.12,6.12,0,0,0,.73,1.95,14.59,14.59,0,0,0,1.86,2.47,6.92,6.92,0,0,1,.74.91Z" fill="#3b3b3b"/>
          <path id="Path_608" data-name="Path 608" d="M148.63,400.27a4.652,4.652,0,0,1-.87.75,12.462,12.462,0,0,1-2.72,1.62,6.231,6.231,0,0,1-2.17.49,5.09,5.09,0,0,1-2.5-.58,3.55,3.55,0,0,1-1.84-2.2,5.08,5.08,0,0,1,.35-3,19,19,0,0,0,.93-2.75,4.93,4.93,0,0,0-.22-2.57,4.83,4.83,0,0,0-3.09-3,5.33,5.33,0,0,0-3,0c-.7.2-1.05.43-1.07.39s.07-.08.23-.2a4.361,4.361,0,0,1,.78-.38,5.14,5.14,0,0,1,6.6,3,5.27,5.27,0,0,1,.27,2.83,17.72,17.72,0,0,1-.94,2.83,4.64,4.64,0,0,0-.34,2.73,3.1,3.1,0,0,0,1.57,1.91,4.69,4.69,0,0,0,2.27.57,6,6,0,0,0,2-.41,14.08,14.08,0,0,0,2.73-1.44A5,5,0,0,1,148.63,400.27Z" fill="#3b3b3b"/>
          <path id="Path_609" data-name="Path 609" d="M182.56,330a4.55,4.55,0,0,1-.88.75,12.1,12.1,0,0,1-2.71,1.62,6.23,6.23,0,0,1-2.17.49,5,5,0,0,1-2.51-.58,3.56,3.56,0,0,1-1.83-2.2,5.09,5.09,0,0,1,.34-3,17.491,17.491,0,0,0,.93-2.75,4.74,4.74,0,0,0-.22-2.57,4.79,4.79,0,0,0-3.08-3,5.34,5.34,0,0,0-3,0c-.69.2-1,.42-1.07.38s.07-.08.24-.19a4.11,4.11,0,0,1,.77-.39,5.29,5.29,0,0,1,3.17-.13,5.14,5.14,0,0,1,3.43,3.17,5.24,5.24,0,0,1,.28,2.82,17.87,17.87,0,0,1-1,2.84,4.68,4.68,0,0,0-.34,2.72,3.07,3.07,0,0,0,1.57,1.91,4.64,4.64,0,0,0,2.27.57,6,6,0,0,0,2-.4,14.73,14.73,0,0,0,2.74-1.45A5.751,5.751,0,0,1,182.56,330Z" fill="#3b3b3b"/>
          <path id="Path_610" data-name="Path 610" d="M205.7,319.27a5.058,5.058,0,0,1,1,.58,12.26,12.26,0,0,1,2.44,2,6.26,6.26,0,0,1,1.2,1.88,5.12,5.12,0,0,1,.3,2.55,3.59,3.59,0,0,1-1.45,2.47,5.08,5.08,0,0,1-3,.7,18.379,18.379,0,0,0-2.9.06,4.91,4.91,0,0,0-4.11,5,5.35,5.35,0,0,0,1,2.84c.43.59.76.84.73.88s-.1,0-.26-.16a3.61,3.61,0,0,1-.63-.6,5.24,5.24,0,0,1-1.19-2.93,5.11,5.11,0,0,1,1.81-4.3,5.22,5.22,0,0,1,2.57-1.22,18.668,18.668,0,0,1,3-.07,4.63,4.63,0,0,0,2.68-.6,3.08,3.08,0,0,0,1.26-2.12,4.64,4.64,0,0,0-.23-2.33,5.9,5.9,0,0,0-1.07-1.78,15.072,15.072,0,0,0-2.28-2.09,5.728,5.728,0,0,1-.87-.76Z" fill="#3b3b3b"/>
          <path id="Path_611" data-name="Path 611" d="M112.07,436.62a5,5,0,0,1-.88.75,12.87,12.87,0,0,1-2.72,1.62,6.181,6.181,0,0,1-2.17.49,5.11,5.11,0,0,1-2.5-.58,3.53,3.53,0,0,1-1.83-2.2,5,5,0,0,1,.34-3,19.39,19.39,0,0,0,.93-2.75,4.91,4.91,0,0,0-3.31-5.55,5.33,5.33,0,0,0-3,0c-.7.2-1.05.43-1.07.39s.07-.09.23-.2a3.772,3.772,0,0,1,.78-.38,5.14,5.14,0,0,1,6.6,3,5.27,5.27,0,0,1,.27,2.83,17.72,17.72,0,0,1-.94,2.83,4.71,4.71,0,0,0-.34,2.73,3.13,3.13,0,0,0,1.57,1.91,4.83,4.83,0,0,0,2.27.57,6,6,0,0,0,2-.41,14.082,14.082,0,0,0,2.73-1.44,4.87,4.87,0,0,1,1.04-.61Z" fill="#3b3b3b"/>
          <path id="Path_612" data-name="Path 612" d="M162.28,369a4.832,4.832,0,0,1-.79-.85,12.1,12.1,0,0,1-1.73-2.64,6.29,6.29,0,0,1-.59-2.15,5.08,5.08,0,0,1,.48-2.52,3.51,3.51,0,0,1,2.12-1.93,5.18,5.18,0,0,1,3,.21,18.442,18.442,0,0,0,2.79.82,4.86,4.86,0,0,0,2.55-.33,4.81,4.81,0,0,0,2.85-3.21,5.29,5.29,0,0,0-.1-3c-.23-.69-.47-1-.43-1.06s.08.07.2.23a3.91,3.91,0,0,1,.42.75,5.26,5.26,0,0,1,.27,3.17,5.15,5.15,0,0,1-3,3.56,5.22,5.22,0,0,1-2.82.39,17.932,17.932,0,0,1-2.86-.82,4.67,4.67,0,0,0-2.74-.22,3,3,0,0,0-1.84,1.65,4.73,4.73,0,0,0-.48,2.29,6.061,6.061,0,0,0,.5,2,14.669,14.669,0,0,0,1.55,2.67A4.622,4.622,0,0,1,162.28,369Z" fill="#3b3b3b"/>
          <path id="Path_613" data-name="Path 613" d="M171.29,405.31a4.49,4.49,0,0,1-.79-.84,12.469,12.469,0,0,1-1.73-2.65,6,6,0,0,1-.58-2.14,5,5,0,0,1,.47-2.53,3.55,3.55,0,0,1,2.12-1.92,5.06,5.06,0,0,1,3.05.21,18.245,18.245,0,0,0,2.78.81,4.91,4.91,0,0,0,5.4-3.54,5.3,5.3,0,0,0-.1-3c-.23-.69-.47-1-.43-1s.09.06.21.22a4.412,4.412,0,0,1,.41.76,5.23,5.23,0,0,1-5.56,7.12,18,18,0,0,1-2.87-.82,4.6,4.6,0,0,0-2.74-.23,3.13,3.13,0,0,0-1.84,1.65,4.61,4.61,0,0,0-.47,2.29,5.93,5.93,0,0,0,.49,2,14.06,14.06,0,0,0,1.56,2.67,5.311,5.311,0,0,1,.62.94Z" fill="#3b3b3b"/>
          <path id="Path_614" data-name="Path 614" d="M98.62,389.81a4.17,4.17,0,0,1,0-1.16,12.33,12.33,0,0,1,.5-3.12,6.16,6.16,0,0,1,1-2,5.12,5.12,0,0,1,2.05-1.55,3.54,3.54,0,0,1,2.87,0,5.15,5.15,0,0,1,2.11,2.2,17.6,17.6,0,0,0,1.51,2.47,4.9,4.9,0,0,0,6.38,1,5.26,5.26,0,0,0,2-2.29c.29-.66.34-1.07.39-1.07s0,.11,0,.31a5,5,0,0,1-.2.84,5.3,5.3,0,0,1-1.93,2.52,5.13,5.13,0,0,1-4.63.61,5.27,5.27,0,0,1-2.35-1.6,17.891,17.891,0,0,1-1.57-2.54,4.63,4.63,0,0,0-1.88-2,3.08,3.08,0,0,0-2.47,0,4.69,4.69,0,0,0-1.89,1.38,6.12,6.12,0,0,0-1,1.83,15.67,15.67,0,0,0-.64,3,6.319,6.319,0,0,1-.25,1.17Z" fill="#3b3b3b"/>
          <path id="Path_615" data-name="Path 615" d="M164.25,434.68a4.67,4.67,0,0,1,0-1.15,12.8,12.8,0,0,1,.5-3.13,6.2,6.2,0,0,1,1-2,5,5,0,0,1,2-1.55,3.52,3.52,0,0,1,2.86,0,5.09,5.09,0,0,1,2.11,2.2,17.622,17.622,0,0,0,1.52,2.47,4.88,4.88,0,0,0,6.37,1,5.29,5.29,0,0,0,1.95-2.28c.29-.67.34-1.08.39-1.07s0,.1,0,.3a4.19,4.19,0,0,1-.2.84,5.14,5.14,0,0,1-6.56,3.13,5.27,5.27,0,0,1-2.35-1.6,17.891,17.891,0,0,1-1.57-2.54,4.63,4.63,0,0,0-1.88-2,3.08,3.08,0,0,0-2.47,0,4.79,4.79,0,0,0-1.89,1.38,6,6,0,0,0-1,1.83,14.271,14.271,0,0,0-.64,3,5.5,5.5,0,0,1-.14,1.17Z" fill="#3b3b3b"/>
          <path id="Path_616" data-name="Path 616" d="M162.35,298.74a4.11,4.11,0,0,1,0-1.15,12.1,12.1,0,0,1,.49-3.12,6.3,6.3,0,0,1,1-2,5.08,5.08,0,0,1,2-1.56,3.58,3.58,0,0,1,2.87,0,5.12,5.12,0,0,1,2.11,2.21,18.2,18.2,0,0,0,1.51,2.47,4.93,4.93,0,0,0,6.38,1,5.31,5.31,0,0,0,1.95-2.29c.29-.67.34-1.08.39-1.07a1.17,1.17,0,0,1,0,.3,4,4,0,0,1-.21.84,5.2,5.2,0,0,1-1.92,2.52,5.13,5.13,0,0,1-4.63.62,5.29,5.29,0,0,1-2.35-1.61,17.249,17.249,0,0,1-1.57-2.53,4.65,4.65,0,0,0-1.88-2,3.12,3.12,0,0,0-2.47,0,4.6,4.6,0,0,0-1.89,1.38,6.19,6.19,0,0,0-1,1.82,15.74,15.74,0,0,0-.64,3,5.861,5.861,0,0,1-.14,1.17Z" fill="#3b3b3b"/>
          <path id="Path_617" data-name="Path 617" d="M140.91,452.72a4.531,4.531,0,0,1-1.07-.44,12.531,12.531,0,0,1-2.68-1.69,6.23,6.23,0,0,1-1.42-1.7,5.15,5.15,0,0,1-.62-2.5,3.52,3.52,0,0,1,1.14-2.63,5,5,0,0,1,2.85-1.07,17.516,17.516,0,0,0,2.87-.42,4.91,4.91,0,0,0,3.45-5.46,5.28,5.28,0,0,0-1.34-2.69c-.49-.53-.85-.74-.82-.78s.1,0,.27.12a3.612,3.612,0,0,1,.7.52,5.14,5.14,0,0,1,.29,7.26,5.3,5.3,0,0,1-2.4,1.52,17.382,17.382,0,0,1-2.95.45,4.61,4.61,0,0,0-2.59.93,3.12,3.12,0,0,0-1,2.26,4.73,4.73,0,0,0,.52,2.28,6.131,6.131,0,0,0,1.29,1.64,14.331,14.331,0,0,0,2.52,1.78,6.714,6.714,0,0,1,.99.62Z" fill="#3b3b3b"/>
          <path id="Path_618" data-name="Path 618" d="M63.06,319.27a5.329,5.329,0,0,1,.7.92,12.09,12.09,0,0,1,1.47,2.8,6.24,6.24,0,0,1,.37,2.19,5,5,0,0,1-.72,2.47,3.49,3.49,0,0,1-2.3,1.71,5,5,0,0,1-3-.51,19,19,0,0,0-2.7-1.08,4.92,4.92,0,0,0-5.72,3,5.29,5.29,0,0,0-.19,3c.16.71.37,1.07.32,1.1a1.35,1.35,0,0,1-.18-.25,4.25,4.25,0,0,1-.34-.79,5.2,5.2,0,0,1,0-3.18,5.11,5.11,0,0,1,3.34-3.25,5.24,5.24,0,0,1,2.84-.11,17.063,17.063,0,0,1,2.78,1.09,4.58,4.58,0,0,0,2.71.49,3.05,3.05,0,0,0,2-1.46,4.7,4.7,0,0,0,.7-2.23,6.15,6.15,0,0,0-.29-2.06,14.659,14.659,0,0,0-1.29-2.81,5.911,5.911,0,0,1-.5-1.04Z" fill="#3b3b3b"/>
          <path id="Path_619" data-name="Path 619" d="M138.2,305.83a4.52,4.52,0,0,1,.7.91,13.161,13.161,0,0,1,1.47,2.8,6.5,6.5,0,0,1,.37,2.2,5,5,0,0,1-.72,2.47,3.56,3.56,0,0,1-2.3,1.7,5,5,0,0,1-3-.51,18.878,18.878,0,0,0-2.69-1.08,4.85,4.85,0,0,0-2.57.08,4.79,4.79,0,0,0-3.15,2.92,5.35,5.35,0,0,0-.2,3c.17.7.37,1.07.33,1.09s-.08-.08-.18-.25a3.661,3.661,0,0,1-.34-.79,5.23,5.23,0,0,1,0-3.17,5.16,5.16,0,0,1,3.35-3.26,5.34,5.34,0,0,1,2.84-.11,17.813,17.813,0,0,1,2.78,1.09,4.55,4.55,0,0,0,2.7.49,3.07,3.07,0,0,0,2-1.46,4.7,4.7,0,0,0,.7-2.23,6.15,6.15,0,0,0-.29-2.06,14.66,14.66,0,0,0-1.29-2.81A4.928,4.928,0,0,1,138.2,305.83Z" fill="#3b3b3b"/>
          <path id="Path_620" data-name="Path 620" d="M91.88,384.89a1,1,0,0,1,0-.3l.07-.88c.07-.81.18-1.94.32-3.38.3-3,.74-7.2,1.27-12.41,1.13-10.51,2.68-25,4.4-40.94a47.24,47.24,0,0,0,0-11.64,20.82,20.82,0,0,0-4.16-9.84,25.08,25.08,0,0,0-7.4-6.32,29.59,29.59,0,0,0-8-3,42.5,42.5,0,0,0-12.36-.79c-1.47.1-2.61.24-3.38.33l-.87.11h-.3a1.091,1.091,0,0,1,.29-.08l.87-.15c.77-.13,1.9-.3,3.37-.43a41.14,41.14,0,0,1,12.46.63,29.241,29.241,0,0,1,8.1,3,25.21,25.21,0,0,1,7.57,6.4,21.14,21.14,0,0,1,4.28,10.06,47.3,47.3,0,0,1,0,11.77c-1.78,16-3.38,30.41-4.55,40.92-.61,5.21-1.1,9.43-1.44,12.4-.18,1.43-.32,2.56-.42,3.36l-.12.88a1.191,1.191,0,0,1,0,.3Z" fill="#3b3b3b"/>
          <path id="Path_621" data-name="Path 621" d="M94.86,381.25c0,.14-15.28,1.88-34.17,3.87s-34.2,3.51-34.22,3.36,15.28-1.88,34.17-3.87S94.84,381.1,94.86,381.25Z" fill="#3b3b3b"/>
          <path id="Path_622" data-name="Path 622" d="M187.82,373.7a5.178,5.178,0,0,1,.08-.62c.09-.44.2-1,.33-1.72l.25-1.24c.08-.46.13-1,.21-1.5.14-1.07.36-2.28.43-3.64,0-.68.11-1.39.16-2.13s0-1.51.06-2.31a46.666,46.666,0,0,0-.11-5.1,63.45,63.45,0,0,0-5.72-22.54c-.79-1.61-1.51-3.17-2.34-4.54-.4-.69-.75-1.38-1.15-2l-1.16-1.79c-.71-1.16-1.49-2.12-2.12-3-.32-.44-.61-.85-.9-1.21l-.81-1L173.92,318a2.38,2.38,0,0,1-.36-.5,2.471,2.471,0,0,1,.44.43l1.19,1.3.85.95c.3.36.6.76.93,1.19a36.324,36.324,0,0,1,2.19,3l1.2,1.79c.41.62.78,1.31,1.19,2,.85,1.37,1.58,2.93,2.4,4.55a61.6,61.6,0,0,1,5.76,22.71c.06,1.81.16,3.53.07,5.14a19.488,19.488,0,0,1-.09,2.32c-.09.74-.14,1.46-.21,2.14-.09,1.37-.34,2.59-.5,3.66-.09.54-.16,1-.26,1.49s-.2.86-.29,1.24l-.42,1.71a2.909,2.909,0,0,1-.19.58Z" fill="#3b3b3b"/>
          <path id="Path_623" data-name="Path 623" d="M364.83,374.07c-2.37-10.65,5.93-21.69,17.51-17.75,5.64,1.92,9.51,6.18,15.87,5.26,10.12-1.47,15.58-13.68,9.05-21.84-.66-.82-1.82.23-1.39,1.07,4.26,8.49.22,19.47-10.57,18.8-6.8-.42-11.34-6.56-18.57-6-10.18.84-16.86,11.36-12.8,20.8.23.53,1,.13.9-.38Z" fill="#3b3b3b"/>
          <path id="Path_624" data-name="Path 624" d="M391.69,198.65a86.173,86.173,0,0,0,8.15,12.78c1.53,2,3.43,5.67,6.39,5.69s5.95-3.37,8.08-4.87q6.45-4.55,12.87-9.15a1,1,0,0,0,.34-1.31l-13.38-20.6a1,1,0,0,0-1.32-.35c-5.32,3.76-10.73,7.41-15.93,11.35-.89.67-.08,2.2.91,1.55,3-2,5.89-4.09,8.81-6.16,1.31-.92,2.59-2,4-2.82,2.5-1.43,2.11-1.63,3.93.57,2.16,2.6,3.82,5.88,5.66,8.71,1.25,1.92,5.27,6.13,4.5,8.48-.53,1.6-6.12,4.36-7.57,5.39l-4.53,3.24c-1.17.84-3.23,3.07-4.53,3.25-6.48.88-12.26-11.66-15.78-16.2-.28-.35-.77.1-.59.45Z" fill="#3b3b3b"/>
          <path id="Path_625" data-name="Path 625" d="M328.13,263.85c-6.1,5.94-7.67,15.85-2,22.71,5.39,6.54,16,8.06,22.77,2.88S357.7,274.2,353,267c-4.84-7.48-14.57-10.36-23-9.11-.84.12-.65,1.55.21,1.49,6.78-.51,14.06.76,19.18,5.6a15.36,15.36,0,0,1,.49,21.57c-5.77,6.11-15.92,5.91-21.8,0s-5.25-16.31.6-22.12a.371.371,0,0,0-.52-.53Z" fill="#3b3b3b"/>
          <path id="Path_626" data-name="Path 626" d="M490.42,325.74q-2.79,19-5.38,38.08a.86.86,0,0,0,1,1c11.84-1.85,23.68-3.68,35.49-5.71A.79.79,0,0,0,522,358c-6.8-12.16-15.39-24.77-26.75-33.14-.81-.6-1.72.67-1.05,1.35,8.6,8.75,16.92,16.92,23.46,27.45,2.08,3.34,3.06,4-1.49,4.7-3.3.48-6.59,1-9.88,1.52l-20.7,3.36,1.07.82q2.48-19.08,4.79-38.16c.07-.6-1-.75-1.07-.15Z" fill="#3b3b3b"/>
          <path id="Path_627" data-name="Path 627" d="M432.2,301.44c1.73-12.51,3.43-25.08,4.56-37.66.08-.88-1.44-1.1-1.56-.21-1.74,12.51-2.92,25.15-4.05,37.73,0,.59,1,.74,1.05.14Z" fill="#3b3b3b"/>
          <path id="Path_628" data-name="Path 628" d="M569.86,298.27c12.55.72,25.17,1.42,37.74,1.53a.8.8,0,0,0,0-1.59c-12.55-.73-25.18-.88-37.74-1a.54.54,0,0,0,0,1.07Z" fill="#3b3b3b"/>
          <path id="Path_629" data-name="Path 629" d="M468.11,138.91c11.57,5.05,23.21,10.1,35,14.59.83.32,1.44-1.09.61-1.45-11.56-5.06-23.41-9.62-35.2-14.12-.56-.22-1,.73-.42,1Z" fill="#3b3b3b"/>
          <path id="Path_630" data-name="Path 630" d="M499,246.58a2.792,2.792,0,0,0-.28-.32l-.33-.27a1.27,1.27,0,0,0-.52-.34,1.18,1.18,0,0,0-.62-.13,1.61,1.61,0,0,0-1.13.47,1.59,1.59,0,0,0-.47,1.13l.06.43a1.55,1.55,0,0,0,.41.71l.28.33a1.742,1.742,0,0,0,.32.28,1.694,1.694,0,0,0,1.14.47,1.62,1.62,0,0,0,1.62-1.61l-.06-.43a1.691,1.691,0,0,0-.42-.72Z" fill="#3b3b3b"/>
        </g>
        <path id="Path_631" data-name="Path 631" d="M556.94,213.09c-6.1,5.94-7.67,15.85-2,22.7,5.38,6.55,16,8.07,22.76,2.88s8.84-15.23,4.14-22.48c-4.84-7.47-14.57-10.36-23-9.11-.84.13-.65,1.56.2,1.49,6.79-.5,14.07.77,19.19,5.61a15.35,15.35,0,0,1,.48,21.56c-5.76,6.12-15.92,5.91-21.8,0s-5.25-16.31.61-22.12c.34-.34-.19-.86-.53-.53Z" fill="#7caaff"/>
        <path id="Path_632" data-name="Path 632" d="M99.06,145.56a22.8,22.8,0,0,0-32.18,21.7c.24,6,2.65,12.92-1.19,17.6-3,3.61-8.27,3.94-12.53,5.87-8.1,3.66-12.13,14.37-8.45,22.46,2,4.38,5.94,8.41,5.19,13.16-.49,3.07-2.93,5.5-5.63,7.05s-5.73,2.43-8.53,3.8c-10.19,5-16.39,16.58-16.09,27.93s6.53,22.11,15.49,29.08S55.51,304.58,66.86,305s23.26-2.24,31.93-9.59c6.51-5.53,10.76-13.27,13.89-21.21a105.94,105.94,0,0,0,7-47.76c-1.43-16.78-6.85-33-8-49.84-.4-5.63-.32-11.34-1.58-16.84s-4.07-10.94-8.89-13.87" fill="#241352"/>
        <path id="Path_633" data-name="Path 633" d="M96.47,147.73a50.18,50.18,0,0,1,33.85-26.83c8.94-2,18.75-1.32,26.6,3.39s13.28,13.88,12.08,23c-.74,5.61-3.78,10.62-5.71,15.94s-2.57,11.81,1,16.19c3.23,3.92,8.75,4.89,13.15,7.43a19.73,19.73,0,0,1-2,35.18,23.7,23.7,0,0,1,20.35,28.95c-2.18,9.29-9.74,16.41-17.86,21.42A78.65,78.65,0,0,1,140.3,284c-14.06.64-29.65-3.52-37.3-15.34-5-7.77-5.79-17.45-6.35-26.69-1.7-27.86-2.87-55.75-4-83.64-.18-4.48-.37-9,.69-13.41" fill="#241352"/>
        <path id="Path_634" data-name="Path 634" d="M143.81,273.61l126.13,47.28L257.9,270l32.8-8.34s35.3,99.54,10.78,102.2c-42.9,4.67-107.81-12.32-107.81-12.32Z" fill="#ffafa6"/>
        <path id="Path_635" data-name="Path 635" d="M132.78,491S285.16,324.62,388,360.94,534.34,566.65,534.34,566.65l-81.94-1.32s-64.71-128-96.28-123S227,569.08,227,569.08Z" fill="#2e3192"/>
        <path id="Path_636" data-name="Path 636" d="M181,390l6.32,97.58C154.47,528,40.12,475.73,40.12,475.73l-1.34-40.8-2.65-97.18c2.63-38.7,38.57-57.69,38.57-57.69,14.86-7.41,37.52-11.61,57.94-10.6,21.31,1.05,26.58,11.26,35.36,30.71C175.09,315.88,194.34,341.47,181,390Z" fill="#e4192d"/>
        <path id="Path_637" data-name="Path 637" d="M61.49,494.12S44,565.3,97.3,576.52s249.35-15,300.42-10.54,196.28,13,196.28,13l10.63-84.53s-226-10.83-251.53-4.49S61.49,494.12,61.49,494.12Z" fill="#2e3192"/>
        <path id="Path_638" data-name="Path 638" d="M87,369.67s-16,94.19,6.56,91.87c74.14-7.62,118.29-8.65,118.29-8.65l12.29,25.51c.29,4.35-140.41,44.63-163,31.31-16-9.4-41.39-34.73-29.84-110.41L34,373.93Z" fill="#ffafa6"/>
        <path id="Path_639" data-name="Path 639" d="M153.94,504.89l-.15-6.31,93.06-13.14,24.71-86.38,103.08-2.5-27.81,93.49Z" fill="#ef7581"/>
        <path id="Path_640" data-name="Path 640" d="M321.22,440a7.63,7.63,0,1,1-7.81-7.45A7.63,7.63,0,0,1,321.22,440Z" fill="#fff"/>
        <path id="Path_641" data-name="Path 641" d="M324.28,439.92a10.69,10.69,0,1,1-10.94-10.42A10.69,10.69,0,0,1,324.28,439.92Z" fill="#fff" opacity="0.41"/>
        <path id="Path_642" data-name="Path 642" d="M46.26,307.19S29,323.8,25.1,386.64L92,379.23S103.19,272.21,46.26,307.19Z" fill="#e4192d"/>
        <path id="Path_643" data-name="Path 643" d="M537.61,118.23s23.72,53.28,30.34,50.49,67.9-40.81,67.9-40.81-25.12-47.7-30.34-50.49S537.61,118.23,537.61,118.23Z" fill="#f4a3ab" stroke="#000" stroke-miterlimit="10" stroke-width="1"/>
        <path id="Path_644" data-name="Path 644" d="M537.61,118.23l49.51,8.05L605.5,77.42" fill="#f4a3ab" stroke="#000" stroke-miterlimit="10" stroke-width="1"/>
        <path id="Path_645" data-name="Path 645" d="M570.64,124q-6,19-10.49,38.48" fill="#f4a3ab" stroke="#000" stroke-miterlimit="10" stroke-width="1"/>
        <path id="Path_646" data-name="Path 646" d="M594,111.32l37.83,6" fill="#f4a3ab" stroke="#000" stroke-miterlimit="10" stroke-width="1"/>
        <path id="Path_647" data-name="Path 647" d="M79.78,175.48l1.52,20s-17,2.28-12.13,17.76,16.44,8.7,16.44,8.7,2.9,39.64,43.51,27.07c32.32-10,30.35-51.86,26.24-87.54A23.88,23.88,0,0,0,127,140.76l-24.42,4.75a28.34,28.34,0,0,0-22.8,29.97Z" fill="#ffafa6"/>
        <path id="Path_648" data-name="Path 648" d="M81.3,212l10.94,58.36a23.41,23.41,0,0,0,28.44,18.45h0a23.4,23.4,0,0,0,17.61-26.86l-5.94-33.44Z" fill="#ffafa6"/>
        <path id="Path_649" data-name="Path 649" d="M126.22,212.64s.09.12.24.33a1.6,1.6,0,0,0,.9.61,1.9,1.9,0,0,0,1.61-.44,3.53,3.53,0,0,0,1.18-2,18.83,18.83,0,0,0,.16-6.27c-.15-2.4-.33-5-.51-7.78-.34-5.52-.62-10.52-.8-14.14-.08-1.74-.14-3.18-.19-4.29a10.758,10.758,0,0,1,0-1.58,8.281,8.281,0,0,1,.2,1.57c.09,1.1.21,2.54.35,4.28.28,3.61.62,8.61,1,14.13.17,2.76.33,5.38.47,7.78a18.4,18.4,0,0,1-.29,6.4,3.75,3.75,0,0,1-1.35,2.1,2.14,2.14,0,0,1-1.85.41,1.72,1.72,0,0,1-.93-.75,1,1,0,0,1-.19-.36Z" fill="#241352"/>
        <path id="Path_650" data-name="Path 650" d="M139.39,244.89a2.649,2.649,0,0,1-.3.29,8.624,8.624,0,0,1-1,.74,28.391,28.391,0,0,1-3.79,2.31,32.25,32.25,0,0,1-28.42.6,29.7,29.7,0,0,1-3.89-2.15c-.44-.28-.76-.54-1-.7s-.33-.26-.32-.28a15.3,15.3,0,0,1,1.41.8,38.158,38.158,0,0,0,3.93,2,33.3,33.3,0,0,0,28.1-.6,35.251,35.251,0,0,0,3.85-2.15,11.917,11.917,0,0,1,1.43-.86Z" fill="#241352"/>
        <path id="Path_651" data-name="Path 651" d="M131.46,220.83a2.581,2.581,0,0,1-.53.7,8.569,8.569,0,0,1-1.87,1.48,9.33,9.33,0,0,1-13.43-4.32,8.45,8.45,0,0,1-.67-2.3,2.53,2.53,0,0,1,0-.87,18,18,0,0,0,1,3,9.27,9.27,0,0,0,12.92,4.16,17.661,17.661,0,0,0,2.58-1.85Z" fill="#241352"/>
        <path id="Path_652" data-name="Path 652" d="M80,215.12a1.52,1.52,0,0,1-.67.06,5,5,0,0,1-1.81-.41,3.39,3.39,0,0,1-1.92-2,2.69,2.69,0,0,1-.05-1.71,2.132,2.132,0,0,1,3.72-.68l-.44.23c-.7-1.61-1.28-3-1.68-4a7.48,7.48,0,0,1-.55-1.63,6.92,6.92,0,0,1,.84,1.5c.47,1,1.12,2.34,1.84,3.93l-.44.23a1.53,1.53,0,0,0-1.83-.45,1.88,1.88,0,0,0-1,2.44,3.09,3.09,0,0,0,1.63,1.82A11.269,11.269,0,0,0,80,215.12Z" fill="#241352"/>
        <path id="Path_653" data-name="Path 653" d="M142.48,187.13a10.66,10.66,0,0,1-1-3.14,10.47,10.47,0,0,1-.47-3.24,10.37,10.37,0,0,1,1,3.13A10,10,0,0,1,142.48,187.13Z" fill="#241352"/>
        <path id="Path_654" data-name="Path 654" d="M108.1,190.33a10.669,10.669,0,0,1-1.1-3.13,11.14,11.14,0,0,1-.64-3.26,10.67,10.67,0,0,1,1.14,3.12A10.85,10.85,0,0,1,108.1,190.33Z" fill="#241352"/>
        <path id="Path_655" data-name="Path 655" d="M111.29,175.8a17.229,17.229,0,0,0-4.28.3,17.181,17.181,0,0,0-3.88,1.84,3.761,3.761,0,0,1,.9-.95,8,8,0,0,1,2.85-1.39,7.87,7.87,0,0,1,3.16-.19C110.85,175.53,111.31,175.74,111.29,175.8Z" fill="#241352"/>
        <path id="Path_656" data-name="Path 656" d="M146.4,170.24a21.05,21.05,0,0,0-4.7-.36,21.808,21.808,0,0,0-4.58,1.17,7.68,7.68,0,0,1,4.53-1.69,7.51,7.51,0,0,1,4.75.88Z" fill="#241352"/>
        <path id="Path_657" data-name="Path 657" d="M81.3,195.43C92.63,184.38,96,166,99,150.43a39.68,39.68,0,0,0,37,4.83,60,60,0,0,0,13.2,11.53c1.4.9,3.07,1.77,4.66,1.29,1.9-.58,2.75-2.76,3.2-4.69a33.31,33.31,0,0,0-.66-18.8c-2.16-6-6.68-11.24-12.62-13.54-6.34-2.45-13.47-1.38-20.05.32a111.26,111.26,0,0,0-28.31,11.7c-8.67,5.08-17,11.8-20.69,21.16S71.15,191.76,80,196.49" fill="#241352"/>
        <g id="Group_865" data-name="Group 865" opacity="0.28">
          <path id="Path_658" data-name="Path 658" d="M127.57,223c0,.35-.45.75-1.34,1a8.17,8.17,0,0,1-6.74-1.43c-.72-.59-1-1.15-.82-1.46.39-.62,2.31-.08,4.57.38S127.46,222.27,127.57,223Z" fill="#241352"/>
        </g>
        <g id="Group_866" data-name="Group 866" opacity="0.12">
          <path id="Path_659" data-name="Path 659" d="M113.44,204.47c.13.7-3.85,2-9,2.22s-9.18-.69-9.12-1.4,4.09-1,9-1.21S113.31,203.75,113.44,204.47Z" fill="#241352"/>
        </g>
        <g id="Group_867" data-name="Group 867" opacity="0.12">
          <path id="Path_660" data-name="Path 660" d="M156.38,201c.15.69-3.36,2-7.91,2.21s-8.16-.69-8.09-1.39,3.63-1,8-1.21S156.24,200.25,156.38,201Z" fill="#241352"/>
        </g>
        <path id="Path_661" data-name="Path 661" d="M80.83,248.23a5.69,5.69,0,0,1-.09-1.13c0-.83,0-1.86-.07-3.07-.06-2.59-.16-6.17-.36-10.12s-.47-7.52-.68-10.11l-.24-3.06a4.65,4.65,0,0,1,0-1.13,4.3,4.3,0,0,1,.23,1.11c.11.72.25,1.76.4,3.05.31,2.58.63,6.15.84,10.11s.24,7.55.2,10.15a29.142,29.142,0,0,1-.09,3.08,4.08,4.08,0,0,1-.14,1.12Z" fill="#6042dc"/>
        <path id="Path_662" data-name="Path 662" d="M148.22,273.18c-11-4.36,73.44,27,73.44,27l-8.56,57.74L181,347.38Z" fill="#e4192d"/>
        <path id="Path_663" data-name="Path 663" d="M98,142.55a17.55,17.55,0,0,0,2.35-13.82c-1-3.83-3.87-7.64-7.82-7.84a8.55,8.55,0,0,0-6.08,2.51,12.49,12.49,0,0,0,11.88,21.19" fill="#241352"/>
        <path id="Path_664" data-name="Path 664" d="M602.36,512.4s27.46-39.37,24.12-24.47-31.24,81.15-31.24,81.15Z" fill="#241352"/>
        <path id="Path_665" data-name="Path 665" d="M204.09,452.89s36.29-11.38,35-7.63-7.42,3.88-13.59,9.92c0,0,40.56.44,38.61,3.78s-28.35,4.18-28.51,4.75,28.88,1.28,28.22,4.37-27.63,2.33-27.63,2.33,25,2.66,24.5,6-23.58.92-23.58.92,19.3,2.21,18.8,5.23c-.3,1.84-56.51,2.26-56.62,3.61-.06.71,4.76-33.28,4.76-33.28" fill="#ffafa6"/>
        <path id="Path_666" data-name="Path 666" d="M260.27,273.18s-22-30.79-18.11-30.78,6,5.82,13.61,9.78c0,0-12.18-38.51-8.41-37.7S260.12,240,260.7,240s-7.75-27.72-4.62-28.06,10.79,25.42,10.79,25.42-5.25-24.49-1.94-25,8.2,22,8.2,22-3.9-18.94-.89-19.41c1.83-.28,18.46,46.72,18.46,46.72-.43,0-30.43,11.56-30.43,11.56" fill="#ffafa6"/>
        <path id="Path_667" data-name="Path 667" d="M57.07,357.91a4.28,4.28,0,0,1,.27,1.13,12.15,12.15,0,0,1,.2,3.15,6,6,0,0,1-.55,2.16,5,5,0,0,1-1.66,2,3.5,3.5,0,0,1-2.79.63A5,5,0,0,1,50,365.25a19.115,19.115,0,0,0-2-2.08,4.93,4.93,0,0,0-6.45.42,5.31,5.31,0,0,0-1.39,2.66c-.14.71-.1,1.12-.15,1.12s0-.09-.06-.29a4.26,4.26,0,0,1,0-.87,5.18,5.18,0,0,1,1.33-2.88,5.12,5.12,0,0,1,4.38-1.61,5.23,5.23,0,0,1,2.64,1,18.289,18.289,0,0,1,2.09,2.13,4.7,4.7,0,0,0,2.27,1.54,3,3,0,0,0,2.41-.52,4.79,4.79,0,0,0,1.55-1.76,6.24,6.24,0,0,0,.57-2,14.54,14.54,0,0,0,0-3.1,6.151,6.151,0,0,1-.12-1.1Z" fill="#fbf1fc"/>
        <path id="Path_668" data-name="Path 668" d="M76.89,340.81a4.931,4.931,0,0,1,.82-.82,12.31,12.31,0,0,1,2.59-1.81,6.12,6.12,0,0,1,2.13-.65,5.11,5.11,0,0,1,2.54.39A3.52,3.52,0,0,1,87,340a5,5,0,0,1-.12,3,19.461,19.461,0,0,0-.73,2.81,4.92,4.92,0,0,0,.41,2.54,4.81,4.81,0,0,0,3.3,2.75,5.34,5.34,0,0,0,3-.19c.68-.25,1-.51,1-.47s-.07.09-.22.21a4.2,4.2,0,0,1-.74.44,5.25,5.25,0,0,1-3.16.37,5.14,5.14,0,0,1-3.65-2.9,5.29,5.29,0,0,1-.48-2.81,18.259,18.259,0,0,1,.73-2.89,4.71,4.71,0,0,0,.14-2.74,3.11,3.11,0,0,0-1.71-1.79,4.72,4.72,0,0,0-2.3-.4,6,6,0,0,0-2,.55,14.623,14.623,0,0,0-2.62,1.64,5.228,5.228,0,0,1-.96.69Z" fill="#fbf1fc"/>
        <path id="Path_669" data-name="Path 669" d="M75.55,298.19a4.7,4.7,0,0,1,.82-.81A11.929,11.929,0,0,1,79,295.56a6.119,6.119,0,0,1,2.13-.65,5,5,0,0,1,2.54.4,3.53,3.53,0,0,1,2,2.05,5,5,0,0,1-.12,3.05,18.459,18.459,0,0,0-.72,2.81,4.91,4.91,0,0,0,3.7,5.29,5.33,5.33,0,0,0,3-.19c.68-.25,1-.5,1-.46s-.06.08-.22.21a4.2,4.2,0,0,1-.74.44,5.24,5.24,0,0,1-3.15.36,5.09,5.09,0,0,1-3.66-2.9,5.27,5.27,0,0,1-.48-2.8,18.111,18.111,0,0,1,.73-2.9,4.71,4.71,0,0,0,.14-2.74,3.08,3.08,0,0,0-1.71-1.79,4.7,4.7,0,0,0-2.3-.4,6,6,0,0,0-2,.55,15.22,15.22,0,0,0-2.62,1.64,4.64,4.64,0,0,1-.97.66Z" fill="#fbf1fc"/>
        <path id="Path_670" data-name="Path 670" d="M117.82,353.69a4,4,0,0,1-.88-.74,12.59,12.59,0,0,1-2-2.42,6.18,6.18,0,0,1-.83-2.06,5,5,0,0,1,.17-2.57,3.56,3.56,0,0,1,1.88-2.16,5.089,5.089,0,0,1,3-.15,19.746,19.746,0,0,0,2.87.48,4.92,4.92,0,0,0,4.94-4.15,5.37,5.37,0,0,0-.45-3c-.31-.66-.59-1-.55-1s.09.06.22.2a4.111,4.111,0,0,1,.51.7,5.29,5.29,0,0,1,.64,3.11,5.1,5.1,0,0,1-2.58,3.89,5.25,5.25,0,0,1-2.75.73,17.328,17.328,0,0,1-2.94-.48,4.64,4.64,0,0,0-2.75.11,3.07,3.07,0,0,0-1.63,1.85,4.69,4.69,0,0,0-.2,2.33,6.12,6.12,0,0,0,.73,1.95,14.59,14.59,0,0,0,1.86,2.47,6.921,6.921,0,0,1,.74.91Z" fill="#fbf1fc"/>
        <path id="Path_671" data-name="Path 671" d="M146.63,398.27a4.651,4.651,0,0,1-.87.75,12.461,12.461,0,0,1-2.72,1.62,6.231,6.231,0,0,1-2.17.49,5.09,5.09,0,0,1-2.5-.58,3.55,3.55,0,0,1-1.84-2.2,5.08,5.08,0,0,1,.35-3,19,19,0,0,0,.93-2.75,4.93,4.93,0,0,0-.22-2.57,4.83,4.83,0,0,0-3.09-3,5.33,5.33,0,0,0-3,0c-.7.2-1.05.43-1.07.39s.07-.08.23-.2a4.359,4.359,0,0,1,.78-.38,5.14,5.14,0,0,1,6.6,3,5.27,5.27,0,0,1,.27,2.83,17.72,17.72,0,0,1-.94,2.83,4.64,4.64,0,0,0-.34,2.73,3.1,3.1,0,0,0,1.57,1.91,4.69,4.69,0,0,0,2.27.57,6,6,0,0,0,2-.41,14.081,14.081,0,0,0,2.73-1.44A5,5,0,0,1,146.63,398.27Z" fill="#fbf1fc"/>
        <path id="Path_672" data-name="Path 672" d="M180.56,328a4.55,4.55,0,0,1-.88.75,12.1,12.1,0,0,1-2.71,1.62,6.231,6.231,0,0,1-2.17.49,5,5,0,0,1-2.51-.58,3.56,3.56,0,0,1-1.83-2.2,5.09,5.09,0,0,1,.34-3,17.494,17.494,0,0,0,.93-2.75,4.74,4.74,0,0,0-.22-2.57,4.79,4.79,0,0,0-3.08-3,5.34,5.34,0,0,0-3,0c-.69.2-1,.42-1.07.38s.07-.08.24-.19a4.11,4.11,0,0,1,.77-.39,5.29,5.29,0,0,1,3.17-.13,5.14,5.14,0,0,1,3.43,3.17,5.24,5.24,0,0,1,.28,2.82,17.869,17.869,0,0,1-1,2.84,4.68,4.68,0,0,0-.34,2.72,3.07,3.07,0,0,0,1.57,1.91,4.64,4.64,0,0,0,2.27.57,6,6,0,0,0,2-.4,14.732,14.732,0,0,0,2.74-1.45A5.749,5.749,0,0,1,180.56,328Z" fill="#fbf1fc"/>
        <path id="Path_673" data-name="Path 673" d="M203.7,317.27a5.058,5.058,0,0,1,1,.58,12.259,12.259,0,0,1,2.44,2,6.26,6.26,0,0,1,1.2,1.88,5.12,5.12,0,0,1,.3,2.55,3.59,3.59,0,0,1-1.45,2.47,5.081,5.081,0,0,1-3,.7,18.382,18.382,0,0,0-2.9.06,4.91,4.91,0,0,0-4.11,5,5.35,5.35,0,0,0,1,2.84c.43.59.76.84.73.88s-.1,0-.26-.16a3.609,3.609,0,0,1-.63-.6,5.24,5.24,0,0,1-1.19-2.93,5.11,5.11,0,0,1,1.81-4.3,5.22,5.22,0,0,1,2.57-1.22,18.671,18.671,0,0,1,3-.07,4.63,4.63,0,0,0,2.68-.6,3.08,3.08,0,0,0,1.26-2.12,4.64,4.64,0,0,0-.23-2.33,5.9,5.9,0,0,0-1.07-1.78,15.068,15.068,0,0,0-2.28-2.09,5.731,5.731,0,0,1-.87-.76Z" fill="#fbf1fc"/>
        <path id="Path_674" data-name="Path 674" d="M110.07,434.62a5,5,0,0,1-.88.75,12.869,12.869,0,0,1-2.72,1.62,6.18,6.18,0,0,1-2.17.49,5.11,5.11,0,0,1-2.5-.58,3.53,3.53,0,0,1-1.83-2.2,5,5,0,0,1,.34-3,19.389,19.389,0,0,0,.93-2.75,4.91,4.91,0,0,0-3.31-5.55,5.33,5.33,0,0,0-3,0c-.7.2-1.05.43-1.07.39s.07-.09.23-.2a3.772,3.772,0,0,1,.78-.38,5.14,5.14,0,0,1,6.6,3,5.27,5.27,0,0,1,.27,2.83,17.72,17.72,0,0,1-.94,2.83,4.71,4.71,0,0,0-.34,2.73,3.13,3.13,0,0,0,1.57,1.91,4.829,4.829,0,0,0,2.27.57,6,6,0,0,0,2-.41,14.082,14.082,0,0,0,2.73-1.44,4.873,4.873,0,0,1,1.04-.61Z" fill="#fbf1fc"/>
        <path id="Path_675" data-name="Path 675" d="M160.28,367a4.832,4.832,0,0,1-.79-.85,12.1,12.1,0,0,1-1.73-2.64,6.29,6.29,0,0,1-.59-2.15,5.08,5.08,0,0,1,.48-2.52,3.51,3.51,0,0,1,2.12-1.93,5.18,5.18,0,0,1,3,.21,18.434,18.434,0,0,0,2.79.82,4.86,4.86,0,0,0,2.55-.33,4.81,4.81,0,0,0,2.85-3.21,5.29,5.29,0,0,0-.1-3c-.23-.69-.47-1-.43-1.06s.08.07.2.23a3.91,3.91,0,0,1,.42.75,5.26,5.26,0,0,1,.27,3.17,5.15,5.15,0,0,1-3,3.56,5.22,5.22,0,0,1-2.82.39,17.932,17.932,0,0,1-2.86-.82,4.67,4.67,0,0,0-2.74-.22,3,3,0,0,0-1.84,1.65,4.73,4.73,0,0,0-.48,2.29,6.061,6.061,0,0,0,.5,2,14.67,14.67,0,0,0,1.55,2.67,4.62,4.62,0,0,1,.65.99Z" fill="#fbf1fc"/>
        <path id="Path_676" data-name="Path 676" d="M169.29,403.31a4.489,4.489,0,0,1-.79-.84,12.472,12.472,0,0,1-1.73-2.65,6,6,0,0,1-.58-2.14,5,5,0,0,1,.47-2.53,3.55,3.55,0,0,1,2.12-1.92,5.06,5.06,0,0,1,3.05.21,18.244,18.244,0,0,0,2.78.81,4.91,4.91,0,0,0,5.4-3.54,5.3,5.3,0,0,0-.1-3c-.23-.69-.47-1-.43-1s.09.06.21.22a4.41,4.41,0,0,1,.41.76,5.23,5.23,0,0,1-5.56,7.12,18,18,0,0,1-2.87-.82,4.6,4.6,0,0,0-2.74-.23,3.13,3.13,0,0,0-1.84,1.65,4.61,4.61,0,0,0-.47,2.29,5.93,5.93,0,0,0,.49,2,14.061,14.061,0,0,0,1.56,2.67,5.311,5.311,0,0,1,.62.94Z" fill="#fbf1fc"/>
        <path id="Path_677" data-name="Path 677" d="M96.62,387.81a4.17,4.17,0,0,1,0-1.16,12.33,12.33,0,0,1,.5-3.12,6.16,6.16,0,0,1,1-2,5.12,5.12,0,0,1,2.05-1.55,3.54,3.54,0,0,1,2.87,0,5.15,5.15,0,0,1,2.11,2.2,17.6,17.6,0,0,0,1.51,2.47,4.9,4.9,0,0,0,6.38,1,5.26,5.26,0,0,0,2-2.29c.29-.66.34-1.07.39-1.07s0,.11,0,.31a5,5,0,0,1-.2.84,5.3,5.3,0,0,1-1.93,2.52,5.13,5.13,0,0,1-4.63.61,5.27,5.27,0,0,1-2.35-1.6,17.891,17.891,0,0,1-1.57-2.54,4.63,4.63,0,0,0-1.88-2,3.08,3.08,0,0,0-2.47,0,4.69,4.69,0,0,0-1.89,1.38,6.12,6.12,0,0,0-1,1.83,15.672,15.672,0,0,0-.64,3,6.319,6.319,0,0,1-.25,1.17Z" fill="#fbf1fc"/>
        <path id="Path_678" data-name="Path 678" d="M162.25,432.68a4.669,4.669,0,0,1,0-1.15,12.8,12.8,0,0,1,.5-3.13,6.2,6.2,0,0,1,1-2,5,5,0,0,1,2-1.55,3.52,3.52,0,0,1,2.86,0,5.09,5.09,0,0,1,2.11,2.2,17.62,17.62,0,0,0,1.52,2.47,4.88,4.88,0,0,0,6.37,1,5.29,5.29,0,0,0,1.95-2.28c.29-.67.34-1.08.39-1.07s0,.1,0,.3a4.19,4.19,0,0,1-.2.84,5.14,5.14,0,0,1-6.56,3.13,5.27,5.27,0,0,1-2.35-1.6,17.891,17.891,0,0,1-1.57-2.54,4.63,4.63,0,0,0-1.88-2,3.08,3.08,0,0,0-2.47,0,4.79,4.79,0,0,0-1.89,1.38,6,6,0,0,0-1,1.83,14.269,14.269,0,0,0-.64,3,5.5,5.5,0,0,1-.14,1.17Z" fill="#fbf1fc"/>
        <path id="Path_679" data-name="Path 679" d="M160.35,296.74a4.11,4.11,0,0,1,0-1.15,12.1,12.1,0,0,1,.49-3.12,6.3,6.3,0,0,1,1-2,5.08,5.08,0,0,1,2-1.56,3.58,3.58,0,0,1,2.87,0,5.12,5.12,0,0,1,2.11,2.21,18.2,18.2,0,0,0,1.51,2.47,4.93,4.93,0,0,0,6.38,1,5.31,5.31,0,0,0,1.95-2.29c.29-.67.34-1.08.39-1.07a1.17,1.17,0,0,1,0,.3,4,4,0,0,1-.21.84,5.2,5.2,0,0,1-1.92,2.52,5.13,5.13,0,0,1-4.63.62,5.29,5.29,0,0,1-2.35-1.61,17.249,17.249,0,0,1-1.57-2.53,4.65,4.65,0,0,0-1.88-2,3.12,3.12,0,0,0-2.47,0,4.6,4.6,0,0,0-1.89,1.38,6.19,6.19,0,0,0-1,1.82,15.74,15.74,0,0,0-.64,3,5.861,5.861,0,0,1-.14,1.17Z" fill="#fbf1fc"/>
        <path id="Path_680" data-name="Path 680" d="M138.91,450.72a4.529,4.529,0,0,1-1.07-.44,12.53,12.53,0,0,1-2.68-1.69,6.229,6.229,0,0,1-1.42-1.7,5.15,5.15,0,0,1-.62-2.5,3.52,3.52,0,0,1,1.14-2.63,5,5,0,0,1,2.85-1.07,17.509,17.509,0,0,0,2.87-.42,4.91,4.91,0,0,0,3.45-5.46,5.28,5.28,0,0,0-1.34-2.69c-.49-.53-.85-.74-.82-.78s.1,0,.27.12a3.61,3.61,0,0,1,.7.52,5.14,5.14,0,0,1,.29,7.26,5.3,5.3,0,0,1-2.4,1.52,17.375,17.375,0,0,1-2.95.45,4.61,4.61,0,0,0-2.59.93,3.12,3.12,0,0,0-1,2.26,4.73,4.73,0,0,0,.52,2.28,6.13,6.13,0,0,0,1.29,1.64,14.329,14.329,0,0,0,2.52,1.78,6.7,6.7,0,0,1,.99.62Z" fill="#fbf1fc"/>
        <path id="Path_681" data-name="Path 681" d="M61.06,317.27a5.329,5.329,0,0,1,.7.92,12.09,12.09,0,0,1,1.47,2.8,6.24,6.24,0,0,1,.37,2.19,5,5,0,0,1-.72,2.47,3.49,3.49,0,0,1-2.3,1.71,5,5,0,0,1-3-.51,19,19,0,0,0-2.7-1.08,4.92,4.92,0,0,0-5.72,3,5.29,5.29,0,0,0-.19,3c.16.71.37,1.07.32,1.1a1.35,1.35,0,0,1-.18-.25,4.25,4.25,0,0,1-.34-.79,5.2,5.2,0,0,1,0-3.18,5.11,5.11,0,0,1,3.34-3.25,5.24,5.24,0,0,1,2.84-.11,17.058,17.058,0,0,1,2.78,1.09,4.58,4.58,0,0,0,2.71.49,3.05,3.05,0,0,0,2-1.46,4.7,4.7,0,0,0,.7-2.23,6.15,6.15,0,0,0-.29-2.06,14.658,14.658,0,0,0-1.29-2.81,5.908,5.908,0,0,1-.5-1.04Z" fill="#fbf1fc"/>
        <path id="Path_682" data-name="Path 682" d="M136.2,303.83a4.519,4.519,0,0,1,.7.91,13.161,13.161,0,0,1,1.47,2.8,6.5,6.5,0,0,1,.37,2.2,5,5,0,0,1-.72,2.47,3.56,3.56,0,0,1-2.3,1.7,5,5,0,0,1-3-.51,18.884,18.884,0,0,0-2.69-1.08,4.85,4.85,0,0,0-2.57.08,4.79,4.79,0,0,0-3.15,2.92,5.35,5.35,0,0,0-.2,3c.17.7.37,1.07.33,1.09s-.08-.08-.18-.25a3.66,3.66,0,0,1-.34-.79,5.23,5.23,0,0,1,0-3.17,5.16,5.16,0,0,1,3.35-3.26,5.34,5.34,0,0,1,2.84-.11,17.807,17.807,0,0,1,2.78,1.09,4.55,4.55,0,0,0,2.7.49,3.07,3.07,0,0,0,2-1.46,4.7,4.7,0,0,0,.7-2.23,6.15,6.15,0,0,0-.29-2.06,14.66,14.66,0,0,0-1.29-2.81A4.93,4.93,0,0,1,136.2,303.83Z" fill="#fbf1fc"/>
        <path id="Path_683" data-name="Path 683" d="M89.88,382.89a1,1,0,0,1,0-.3l.07-.88c.07-.81.18-1.94.32-3.38.3-3,.74-7.2,1.27-12.41,1.13-10.51,2.68-25,4.4-40.94a47.241,47.241,0,0,0,0-11.64,20.82,20.82,0,0,0-4.16-9.84,25.08,25.08,0,0,0-7.4-6.32,29.59,29.59,0,0,0-8-3,42.5,42.5,0,0,0-12.36-.79c-1.47.1-2.61.24-3.38.33l-.87.11h-.3a1.091,1.091,0,0,1,.29-.08l.87-.15c.77-.13,1.9-.3,3.37-.43a41.14,41.14,0,0,1,12.46.63,29.241,29.241,0,0,1,8.1,3,25.21,25.21,0,0,1,7.57,6.4,21.14,21.14,0,0,1,4.28,10.06,47.3,47.3,0,0,1,0,11.77c-1.78,16-3.38,30.41-4.55,40.92-.61,5.21-1.1,9.43-1.44,12.4-.18,1.43-.32,2.56-.42,3.36l-.12.88A1.19,1.19,0,0,1,89.88,382.89Z" fill="#241352"/>
        <path id="Path_684" data-name="Path 684" d="M92.86,379.25c0,.14-15.28,1.88-34.17,3.87s-34.2,3.51-34.22,3.36,15.28-1.88,34.17-3.87S92.84,379.1,92.86,379.25Z" fill="#241352"/>
        <path id="Path_685" data-name="Path 685" d="M185.82,371.7a5.178,5.178,0,0,1,.08-.62c.09-.44.2-1,.33-1.72l.25-1.24c.08-.46.13-1,.21-1.5.14-1.07.36-2.28.43-3.64,0-.68.11-1.39.16-2.13s0-1.51.06-2.31a46.666,46.666,0,0,0-.11-5.1,63.45,63.45,0,0,0-5.72-22.54c-.79-1.61-1.51-3.17-2.34-4.54-.4-.69-.75-1.38-1.15-2l-1.16-1.79c-.71-1.16-1.49-2.12-2.12-3-.32-.44-.61-.85-.9-1.21l-.81-1L171.92,316a2.381,2.381,0,0,1-.36-.5,2.47,2.47,0,0,1,.44.43l1.19,1.3.85.95c.3.36.6.76.93,1.19a36.324,36.324,0,0,1,2.19,3l1.2,1.79c.41.62.78,1.31,1.19,2,.85,1.37,1.58,2.93,2.4,4.55a61.6,61.6,0,0,1,5.76,22.71c.06,1.81.16,3.53.07,5.14a19.488,19.488,0,0,1-.09,2.32c-.09.74-.14,1.46-.21,2.14-.09,1.37-.34,2.59-.5,3.66-.09.54-.16,1-.26,1.49s-.2.86-.29,1.24l-.42,1.71a2.911,2.911,0,0,1-.19.58Z" fill="#241352"/>
        <path id="Path_686" data-name="Path 686" d="M362.83,372.07c-2.37-10.65,5.93-21.69,17.51-17.75,5.64,1.92,9.51,6.18,15.87,5.26,10.12-1.47,15.58-13.68,9.05-21.84-.66-.82-1.82.23-1.39,1.07,4.26,8.49.22,19.47-10.57,18.8-6.8-.42-11.34-6.56-18.57-6-10.18.84-16.86,11.36-12.8,20.8.23.53,1,.13.9-.38Z" fill="#7e2e83"/>
        <path id="Path_687" data-name="Path 687" d="M389.69,196.65a86.173,86.173,0,0,0,8.15,12.78c1.53,2,3.43,5.67,6.39,5.69s5.95-3.37,8.08-4.87q6.45-4.55,12.87-9.15a1,1,0,0,0,.34-1.31l-13.38-20.6a1,1,0,0,0-1.32-.35c-5.32,3.76-10.73,7.41-15.93,11.35-.89.67-.08,2.2.91,1.55,3-2,5.89-4.09,8.81-6.16,1.31-.92,2.59-2,4-2.82,2.5-1.43,2.11-1.63,3.93.57,2.16,2.6,3.82,5.88,5.66,8.71,1.25,1.92,5.27,6.13,4.5,8.48-.53,1.6-6.12,4.36-7.57,5.39l-4.53,3.24c-1.17.84-3.23,3.07-4.53,3.25-6.48.88-12.26-11.66-15.78-16.2-.28-.35-.77.1-.59.45Z" fill="#fac480"/>
        <path id="Path_688" data-name="Path 688" d="M326.13,261.85c-6.1,5.94-7.67,15.85-2,22.71,5.39,6.54,16,8.06,22.77,2.88S355.7,272.2,351,265c-4.84-7.48-14.57-10.36-23-9.11-.84.12-.65,1.55.21,1.49,6.78-.51,14.06.76,19.18,5.6a15.36,15.36,0,0,1,.49,21.57c-5.77,6.11-15.92,5.91-21.8,0s-5.25-16.31.6-22.12a.371.371,0,1,0-.52-.53Z" fill="#7caaff"/>
        <path id="Path_689" data-name="Path 689" d="M488.42,323.74q-2.79,19-5.38,38.08a.86.86,0,0,0,1,1c11.84-1.85,23.68-3.68,35.49-5.71A.79.79,0,0,0,520,356c-6.8-12.16-15.39-24.77-26.75-33.14-.81-.6-1.72.67-1.05,1.35,8.6,8.75,16.92,16.92,23.46,27.45,2.08,3.34,3.06,4-1.49,4.7-3.3.48-6.59,1-9.88,1.52l-20.7,3.36,1.07.82q2.48-19.08,4.79-38.16c.07-.6-1-.75-1.07-.15Z" fill="#ff7180"/>
        <path id="Path_690" data-name="Path 690" d="M430.2,299.44c1.73-12.51,3.43-25.08,4.56-37.66.08-.88-1.44-1.1-1.56-.21-1.74,12.51-2.92,25.15-4.05,37.73,0,.59,1,.74,1.05.14Z" fill="#ff947e"/>
        <path id="Path_691" data-name="Path 691" d="M567.86,296.27c12.55.72,25.17,1.42,37.74,1.53a.8.8,0,0,0,0-1.59c-12.55-.73-25.18-.88-37.74-1a.54.54,0,0,0,0,1.07Z" fill="#fac480"/>
        <path id="Path_692" data-name="Path 692" d="M466.11,136.91c11.57,5.05,23.21,10.1,35,14.59.83.32,1.44-1.09.61-1.45-11.56-5.06-23.41-9.62-35.2-14.12-.56-.22-1,.73-.42,1Z" fill="#ff7180"/>
        <path id="Path_693" data-name="Path 693" d="M497,244.58a2.785,2.785,0,0,0-.28-.32l-.33-.27a1.27,1.27,0,0,0-.52-.34,1.18,1.18,0,0,0-.62-.13,1.61,1.61,0,0,0-1.13.47,1.59,1.59,0,0,0-.47,1.13l.06.43a1.55,1.55,0,0,0,.41.71l.28.33a1.74,1.74,0,0,0,.32.28,1.694,1.694,0,0,0,1.14.47,1.62,1.62,0,0,0,1.62-1.61l-.06-.43A1.69,1.69,0,0,0,497,244.58Z" fill="#241352"/>
      </g>
    </g>
  </g>
</svg>
