<svg xmlns="http://www.w3.org/2000/svg" xmlns:xlink="http://www.w3.org/1999/xlink" viewBox="0 0 1505.73 206.07"><defs><style>.cls-1{fill:url(#linear-gradient);}.cls-2{fill:url(#linear-gradient-2);}.cls-3{fill:url(#linear-gradient-3);}</style>
<linearGradient id="linear-gradient" x1="35.37" y1="111.48" x2="153.35" y2="111.48" gradientUnits="userSpaceOnUse">
<stop offset="0" stop-color="#f01a47"/>
<stop offset="1" stop-color="#"/>
</linearGradient><linearGradient id="linear-gradient-2" x1="111.02" y1="48.77" x2="188.23" y2="48.77" xlink:href="#linear-gradient"/><linearGradient id="linear-gradient-3" x1="0" y1="173.13" x2="77.89" y2="173.13" xlink:href="#linear-gradient"/></defs><title>logo_1</title>
<g id="Layer_2" data-name="Layer 2"><g id="Layer_1-2" data-name="Layer 1"><path d="M376.85,72.82a38.78,38.78,0,0,1,14.49,15.37,47.66,47.66,0,0,1,5.28,22.8A43.56,43.56,0,0,1,391,133.41a38.91,38.91,0,0,1-15.66,15A47,47,0,0,1,353,153.67a38.75,38.75,0,0,1-16.83-3.82,34.33,34.33,0,0,1-12.92-10.28v51.09H305V69.3h15.86L322.43,83a48.65,48.65,0,0,1,15-11.35,42,42,0,0,1,18.89-4.31A39.43,39.43,0,0,1,376.85,72.82Zm-13.21,62.54a27.94,27.94,0,0,0,10.47-10A26.53,26.53,0,0,0,378,111.19,29.08,29.08,0,0,0,374.4,96.7a26.84,26.84,0,0,0-23.78-13.9,27.75,27.75,0,0,0-17.71,5.78,27.16,27.16,0,0,0-9.69,15.56v13.51a24.32,24.32,0,0,0,8.9,15.36,26.58,26.58,0,0,0,17.33,6A28.84,28.84,0,0,0,363.64,135.36Z"/><path d="M478.84,131l8.41,13.5a56.2,56.2,0,0,1-14,6.76,47.23,47.23,0,0,1-14.59,2.45q-13.5,0-23.58-5.58a39.1,39.1,0,0,1-15.57-15.37A44.52,44.52,0,0,1,414,110.6a41.46,41.46,0,0,1,6-21.83,43.41,43.41,0,0,1,16.35-15.66,46,46,0,0,1,22.7-5.77q15.87,0,26.53,9.3t14.58,25.93L436,125.09a25.42,25.42,0,0,0,9.49,9.49,26.89,26.89,0,0,0,13.6,3.43Q469.25,138,478.84,131ZM439.29,89.65q-7.25,7.84-7.24,20a38.73,38.73,0,0,0,.2,4.5L479.42,96.7a26.88,26.88,0,0,0-8.32-10.76,21.46,21.46,0,0,0-13.41-4.12A24,24,0,0,0,439.29,89.65Z"/><path d="M594.72,72.82A38.69,38.69,0,0,1,609.2,88.19a47.55,47.55,0,0,1,5.29,22.8,43.47,43.47,0,0,1-5.68,22.42,38.79,38.79,0,0,1-15.66,15,47,47,0,0,1-22.31,5.29A38.8,38.8,0,0,1,554,149.85a34.41,34.41,0,0,1-12.92-10.28v51.09h-18.2V69.3h15.85L540.3,83a48.61,48.61,0,0,1,15-11.35,42.09,42.09,0,0,1,18.9-4.31A39.46,39.46,0,0,1,594.72,72.82Zm-13.21,62.54a27.94,27.94,0,0,0,10.47-10,26.53,26.53,0,0,0,3.91-14.19,29.07,29.07,0,0,0-3.62-14.49,26.84,26.84,0,0,0-23.78-13.9,27.8,27.8,0,0,0-17.72,5.78,27.26,27.26,0,0,0-9.69,15.56v13.51A24.37,24.37,0,0,0,550,133a26.55,26.55,0,0,0,17.32,6A28.87,28.87,0,0,0,581.51,135.36Z"/><path d="M710.8,72.82a38.69,38.69,0,0,1,14.48,15.37,47.55,47.55,0,0,1,5.29,22.8,43.57,43.57,0,0,1-5.68,22.42,38.85,38.85,0,0,1-15.66,15,47,47,0,0,1-22.31,5.29,38.8,38.8,0,0,1-16.84-3.82,34.41,34.41,0,0,1-12.92-10.28v51.09H639V69.3h15.85L656.38,83a48.49,48.49,0,0,1,15-11.35,42.08,42.08,0,0,1,18.89-4.31A39.47,39.47,0,0,1,710.8,72.82Zm-13.22,62.54a28,28,0,0,0,10.48-10A26.53,26.53,0,0,0,712,111.19a29.18,29.18,0,0,0-3.62-14.49,27,27,0,0,0-9.89-10.18,26.66,26.66,0,0,0-13.89-3.72,27.78,27.78,0,0,0-17.72,5.78,27.26,27.26,0,0,0-9.69,15.56v13.51A24.29,24.29,0,0,0,666.07,133a26.55,26.55,0,0,0,17.32,6A28.81,28.81,0,0,0,697.58,135.36Z"/><path d="M812.78,131l8.42,13.5a56.44,56.44,0,0,1-14,6.76,47.12,47.12,0,0,1-14.58,2.45q-13.51,0-23.59-5.58a39.14,39.14,0,0,1-15.56-15.37A44.41,44.41,0,0,1,748,110.6a41.46,41.46,0,0,1,6-21.83A43.38,43.38,0,0,1,770.3,73.11,46,46,0,0,1,793,67.34q15.86,0,26.52,9.3t14.59,25.93l-64.21,22.52a25.45,25.45,0,0,0,9.5,9.49A26.84,26.84,0,0,0,793,138Q803.18,138,812.78,131ZM773.24,89.65q-7.25,7.84-7.24,20a39.19,39.19,0,0,0,.19,4.5L813.37,96.7a27,27,0,0,0-8.32-10.76,21.46,21.46,0,0,0-13.41-4.12A24,24,0,0,0,773.24,89.65Z"/><path d="M883.35,78.11a45,45,0,0,1,12.23-7.83,33.12,33.12,0,0,1,11.36-2.94l-.79,18.2a29.8,29.8,0,0,0-15.95,3.53A28.3,28.3,0,0,0,879,99.93a29.06,29.06,0,0,0-4,14.78v37H856.82v-81h16.25l1.37,19.18A36,36,0,0,1,883.35,78.11Z"/><path d="M936.2,150.34a31.79,31.79,0,0,1-13.21-9.2l7.83-10.57a38.71,38.71,0,0,0,10.27,7.24,24.77,24.77,0,0,0,10.67,2.54q6.47,0,10.57-2.54a8.56,8.56,0,0,0,4.11-7.83,9,9,0,0,0-2.54-6.66,15.85,15.85,0,0,0-5.78-3.72q-3.23-1.17-10.86-3.52-20.76-6.64-20.75-23.68A23.29,23.29,0,0,1,934.05,75q7.53-7.23,21-7.24a49.79,49.79,0,0,1,15.27,2.15,37.27,37.27,0,0,1,12.33,6.86l-7.24,11.15a22.27,22.27,0,0,0-7.93-5.28,27.59,27.59,0,0,0-9.1-2.16A16.34,16.34,0,0,0,949,83.1a8.6,8.6,0,0,0-1.37,13.31,16.08,16.08,0,0,0,5.29,3.52q2.73,1.08,10.76,3.62,10,3.33,15.56,8.62t5.58,14.29a25.3,25.3,0,0,1-8.22,19.38q-8.22,7.62-23.29,7.63A47.33,47.33,0,0,1,936.2,150.34Z"/><path d="M1079.39,74.29q7.44,6.75,7.63,17.52v59.9h-18.4V98.07q-.39-6.84-4.11-10.76t-11.16-4.11a21.89,21.89,0,0,0-12.72,3.91,26.2,26.2,0,0,0-8.91,11,37.21,37.21,0,0,0-3.23,15.66v38h-18.2V0h17.81V85.35a33.89,33.89,0,0,1,13-12.92,38.42,38.42,0,0,1,19.48-4.89Q1071.94,67.54,1079.39,74.29Z"/><path d="M1201.73,70.67v81h-18.2V138.4A42.12,42.12,0,0,1,1171,148.87a36.2,36.2,0,0,1-18.6,4.8,43.29,43.29,0,0,1-20.84-5,36.23,36.23,0,0,1-14.69-14.58q-5.38-9.59-5.38-22.9t5.58-23.2a39.43,39.43,0,0,1,15.07-15.27,41.9,41.9,0,0,1,21-5.38,34.84,34.84,0,0,1,18,4.5,36.62,36.62,0,0,1,12.33,11.75l1.37-12.92ZM1174.43,133a24.85,24.85,0,0,0,9.1-15.17v-16a25,25,0,0,0-9.79-14,28.37,28.37,0,0,0-17-5.38,26.56,26.56,0,0,0-13.41,3.53,25.88,25.88,0,0,0-9.79,9.88,28.61,28.61,0,0,0-3.62,14.39,28.13,28.13,0,0,0,3.72,14.29,28.6,28.6,0,0,0,10,10.28,25.91,25.91,0,0,0,13.71,3.81A27,27,0,0,0,1174.43,133Z"/><path d="M1318,0V151.71h-18.4V139a41.53,41.53,0,0,1-14.39,10.77,44.24,44.24,0,0,1-18.7,3.92,39.32,39.32,0,0,1-20.55-5.49,38,38,0,0,1-14.39-15.36A48.34,48.34,0,0,1,1226.4,110q0-13.11,5.48-22.8A36.84,36.84,0,0,1,1247,72.43a45.67,45.67,0,0,1,21.73-5.09,42.73,42.73,0,0,1,17.71,3.82,32.83,32.83,0,0,1,13.41,10.47V0Zm-27.9,132.33a25.78,25.78,0,0,0,9.5-15.27V101.79a25.61,25.61,0,0,0-10-14.39,28.75,28.75,0,0,0-17.42-5.58,27.18,27.18,0,0,0-23.68,13.61,29.5,29.5,0,0,0,0,28.68,27.62,27.62,0,0,0,10,10.18,26.32,26.32,0,0,0,13.7,3.72Q1282.78,138,1290.11,132.33Z"/><path d="M1407.27,131l8.42,13.5a56.44,56.44,0,0,1-14,6.76,47.22,47.22,0,0,1-14.58,2.45q-13.52,0-23.59-5.58A39.07,39.07,0,0,1,1348,132.72a44.42,44.42,0,0,1-5.49-22.12,41.46,41.46,0,0,1,6-21.83,43.41,43.41,0,0,1,16.35-15.66,46,46,0,0,1,22.71-5.77q15.86,0,26.52,9.3t14.59,25.93l-64.21,22.52a25.5,25.5,0,0,0,9.49,9.49A26.9,26.9,0,0,0,1387.5,138Q1397.67,138,1407.27,131Zm-39.54-41.31q-7.24,7.84-7.25,20a38.73,38.73,0,0,0,.2,4.5l47.18-17.42a27.06,27.06,0,0,0-8.32-10.76,21.46,21.46,0,0,0-13.41-4.12A24,24,0,0,0,1367.73,89.65Z"/><path d="M1457.08,150.34a31.86,31.86,0,0,1-13.21-9.2l7.83-10.57a38.76,38.76,0,0,0,10.28,7.24,24.74,24.74,0,0,0,10.67,2.54,19.79,19.79,0,0,0,10.57-2.54,8.56,8.56,0,0,0,4.11-7.83,9,9,0,0,0-2.55-6.66,15.81,15.81,0,0,0-5.77-3.72q-3.23-1.17-10.87-3.52-20.75-6.64-20.74-23.68A23.32,23.32,0,0,1,1454.93,75q7.53-7.23,21-7.24a49.7,49.7,0,0,1,15.27,2.15,37.21,37.21,0,0,1,12.34,6.86l-7.25,11.15a22.27,22.27,0,0,0-7.93-5.28,27.53,27.53,0,0,0-9.1-2.16,16.33,16.33,0,0,0-9.39,2.65,8.58,8.58,0,0,0-1.37,13.31,16,16,0,0,0,5.28,3.52q2.75,1.08,10.77,3.62,10,3.33,15.56,8.62t5.58,14.29a25.3,25.3,0,0,1-8.22,19.38q-8.22,7.62-23.3,7.63A47.4,47.4,0,0,1,1457.08,150.34Z"/><polygon class="cls-1" points="153.35 206.07 91.75 16.88 35.37 16.88 96.96 206.07 153.35 206.07"/><polygon class="cls-2" points="188.22 80.65 167.41 16.88 111.02 16.88 131.84 80.65 188.22 80.65"/><polygon class="cls-3" points="77.89 206.07 56.42 140.19 0 140.19 21.51 206.07 77.89 206.07"/></g></g></svg>