<svg xmlns="http://www.w3.org/2000/svg" xmlns:xlink="http://www.w3.org/1999/xlink" width="216" height="256" viewBox="0 0 216 256"><defs><clipPath id="a"><rect width="216" height="256" rx="12" transform="translate(-3527 -2104)" fill="#fff" stroke="#707070" stroke-width="1"/></clipPath><clipPath id="b"><rect width="216.32" height="256" rx="12" transform="translate(-36.26 -55.02)" fill="none"/></clipPath></defs><g transform="translate(3527 2104)" clip-path="url(#a)"><g transform="translate(-3490.74 -2048.98)"><g clip-path="url(#b)"><path d="M81.76,214.21q-21.06-36.47-42.11-73c-6-10.39-4.14-17,6.3-23l104.5-60.34c7.37-4.25,7.08-4,12.49,2.47,1.9,2.28,5.69,2.88,8.42,4.57,2,1.27,4.39,2.68,5.55,4.65,13.24,22.58,26.29,45.28,39.38,68q25.61,44.35,51.2,88.74c3.88,6.74,3.83,6.92-3,10.84l-104,60c-14.6,8.42-28.15,4.74-36.66-10q-21.1-36.47-42.13-73ZM169,70.09a29.37,29.37,0,0,1-3.91-2.93c-4.45-4.76-8.57-4.37-14.17-1.07-33.3,19.6-66.86,38.76-100.33,58.09-1.31.75-3.09,1.38-3.66,2.55-1,2.06-2.29,5-1.53,6.65.67,1.48,4.11,2.72,6.06,2.41a31.91,31.91,0,0,0,10.62-3.74c28.4-16.33,56.69-32.86,85-49.32C154.28,78.56,161.48,74.43,169,70.09ZM96.17,193.55h-.11l17.53,30.36.09-.05Z" transform="translate(-36.26 -55.02)" fill="#fff"/><path d="M174.42,67c-10.33,5.69-18.6,10.58-24,13.86-29,17.48-58.52,34.08-87.87,51a33.91,33.91,0,0,1-10.94,3.92c-2,.35-5.52-.86-6.18-2.34-.75-1.69.59-4.63,1.66-6.73.61-1.19,2.44-1.85,3.79-2.63,34.59-20,69.27-39.77,103.69-60,1.69-1,5.25-3.4,9-2.48,1.2.29,1.88.78,6.71,3.32C172.05,65.77,173.5,66.51,174.42,67Z" transform="translate(-36.26 -55.02)" fill="#347137"/><circle cx="22" cy="22" r="22" transform="translate(82.14 64.08)" fill="#65bd55"/><circle cx="8.5" cy="8.5" r="8.5" transform="translate(122.86 60.39)" fill="#65bd55"/><circle cx="49" cy="49" r="49" transform="translate(139.87 98.5)" fill="#65bd55"/><circle cx="3.17" cy="3.17" r="3.17" transform="translate(134.55 82.07)" fill="#65bd55"/><circle cx="12.17" cy="12.17" r="12.17" transform="translate(35.71 91.45)" fill="#65bd55"/><circle cx="24.42" cy="24.42" r="24.42" transform="translate(90.43 191.01)" fill="#65bd55"/></g></g></g></svg>