<svg xmlns="http://www.w3.org/2000/svg" xmlns:xlink="http://www.w3.org/1999/xlink" width="216" height="256" viewBox="0 0 216 256"><defs><clipPath id="a"><rect width="216" height="256" rx="12" transform="translate(-2620 -3085)" fill="#fff" stroke="#707070" stroke-width="1"/></clipPath><clipPath id="b"><rect width="216" height="256" rx="12" transform="translate(-23.75 -51.31)" fill="none"/></clipPath></defs><g transform="translate(2620 3085)" clip-path="url(#a)"><g transform="translate(-2596.25 -3033.69)"><g clip-path="url(#b)"><rect width="7.65" height="17.77" transform="translate(28.367 124.026) rotate(-30)" fill="#43484d"/><rect width="7.65" height="17.77" transform="translate(176.461 38.512) rotate(-30)" fill="#43484d"/><rect width="201.99" height="126.78" transform="translate(33.471 154.156) rotate(-30)" fill="#43484d"/><path d="M292.19,207.34,275.51,217l3.83,6.65,18.6-10.74-2.72-4.73a2.22,2.22,0,0,0-3.03-.84Z" transform="translate(-23.75 -51.31)" fill="#fff"/><rect width="56.75" height="91.7" transform="translate(160.606 121.268) rotate(-30)" fill="#232f34"/><rect width="50.01" height="84.95" transform="translate(165.21 122.502) rotate(-30)" fill="#65676c"/><path d="M214.33,201.34A2.16,2.16,0,1,1,213,200.31a2.16,2.16,0,0,1,1.333,1.03Z" transform="translate(-23.75 -51.31)" fill="#232f34"/><path d="M222.05,214.71a2.17,2.17,0,1,1-1.334-1.026A2.16,2.16,0,0,1,222.05,214.71Z" transform="translate(-23.75 -51.31)" fill="#232f34"/><path d="M211.62,201a1.24,1.24,0,0,0-.45,1.69l8.17,14.15a1.24,1.24,0,0,0,2.14-1.24l-8.17-14.15a1.24,1.24,0,0,0-1.69-.45Z" transform="translate(-23.75 -51.31)" fill="#232f34"/><path d="M226.36,245.35,117.89,308a4.06,4.06,0,0,0-1.49,5.56l1.79,3.12L230.2,252Z" transform="translate(-23.75 -51.31)" fill="#fff"/><rect width="202.49" height="3.72" transform="translate(29.239 147.338) rotate(-30)" fill="#43484d"/><rect width="202.49" height="3.72" transform="translate(25.518 140.891) rotate(-30)" fill="#43484d"/><rect width="197.52" height="3.72" transform="translate(29.526 142.87) rotate(-30)" fill="#43484d"/><rect width="11.33" height="4.41" transform="translate(190.586 95.267) rotate(-30)" fill="#232f34"/><rect width="11.33" height="4.41" transform="translate(202.976 88.111) rotate(-30)" fill="#232f34"/><rect width="11.33" height="4.41" transform="translate(193.151 85.306) rotate(-30)" fill="#232f34"/><rect width="11.33" height="4.41" transform="translate(238.792 138.818) rotate(-30)" fill="#232f34"/><rect width="11.33" height="4.41" transform="translate(241.363 128.866) rotate(-30)" fill="#232f34"/><rect width="11.33" height="4.41" transform="translate(63.439 168.674) rotate(-30)" fill="#232f34"/><rect width="11.33" height="4.41" transform="translate(75.834 161.516) rotate(-30)" fill="#232f34"/><rect width="11.33" height="4.41" transform="translate(66.009 158.722) rotate(-30)" fill="#232f34"/><rect width="11.33" height="4.41" transform="translate(78.399 151.556) rotate(-30)" fill="#232f34"/><rect width="11.33" height="4.41" transform="translate(135.046 223.948) rotate(-30)" fill="#232f34"/><rect width="11.33" height="4.41" transform="translate(167.975 196.464) rotate(-30)" fill="#232f34"/><rect width="11.33" height="4.41" transform="translate(122.651 231.105) rotate(-30)" fill="#232f34"/><rect width="11.33" height="4.41" transform="translate(125.143 221.188) rotate(-30)" fill="#232f34"/><rect width="11.33" height="4.41" transform="translate(112.753 228.353) rotate(-30)" fill="#232f34"/><rect width="8.19" height="4.41" transform="translate(64.679 212.017) rotate(-30)" fill="#232f34"/><rect width="8.19" height="4.41" transform="translate(65.517 203.057) rotate(-30)" fill="#232f34"/><path d="M240,155.42a.86.86,0,0,0-.31,1.16l3.23,5.58a.842.842,0,1,0,1.46-.84l-3.22-5.59a.86.86,0,0,0-1.16-.31Z" transform="translate(-23.75 -51.31)" fill="#232f34"/><path d="M268.8,205.35a.84.84,0,0,0-.31,1.15l3.22,5.59a.85.85,0,1,0,1.47-.85L270,205.66a.84.84,0,0,0-1.2-.31Z" transform="translate(-23.75 -51.31)" fill="#232f34"/><rect width="5.67" height="4.41" transform="translate(127.594 131.631) rotate(-30)" fill="#232f34"/><rect width="5.67" height="4.41" transform="translate(129.52 122.04) rotate(-30)" fill="#232f34"/><rect width="11.33" height="4.41" transform="translate(116.395 129.629) rotate(-30)" fill="#232f34"/><rect width="5.67" height="4.41" transform="translate(92.024 239.963) rotate(-30)" fill="#232f34"/><rect width="11.33" height="4.41" transform="translate(80.014 238.424) rotate(-30)" fill="#232f34"/><rect width="8.18" height="4.41" transform="translate(225.865 112.811) rotate(-30)" fill="#232f34"/><rect width="5.72" height="4.41" transform="translate(153.804 138.484) rotate(-30)" fill="#232f34"/><rect width="5.72" height="4.41" transform="translate(159.46 142.559) rotate(-30)" fill="#232f34"/><path d="M78.89,206.43A11.82,11.82,0,0,0,95,210.75h0a11.82,11.82,0,0,0,4.33-16.14l-3.69-6.38L75.21,200.05Z" transform="translate(-23.75 -51.31)" fill="#232f34"/><path d="M119.82,182.8A11.81,11.81,0,0,0,136,187.12h0A11.81,11.81,0,0,0,140.28,171l-3.68-6.39-20.46,11.82Z" transform="translate(-23.75 -51.31)" fill="#232f34"/><path d="M160.75,159.17a11.81,11.81,0,0,0,16.13,4.33h0a11.82,11.82,0,0,0,4.33-16.14L177.52,141l-20.46,11.81Z" transform="translate(-23.75 -51.31)" fill="#232f34"/><path d="M198,129.16l3.68,6.38a11.82,11.82,0,0,0,16.14,4.33h0a11.81,11.81,0,0,0,4.32-16.14l-3.68-6.38Z" transform="translate(-23.75 -51.31)" fill="#232f34"/><path d="M51.46,148.74l20.47-11.82-1.86-8.86L50.58,139.31Z" fill="#232f34"/><path d="M92.39,125.11l20.46-11.82-3.81-7.73L89.55,116.81Z" fill="#232f34"/><path d="M128.52,94.31l4.79,7.17,20.47-11.81-5.77-6.61Z" fill="#232f34"/><path d="M186.98,60.56,167.49,71.81l6.75,6.04L194.7,66.04Z" fill="#232f34"/><path d="M58.43,218.24a11.82,11.82,0,0,0,16.14,4.33h0a11.81,11.81,0,0,0,4.32-16.14l-3.68-6.38L54.75,211.86Z" transform="translate(-23.75 -51.31)" fill="#fff"/><path d="M99.36,194.61a11.82,11.82,0,0,0,16.14,4.33h0a11.82,11.82,0,0,0,4.32-16.14l-3.68-6.38L95.67,188.23Z" transform="translate(-23.75 -51.31)" fill="#fff"/><path d="M140.28,171a11.819,11.819,0,1,0,20.471-11.821L157.06,152.8,136.6,164.6Z" transform="translate(-23.75 -51.31)" fill="#fff"/><path d="M181.21,147.36a11.82,11.82,0,0,0,16.14,4.32h0a11.82,11.82,0,0,0,4.32-16.14L198,129.16,177.52,141Z" transform="translate(-23.75 -51.31)" fill="#fff"/><path d="M218.45,117.35l3.68,6.38a11.81,11.81,0,0,0,16.14,4.32h0a11.82,11.82,0,0,0,4.33-16.14l-3.69-6.38Z" transform="translate(-23.75 -51.31)" fill="#fff"/><path d="M31,160.55l20.46-11.81-.88-9.43L31.1,150.56Z" fill="#fff"/><path d="M71.93,136.92l20.46-11.81-2.84-8.3L70.07,128.06Z" fill="#fff"/><path d="M109.04,105.56l3.81,7.73,20.46-11.81-4.79-7.17Z" fill="#fff"/><path d="M148.01,83.06l5.77,6.61,20.46-11.82-6.75-6.04Z" fill="#fff"/><path d="M206.46,49.31,186.98,60.56l7.72,5.48,20.46-11.82Z" fill="#fff"/><rect width="6.01" height="4.41" transform="translate(52.916 183.45) rotate(-30)" fill="#232f34"/><rect width="96.13" height="58.32" transform="translate(65.26 177.398) rotate(-30)" fill="#232f34"/><rect width="89.39" height="51.58" transform="translate(69.863 178.631) rotate(-30)" fill="#65676c"/><rect width="213.63" height="37.07" rx="3.8" transform="translate(-1.399 105.425) rotate(-30)" fill="#fff"/></g></g></g></svg>