<?xml version="1.0" encoding="utf-8"?>
<!-- Generator: Adobe Illustrator 21.1.0, SVG Export Plug-In . SVG Version: 6.00 Build 0)  -->
<svg version="1.1" id="Layer_1" xmlns="http://www.w3.org/2000/svg" xmlns:xlink="http://www.w3.org/1999/xlink" x="0px" y="0px"
	 viewBox="0 0 256 256" style="enable-background:new 0 0 256 256;" xml:space="preserve">
<style type="text/css">
	.st0{fill:none;stroke:#000000;stroke-miterlimit:10;}
</style>
<path class="st0" d="M160,60v88c0,6.6-5.4,12-12,12h-8c0-8.8-7.2-16-16-16s-16,7.2-16,16h-8c-6.6,0-12-5.4-12-12V60
	c0-6.6,5.4-12,12-12h48C154.6,48,160,53.4,160,60z"/>
<path class="st0" d="M176,148V61.4c0-6.6,5.4-12,12-12h4V24c0-4.4-3.6-8-8-8H72c-4.4,0-8,3.6-8,8v208c0,4.4,3.6,8,8,8h112
	c4.4,0,8-3.6,8-8v-72h-4C181.4,160,176,154.6,176,148z"/>
<path class="st0" d="M188,49.4c-6.6,0-12,5.4-12,12V148c0,6.6,5.4,12,12,12h4V49.4H188z"/>
<path class="st0" d="M134.9,192h-21.7c-0.6,0-1.1-0.5-1.1-1.1v-5.7c0-0.6,0.5-1.1,1.1-1.1h21.7c0.6,0,1.1,0.5,1.1,1.1v5.7
	C136,191.5,135.5,192,134.9,192z"/>
<circle class="st0" cx="124" cy="160" r="16"/>
<path class="st0" d="M133,62c0-2.4,1.1-4.5,2.7-6c-4.3,0.2-7.7,3.7-7.7,8c0,4.4,3.6,8,8,8c2,0,3.9-0.8,5.3-2c-0.1,0-0.2,0-0.3,0
	C136.6,70,133,66.4,133,62z"/>
<polygon class="st0" points="96,128 152,128 136,104 128,114.7 115.7,88 "/>
<circle class="st0" cx="128" cy="224" r="8"/>
<line class="st0" x1="104" y1="24" x2="152" y2="24"/>
</svg>
