<?xml version="1.0" encoding="utf-8"?>
<!-- Generator: Adobe Illustrator 21.1.0, SVG Export Plug-In . SVG Version: 6.00 Build 0)  -->
<svg version="1.1" id="Layer_1" xmlns="http://www.w3.org/2000/svg" xmlns:xlink="http://www.w3.org/1999/xlink" x="0px" y="0px"
	 viewBox="0 0 256 256" style="enable-background:new 0 0 256 256;" xml:space="preserve">
<style type="text/css">
	.st0{fill:none;stroke:#000000;stroke-miterlimit:10;}
</style>
<path class="st0" d="M216,152c8.3,0,16.4,1.2,24,3.3V48c0-4.4-3.6-8-8-8H122.5c12.9,8.6,21.5,23.3,21.5,40c0,26.5-21.5,48-48,48
	s-48-21.5-48-48c0-16.7,8.5-31.4,21.5-40H24c-4.4,0-8,3.6-8,8v72c13.3,0,24,10.7,24,24s-10.7,24-24,24v40c0,4.4,3.6,8,8,8h107.3
	C141.8,179.1,175.7,152,216,152z M200,64c8.8,0,16,7.2,16,16s-7.2,16-16,16s-16-7.2-16-16S191.2,64,200,64z M28,56c-2.2,0-4-1.8-4-4
	c0-2.2,1.8-4,4-4s4,1.8,4,4C32,54.2,30.2,56,28,56z M68,192c-6.6,0-12-5.4-12-12c0-6.6,5.4-12,12-12s12,5.4,12,12
	C80,186.6,74.6,192,68,192z"/>
<path class="st0" d="M48,80c0,26.5,21.5,48,48,48s48-21.5,48-48c0-16.7-8.5-31.4-21.5-40H69.5C56.5,48.6,48,63.3,48,80z"/>
<circle class="st0" cx="200" cy="80" r="16"/>
<path class="st0" d="M240,208v-52.7c-7.6-2.2-15.7-3.3-24-3.3c-40.3,0-74.2,27.1-84.7,64H232C236.4,216,240,212.4,240,208z"/>
<path class="st0" d="M40,144c0-13.3-10.7-24-24-24v48C29.3,168,40,157.3,40,144z"/>
<circle class="st0" cx="68" cy="180" r="12"/>
<circle class="st0" cx="28" cy="52" r="4"/>
</svg>
