<?xml version="1.0" encoding="utf-8"?>
<!-- Generator: Adobe Illustrator 21.1.0, SVG Export Plug-In . SVG Version: 6.00 Build 0)  -->
<svg version="1.1" id="Layer_1" xmlns="http://www.w3.org/2000/svg" xmlns:xlink="http://www.w3.org/1999/xlink" x="0px" y="0px"
	 viewBox="0 0 256 256" style="enable-background:new 0 0 256 256;" xml:space="preserve">
<style type="text/css">
	.st0{fill:none;stroke:#000000;stroke-miterlimit:10;}
</style>
<rect x="32" y="56" class="st0" width="120" height="168"/>
<path class="st0" d="M112,56c0-7.7,0-16.3,0-24c37.3,0,74.7,0,112,0v168c-24.1,0-48.2,0-72.3,0"/>
<line class="st0" x1="152" y1="56" x2="112" y2="32"/>
<path class="st0" d="M128,112H56c-4.4,0-8-3.6-8-8V80c0-4.4,3.6-8,8-8h72c4.4,0,8,3.6,8,8v24C136,108.4,132.4,112,128,112z"/>
<path class="st0" d="M108,144H52c-2.2,0-4-1.8-4-4l0,0c0-2.2,1.8-4,4-4h56c2.2,0,4,1.8,4,4l0,0C112,142.2,110.2,144,108,144z"/>
<path class="st0" d="M124,160H52c-2.2,0-4-1.8-4-4l0,0c0-2.2,1.8-4,4-4h72c2.2,0,4,1.8,4,4l0,0C128,158.2,126.2,160,124,160z"/>
<path class="st0" d="M116,192H52c-2.2,0-4-1.8-4-4l0,0c0-2.2,1.8-4,4-4h64c2.2,0,4,1.8,4,4l0,0C120,190.2,118.2,192,116,192z"/>
<path class="st0" d="M132,192L132,192c-2.2,0-4-1.8-4-4l0,0c0-2.2,1.8-4,4-4l0,0c2.2,0,4,1.8,4,4l0,0C136,190.2,134.2,192,132,192z"
	/>
<path class="st0" d="M152,64h52c6.6,0,12,4.1,12,9v6c0,4.9-5.4,9-12,9h-52"/>
<path class="st0" d="M152,120h52c2.2,0,4,1.8,4,4v0c0,2.2-1.8,4-4,4h-52"/>
<path class="st0" d="M152,136h40c2.2,0,4,1.8,4,4l0,0c0,2.2-1.8,4-4,4h-40"/>
<path class="st0" d="M152,152l52,0c2.2,0,4,1.8,4,4l0,0c0,2.2-1.8,4-4,4h-52"/>
</svg>
