<?xml version="1.0" encoding="utf-8"?>
<!-- Generator: Adobe Illustrator 21.1.0, SVG Export Plug-In . SVG Version: 6.00 Build 0)  -->
<svg version="1.1" id="Layer_1" xmlns="http://www.w3.org/2000/svg" xmlns:xlink="http://www.w3.org/1999/xlink" x="0px" y="0px"
	 viewBox="0 0 256 256" style="enable-background:new 0 0 256 256;" xml:space="preserve">
<style type="text/css">
	.st0{fill:none;stroke:#000000;stroke-miterlimit:10;}
</style>
<path class="st0" d="M211.7,137c2.2,0,4.2-0.9,5.7-2.3c1.4-1.4,2.3-3.4,2.3-5.7c0-4.4-3.6-8-8-8l-67.9,0c-4.4,0-8,3.6-8,8
	c0,4.4,3.6,8,8,8L211.7,137z M211.7,137"/>
<path class="st0" d="M177.8,108.2c2.2,0,4.2-0.9,5.7-2.3c1.4-1.4,2.3-3.4,2.3-5.7c0-4.4-3.6-8-8-8l-33.9,0c-4.4,0-8,3.6-8,8
	c0,4.4,3.6,8,8,8H177.8z M177.8,108.2"/>
<path class="st0" d="M100.3,106.6c0-6.2-2.4-12-6.8-16.4c-4.4-4.4-10.2-6.8-16.4-6.8c-6.2,0-12,2.4-16.4,6.8
	c-4.4,4.4-6.8,10.2-6.8,16.4c0,6.2,2.4,12,6.8,16.4c4.4,4.4,10.2,6.8,16.4,6.8c6.4,0,12.2-2.6,16.4-6.8
	C97.7,118.8,100.3,113,100.3,106.6L100.3,106.6z M84.3,106.6"/>
<path class="st0" d="M219.4,152.4c0-4.4-3.6-8-8-8l-67.6,0c-4.4,0-8,3.6-8,8c0,4.4,3.6,8,8,8h67.6c2.2,0,4.2-0.9,5.6-2.3
	C218.5,156.6,219.4,154.6,219.4,152.4L219.4,152.4z M219.4,152.4"/>
<path class="st0" d="M231.8,192H24.2c-4.5,0-8.2-3.7-8.2-8.2V72.2c0-4.5,3.7-8.2,8.2-8.2h207.7c4.5,0,8.2,3.7,8.2,8.2v111.7
	C240,188.3,236.3,192,231.8,192z"/>
<path class="st0" d="M40.3,172.1c0-21,17-38,38-38s38,17,38,38"/>
</svg>
