<?xml version="1.0" encoding="utf-8"?>
<!-- Generator: Adobe Illustrator 21.1.0, SVG Export Plug-In . SVG Version: 6.00 Build 0)  -->
<svg version="1.1" id="Layer_1" xmlns="http://www.w3.org/2000/svg" xmlns:xlink="http://www.w3.org/1999/xlink" x="0px" y="0px"
	 viewBox="0 0 256 256" style="enable-background:new 0 0 256 256;" xml:space="preserve">
<style type="text/css">
	.st0{fill:none;stroke:#000000;stroke-miterlimit:10;}
</style>
<path class="st0" d="M164.7,156.1H91.5c-2,0-3.7,1.6-3.7,3.6c0,2,1.6,3.7,3.7,3.7h73.2c2,0,3.7-1.6,3.7-3.7
	C168.4,157.7,166.8,156.1,164.7,156.1L164.7,156.1z M164.7,156.1"/>
<path class="st0" d="M164.7,174.4H91.5c-2,0-3.7,1.6-3.7,3.6c0,2,1.6,3.7,3.7,3.7h73.2c2,0,3.7-1.6,3.7-3.7
	C168.4,176,166.8,174.4,164.7,174.4L164.7,174.4z M164.7,174.4"/>
<path class="st0" d="M164.7,192.7H91.5c-2,0-3.7,1.6-3.7,3.6c0,2,1.6,3.7,3.7,3.7h73.2c2,0,3.7-1.6,3.7-3.7
	C168.4,194.3,166.8,192.7,164.7,192.7L164.7,192.7z M164.7,192.7"/>
<path class="st0" d="M96.2,122.4c0-12.6,14.3-22.9,31.9-22.9c17.6,0,31.9,10.2,31.9,22.9H96.2z M111,82c0-9.5,7.7-17.2,17.1-17.2
	c9.5,0,17.1,7.7,17.1,17.2c0,9.4-7.7,17.1-17.1,17.1C118.7,99.1,111,91.4,111,82L111,82z"/>
<path class="st0" d="M184,240H72c-4.4,0-8-3.6-8-8V24c0-4.4,3.6-8,8-8h112c4.4,0,8,3.6,8,8v208C192,236.4,188.4,240,184,240z"/>
</svg>
