<?xml version="1.0" encoding="utf-8"?>
<!-- Generator: Adobe Illustrator 21.1.0, SVG Export Plug-In . SVG Version: 6.00 Build 0)  -->
<svg version="1.1" id="Layer_1" xmlns="http://www.w3.org/2000/svg" xmlns:xlink="http://www.w3.org/1999/xlink" x="0px" y="0px"
	 viewBox="0 0 256 256" style="enable-background:new 0 0 256 256;" xml:space="preserve">
<style type="text/css">
	.st0{fill:none;stroke:#000000;stroke-miterlimit:10;}
</style>
<path class="st0" d="M199.8,240H56.2c-4.4,0-8-3.6-8-8V24c0-4.4,3.6-8,8-8h143.6c4.4,0,8,3.6,8,8v208
	C207.8,236.4,204.2,240,199.8,240z"/>
<path class="st0" d="M188,64H68c-2.2,0-4-1.8-4-4V36c0-2.2,1.8-4,4-4h120c2.2,0,4,1.8,4,4v24C192,62.2,190.2,64,188,64z"/>
<path class="st0" d="M81.7,128H67c-1.7,0-3-1.3-3-3v-2.7c0-1.6,1.3-3,3-3h14.7c1.7,0,3,1.4,3,3v2.7C84.7,126.7,83.4,128,81.7,128z"
	/>
<path class="st0" d="M188,146.8H68c-2.2,0-4-1.8-4-4v-1.7c0-2.2,1.8-4,4-4h120c2.2,0,4,1.8,4,4v1.7C192,145,190.2,146.8,188,146.8z"
	/>
<path class="st0" d="M188,164H68c-2.2,0-4-1.8-4-4v-1.7c0-2.2,1.8-4,4-4h120c2.2,0,4,1.8,4,4v1.7C192,162.2,190.2,164,188,164z"/>
<path class="st0" d="M188,182.4H68c-2.2,0-4-1.8-4-4v-1.7c0-2.2,1.8-4,4-4h120c2.2,0,4,1.8,4,4v1.7C192,180.6,190.2,182.4,188,182.4
	z"/>
<path class="st0" d="M116.7,214H68c-2.2,0-4-1.8-4-4v-1.7c0-2.2,1.8-4,4-4h48.7c2.2,0,4,1.8,4,4v1.7
	C120.7,212.2,118.9,214,116.7,214z"/>
</svg>
