<?xml version="1.0" encoding="utf-8"?>
<!-- Generator: Adobe Illustrator 21.1.0, SVG Export Plug-In . SVG Version: 6.00 Build 0)  -->
<svg version="1.1" id="Layer_1" xmlns="http://www.w3.org/2000/svg" xmlns:xlink="http://www.w3.org/1999/xlink" x="0px" y="0px"
	 viewBox="0 0 256 256" style="enable-background:new 0 0 256 256;" xml:space="preserve">
<style type="text/css">
	.st0{fill:none;stroke:#000000;stroke-miterlimit:10;}
</style>
<path class="st0" d="M184,224H72c-4.4,0-8-3.6-8-8V40c0-4.4,3.6-8,8-8h112c4.4,0,8,3.6,8,8v176C192,220.4,188.4,224,184,224z"/>
<polygon class="st0" points="128,64.3 87,40.7 87,88 "/>
<path class="st0" d="M64,144c16.2-3.4,43.7-11.5,72-32c31.1-22.5,48-49.1,56-64"/>
<path class="st0" d="M64,144c12.5,1.9,40.3,4.4,72-8c29.7-11.6,47.8-30.4,56-40"/>
<path class="st0" d="M156,184h-56c-2.2,0-4-1.8-4-4l0,0c0-2.2,1.8-4,4-4h56c2.2,0,4,1.8,4,4l0,0C160,182.2,158.2,184,156,184z"/>
<path class="st0" d="M148,200h-40c-2.2,0-4-1.8-4-4l0,0c0-2.2,1.8-4,4-4h40c2.2,0,4,1.8,4,4l0,0C152,198.2,150.2,200,148,200z"/>
</svg>
