<?xml version="1.0" encoding="utf-8"?>
<!-- Generator: Adobe Illustrator 21.1.0, SVG Export Plug-In . SVG Version: 6.00 Build 0)  -->
<svg version="1.1" id="Layer_1" xmlns="http://www.w3.org/2000/svg" xmlns:xlink="http://www.w3.org/1999/xlink" x="0px" y="0px"
	 viewBox="0 0 256 256" style="enable-background:new 0 0 256 256;" xml:space="preserve">
<style type="text/css">
	.st0{fill:none;stroke:#000000;stroke-miterlimit:10;}
</style>
<rect x="64" y="16" class="st0" width="128" height="224"/>
<rect x="192" y="32" class="st0" width="32" height="192"/>
<rect x="32" y="32" class="st0" width="32" height="192"/>
<path class="st0" d="M176,224H80c-4.4,0-8-3.6-8-8v-16c0-4.4,3.6-8,8-8h96c4.4,0,8,3.6,8,8v16C184,220.4,180.4,224,176,224z"/>
<path class="st0" d="M108,120H76c-2.2,0-4-1.8-4-4v0c0-2.2,1.8-4,4-4h32c2.2,0,4,1.8,4,4v0C112,118.2,110.2,120,108,120z"/>
<path class="st0" d="M140,136H76c-2.2,0-4-1.8-4-4l0,0c0-2.2,1.8-4,4-4h64c2.2,0,4,1.8,4,4l0,0C144,134.2,142.2,136,140,136z"/>
<path class="st0" d="M116,160H76c-2.2,0-4-1.8-4-4l0,0c0-2.2,1.8-4,4-4h40c2.2,0,4,1.8,4,4l0,0C120,158.2,118.2,160,116,160z"/>
<path class="st0" d="M156,176H76c-2.2,0-4-1.8-4-4l0,0c0-2.2,1.8-4,4-4h80c2.2,0,4,1.8,4,4l0,0C160,174.2,158.2,176,156,176z"/>
<circle class="st0" cx="128" cy="56" r="32"/>
</svg>
