<?xml version="1.0" encoding="utf-8"?>
<!-- Generator: Adobe Illustrator 21.1.0, SVG Export Plug-In . SVG Version: 6.00 Build 0)  -->
<svg version="1.1" id="Layer_1" xmlns="http://www.w3.org/2000/svg" xmlns:xlink="http://www.w3.org/1999/xlink" x="0px" y="0px"
	 viewBox="0 0 256 256" style="enable-background:new 0 0 256 256;" xml:space="preserve">
<style type="text/css">
	.st0{fill:none;stroke:#000000;stroke-miterlimit:10;}
</style>
<ellipse class="st0" cx="126" cy="118.2" rx="16.1" ry="15.7"/>
<path class="st0" d="M159.5,159.6H96.4c-1,0-1.8-0.8-1.8-1.8v0c0-1,0.8-1.8,1.8-1.8h63.1c1,0,1.8,0.8,1.8,1.8v0
	C161.3,158.8,160.5,159.6,159.5,159.6z"/>
<path class="st0" d="M159.5,170H96.4c-1,0-1.8-0.8-1.8-1.8l0,0c0-1,0.8-1.8,1.8-1.8h63.1c1,0,1.8,0.8,1.8,1.8l0,0
	C161.3,169.2,160.5,170,159.5,170z"/>
<g>
	<path class="st0" d="M202.9,67.9c-0.7-1-1.3-2-1.7-2.9c-0.4-1-0.7-2.2-0.9-3.4c-0.5-2.5-1.1-5.4-3.2-7.5c-2.1-2.1-5-2.7-7.5-3.2
		c-1.3-0.3-2.5-0.5-3.4-0.9c-0.9-0.4-1.9-1-2.9-1.7c-2.2-1.4-4.7-3.1-7.7-3.1c-3.1,0-5.6,1.6-7.7,3.1c-1,0.7-2,1.3-2.9,1.7
		c-1,0.4-2.2,0.7-3.4,0.9c-2.5,0.5-5.4,1.1-7.5,3.2c-2.1,2.1-2.7,5-3.2,7.5c-0.3,1.3-0.5,2.5-0.9,3.4c-0.4,0.9-1,1.9-1.7,2.9
		c-1,1.5-2.1,3.2-2.7,5.1H86.2c-4.5,0-8.2,3.7-8.2,8.2v106c0,4.5,3.7,8.2,8.2,8.2h33.7v22.7H91.8c-1.4,0-2.6,1.2-2.6,2.6
		s1.2,2.6,2.6,2.6h72.6c1.4,0,2.6-1.2,2.6-2.6s-1.2-2.6-2.6-2.6h-28.1v-22.7h33.7c4.5,0,8.2-3.7,8.2-8.2v-67c0-1.4-1.2-2.6-2.6-2.6
		s-2.6,1.2-2.6,2.6v67c0,1.6-1.3,3-3,3H86.2c-1.6,0-3-1.3-3-3v-106c0-1.6,1.3-3,3-3h59.2c0.6,1.9,1.7,3.6,2.7,5.1
		c0.7,1,1.3,2,1.7,2.9c0.4,1,0.7,2.2,0.9,3.4c0.5,2.5,1.1,5.4,3.2,7.5c2.1,2.1,5,2.7,7.5,3.2c1.3,0.3,2.5,0.5,3.4,0.9
		c0.9,0.4,1.9,1,2.9,1.7c1.5,1,3.2,2.1,5.1,2.7v3.4c0,1.4,1.2,2.6,2.6,2.6c1.4,0,2.6-1.2,2.6-2.6v-3.4c1.9-0.6,3.6-1.7,5.1-2.7
		c1-0.7,2-1.3,2.9-1.7c1-0.4,2.2-0.7,3.4-0.9c2.5-0.5,5.4-1.1,7.5-3.2c2.1-2.1,2.7-5,3.2-7.5c0.3-1.3,0.5-2.5,0.9-3.4
		c0.4-0.9,1-1.9,1.7-2.9c1.4-2.2,3.1-4.7,3.1-7.7C206,72.5,204.4,70.1,202.9,67.9L202.9,67.9z M131,218.1h-5.9v-22.7h5.9V218.1z
		 M198.6,80.5c-0.8,1.2-1.6,2.4-2.2,3.8c-0.6,1.4-0.9,2.9-1.2,4.4c-0.4,2-0.8,3.9-1.8,4.9c-1,1-2.9,1.4-4.9,1.8
		c-1.4,0.3-2.9,0.6-4.4,1.2c-1.4,0.6-2.6,1.4-3.8,2.2c-1.7,1.1-3.3,2.2-4.9,2.2c-1.5,0-3.1-1.1-4.9-2.2c-1.2-0.8-2.4-1.6-3.8-2.2
		c-1.4-0.6-2.9-0.9-4.4-1.2c-2-0.4-3.9-0.8-4.9-1.8c-1-1-1.4-2.9-1.8-4.9c-0.3-1.4-0.6-2.9-1.2-4.4c-0.6-1.4-1.4-2.6-2.2-3.8
		c-1.1-1.7-2.2-3.3-2.2-4.9c0-1.5,1.1-3.1,2.2-4.9c0.8-1.2,1.6-2.4,2.2-3.8c0.6-1.4,0.9-2.9,1.2-4.4c0.4-2,0.8-3.9,1.8-4.9
		c1-1,2.9-1.4,4.9-1.8c1.4-0.3,2.9-0.6,4.4-1.2c1.4-0.6,2.6-1.4,3.8-2.2c1.7-1.1,3.3-2.2,4.9-2.2c1.5,0,3.1,1.1,4.9,2.2
		c1.2,0.8,2.4,1.6,3.8,2.2c1.4,0.6,2.9,0.9,4.4,1.2c2,0.4,3.9,0.8,4.9,1.8c1,1,1.4,2.9,1.8,4.9c0.3,1.4,0.6,2.9,1.2,4.4
		c0.6,1.4,1.4,2.6,2.2,3.8c1.1,1.7,2.2,3.3,2.2,4.9C200.8,77.1,199.7,78.8,198.6,80.5L198.6,80.5z M198.6,80.5"/>
	<path class="st0" d="M175.5,81c1.4,0,2.6-1.2,2.6-2.6V61.7c0-1.4-1.2-2.6-2.6-2.6c-1.4,0-2.6,1.2-2.6,2.6v16.7
		C172.9,79.9,174.1,81,175.5,81L175.5,81z M175.5,81"/>
	<path class="st0" d="M175.5,85L175.5,85c-1.5,0-2.6,1.2-2.6,2.6c0,1.4,1.2,2.6,2.6,2.6c1.4,0,2.6-1.2,2.6-2.6
		C178.1,86.1,177,85,175.5,85L175.5,85z M175.5,85"/>
</g>
</svg>
