<?xml version="1.0" encoding="utf-8"?>
<!-- Generator: Adobe Illustrator 21.1.0, SVG Export Plug-In . SVG Version: 6.00 Build 0)  -->
<svg version="1.1" id="Layer_1" xmlns="http://www.w3.org/2000/svg" xmlns:xlink="http://www.w3.org/1999/xlink" x="0px" y="0px"
	 viewBox="0 0 256 256" style="enable-background:new 0 0 256 256;" xml:space="preserve">
<style type="text/css">
	.st0{fill:none;stroke:#010101;stroke-miterlimit:10;}
	.st1{fill:none;stroke:#000000;stroke-miterlimit:10;}
</style>
<path class="st0" d="M175.7,33H80.3c-8.8,0-15.9,7.1-15.9,15.9v159.2c0,8.8,7.1,15.9,15.9,15.9h95.5c8.8,0,15.9-7.1,15.9-15.9V48.9
	C191.7,40.1,184.5,33,175.7,33z M139.9,212.1h-23.9c-2.2,0-4-1.8-4-4s1.8-4,4-4h23.9c2.2,0,4,1.8,4,4S142.1,212.1,139.9,212.1z
	 M175.7,192H80.3V48.9h95.5V192z"/>
<g>
	<path class="st1" d="M147.2,115.9l-9.5-9.6l7.2-10.7l13,13L147.2,115.9z M147.2,115.9"/>
	<path class="st1" d="M141.5,123l-11-11l-16.4,5.4l-10.5,28.1l0.8,0.8l12.1-12.1c-0.7-1.6-0.3-3.6,1.1-5c1.8-1.8,4.8-1.8,6.6,0
		c1.8,1.8,1.8,4.8,0,6.6c-1.3,1.3-3.3,1.7-5,1.1L107.2,149l0.8,0.8l28.1-10.5L141.5,123z M141.5,123"/>
	<path class="st1" d="M117.6,129.3c1.8-1.8,4.8-1.8,6.6,0c1.8,1.8,1.8,4.8,0,6.6c-1.3,1.3-3.3,1.7-5,1.1L107.2,149l0.8,0.8
		l28.1-10.5l5.4-16.4l-11-10.9"/>
	<polyline class="st1" points="136.1,139.4 141.5,123 130.5,112 	"/>
	<path class="st1" d="M147.5,122.5c-1.6,1.6-4.2,1.6-5.8,0l-10.6-10.6c-1.6-1.6-1.6-4.2,0-5.8c1.6-1.6,4.2-1.6,5.8,0l10.6,10.6
		C149.2,118.2,149.2,120.9,147.5,122.5L147.5,122.5z M147.5,122.5"/>
	<path class="st1" d="M147.5,122.5c-1.6,1.6-4.2,1.6-5.8,0l-10.6-10.6c-1.6-1.6-1.6-4.2,0-5.8"/>
	<path class="st1" d="M152.6,159.6h-49.3c-3.2,0-5.7-2.4-5.7-5.5c0-3.2,2.6-5.6,5.7-5.6c0.8,0,1.4,0.7,1.4,1.4
		c0,0.8-0.7,1.4-1.4,1.4c-1.6,0-2.9,1.1-2.9,2.7c0,1.5,1.2,2.7,2.9,2.7h49.3c0.8,0,1.4,0.7,1.4,1.4
		C154,158.8,153.4,159.6,152.6,159.6L152.6,159.6z M152.6,159.6"/>
</g>
</svg>
