<svg xmlns="http://www.w3.org/2000/svg" xmlns:xlink="http://www.w3.org/1999/xlink" width="216" height="256" viewBox="0 0 216 256"><defs><clipPath id="a"><rect width="216" height="256" rx="12" transform="translate(-3153 -2128)" fill="#fff" stroke="#707070" stroke-width="1"/></clipPath><clipPath id="b"><rect width="215.68" height="256" rx="12" transform="translate(-13.16 -19.19)" fill="none"/></clipPath></defs><g transform="translate(3153 2128)" clip-path="url(#a)"><g transform="translate(-3139.84 -2108.81)"><g clip-path="url(#b)"><rect width="66.06" height="38.53" transform="translate(176.14 176.14)" fill="#653752"/><rect width="115.6" height="164.75" transform="translate(132.11)" fill="#653752"/><rect width="115.6" height="164.75" transform="translate(0 71.96)" fill="#fff"/><rect width="93.58" height="16.51" transform="translate(11.01 88.08)" fill="#653752"/><rect width="66.06" height="5.5" transform="translate(11.01 192.67)" fill="#653752"/><rect width="49.53" height="5.5" transform="translate(11.01 203.68)" fill="#653752"/><path d="M161.78,183.94H145.27V19.19h16.51V145.8l-5.5,5.5,5.5,5.5Z" transform="translate(-13.16 -19.19)" fill="#fff"/><rect width="77.07" height="4.82" transform="translate(159.63 11.36)" fill="#989898" opacity="0.29"/><rect width="77.07" height="43.35" transform="translate(159.63 33.71)" fill="#ccc" opacity="0.29"/><rect width="27.52" height="4.82" transform="translate(159.63 83.26)" fill="#ccc" opacity="0.29"/><rect width="27.52" height="4.82" transform="translate(159.63 93.58)" fill="#ccc" opacity="0.29"/><path d="M222.34,233.87h-33V195.33h49.55Z" transform="translate(-13.16 -19.19)" fill="#fff"/><path d="M146.2,214.38h9.88v4.94H146.2Z" transform="translate(-13.16 -19.19)" fill="#653752"/><path d="M146.2,247.79h9.88v4.94H146.2Z" transform="translate(-13.16 -19.19)" fill="#653752"/><path d="M146.2,221.8h9.88v23.45H146.2Z" transform="translate(-13.16 -19.19)" fill="#653752"/><path d="M146.2,261.29a1.23,1.23,0,0,0,1.23,1.23h0v3.71a1.23,1.23,0,0,0,1.23,1.23h1.23v3.71a1.24,1.24,0,0,0,2.47,0v-3.71h1.23a1.23,1.23,0,0,0,1.23-1.23h0v-3.71a1.23,1.23,0,0,0,1.23-1.23h0v-6.17H146.2Zm6.17,3.71h-2.46v-2.46h2.46Z" transform="translate(-13.16 -19.19)" fill="#653752"/><path d="M154.83,204.51v-2.44a3.71,3.71,0,1,0-7.4-.55,5,5,0,0,0,0,.55v2.46a1.23,1.23,0,0,0-1.23,1.23h0v6.17h9.89v-6.17a1.24,1.24,0,0,0-1.22-1.25h0Zm-4.92-2.44a1.23,1.23,0,0,1,2.46,0v2.46h-2.46Z" transform="translate(-13.16 -19.19)" fill="#653752"/><path d="M174.6,214.38h-7.42a3.69,3.69,0,0,0-3.69,3.69v6.17h14.8v-6.17A3.7,3.7,0,0,0,174.6,214.38Z" transform="translate(-13.16 -19.19)" fill="#653752"/><path d="M163.49,247.79a3.71,3.71,0,0,0,3.69,3.69h7.42a3.71,3.71,0,0,0,3.69-3.69v-3.71h-14.8Z" transform="translate(-13.16 -19.19)" fill="#653752"/><path d="M163.49,226.68h14.8v14.81h-14.8Z" transform="translate(-13.16 -19.19)" fill="#653752"/></g></g></g></svg>