<svg xmlns="http://www.w3.org/2000/svg" xmlns:xlink="http://www.w3.org/1999/xlink" width="216" height="256" viewBox="0 0 216 256"><defs><clipPath id="a"><rect width="216" height="256" rx="12" transform="translate(-3527 -2561)" fill="#fff" stroke="#707070" stroke-width="1"/></clipPath><clipPath id="b"><rect width="215.36" height="256" rx="12" transform="translate(-16.69 -67.86)" fill="none"/></clipPath></defs><g transform="translate(3527 2561)" clip-path="url(#a)"><g transform="translate(-3444.31 -2482.14)"><g transform="translate(-66 -11)"><g clip-path="url(#b)"><path d="M111.46,67.86l-90.8,52.86a8,8,0,0,0-2.88,10.94L122.42,311.41a8,8,0,0,0,10.94,2.89l124.11-72.25a8,8,0,0,0,2.89-10.94l-85-146Z" transform="translate(-16.69 -67.86)" fill="#a5def2"/><path d="M135,108.49l40.3-23.43-63.87-17.2Z" transform="translate(-16.69 -67.86)" fill="#85d4ee"/><circle cx="16" cy="16" r="16" transform="translate(24.65 52.54)" fill="#fff"/><rect width="64.164" height="8.486" rx="4.238" transform="translate(50.038 117.361) rotate(-30.174)" fill="#fff"/><rect width="95.18" height="7.65" rx="3.82" transform="translate(59.442 132.599) rotate(-30.21)" fill="#fff"/><rect width="128" height="8" rx="4" transform="translate(67.257 146.023) rotate(-30.21)" fill="#fff"/><rect width="119.623" height="6.436" rx="3.218" transform="translate(78.69 166.846) rotate(-30.174)" fill="#fff"/><rect width="120.25" height="8.53" rx="4.26" transform="translate(87.105 180.131) rotate(-30.21)" fill="#fff"/></g></g></g></g></svg>