<svg xmlns="http://www.w3.org/2000/svg" xmlns:xlink="http://www.w3.org/1999/xlink" width="216" height="256" viewBox="0 0 216 256"><defs><clipPath id="a"><rect width="216" height="256" rx="12" transform="translate(-3153 -2778)" fill="#ff3a3a" stroke="#707070" stroke-width="1"/></clipPath><clipPath id="b"><rect width="216" height="256" rx="12" transform="translate(-30.77 -55.1)" fill="none"/></clipPath></defs><g transform="translate(3153 2778)" clip-path="url(#a)"><g transform="translate(-3122.23 -2722.9)"><g clip-path="url(#b)"><path d="M206.84,155.8,151.19,59.4a8.61,8.61,0,0,0-11.76-3.15L74.7,93.62A51.64,51.64,0,0,1,71.5,196.8l55.1,95.44a8.6,8.6,0,0,0,11.76,3.15l55.13-31.83A133.64,133.64,0,0,1,206.84,155.8ZM129.17,270.88a4.29,4.29,0,1,1,2.014-2.611A4.31,4.31,0,0,1,129.17,270.88Zm38.43-2.31a4.3,4.3,0,1,1,1.57-5.88,4.3,4.3,0,0,1-1.57,5.88Zm-37-38.27a8.319,8.319,0,1,0-.01,0Zm42.15-4.45a2.077,2.077,0,1,0-.01,0Zm-24.4-85.3a6.3,6.3,0,1,0-.01,0ZM127.83,87.79a12.9,12.9,0,1,1,7.835,6.019,12.91,12.91,0,0,1-7.835-6.019Z" transform="translate(-30.77 -55.1)" fill="#861719"/><path d="M116.22,119.34A51.58,51.58,0,0,0,74.7,93.62L35.07,116.5a8.62,8.62,0,0,0-3.15,11.76L71.5,196.8a51.64,51.64,0,0,0,44.72-77.46Z" transform="translate(-30.77 -55.1)" fill="#fff"/><circle cx="12.91" cy="12.91" r="12.91" transform="translate(95.33 13.33)" fill="#d3232a"/><path d="M245.86,223.38l-39-67.58a133.64,133.64,0,0,0-13.35,107.76l49.22-28.42a8.6,8.6,0,0,0,3.13-11.76Z" transform="translate(-30.77 -55.1)" fill="#fff"/><circle cx="17.21" cy="17.21" r="17.21" transform="translate(74.01 143.09)" fill="#d3232a"/><circle cx="8.61" cy="8.61" r="8.61" transform="translate(104.66 69.39)" fill="#d3232a"/></g></g><g transform="translate(-3153 -2778)" fill="#fff" stroke="#707070" stroke-width="1"><circle cx="17" cy="17" r="17" stroke="none"/><circle cx="17" cy="17" r="16.5" fill="none"/></g></g></svg>