<svg xmlns="http://www.w3.org/2000/svg" xmlns:xlink="http://www.w3.org/1999/xlink" width="216" height="256" viewBox="0 0 216 256"><defs><clipPath id="a"><rect width="216" height="256" rx="12" transform="translate(-3061 -2442)" fill="#fff" stroke="#707070" stroke-width="1"/></clipPath><clipPath id="b"><rect width="216" height="256" rx="12" transform="translate(-36.55 -43.48)" fill="none"/></clipPath></defs><g transform="translate(3061 2442)" clip-path="url(#a)"><g transform="translate(-3024.45 -2398.52)"><g clip-path="url(#b)"><path d="M169.98,100.03l.51-12.81-11.86,6.85Z" fill="none"/><path d="M158.06,79.39l-9.04-1.1-5.27,7.96,7.62,4,19.44-11.22.34-8.6-9.52.58Z" fill="none"/><path d="M169.32,44.41l36.19,62.69-7.73.46L163.32,47.88l-6,3.47,34.66,60-1.7,4-4.31-.52-34.66-60-6,3.47L179.77,118l-4.28,6.47L139.3,61.75a6.93,6.93,0,0,0-2.53,9.47l36,62.4L213,154.76l1.8-45.4L178.79,47A6.94,6.94,0,0,0,169.32,44.41Zm37.21,99.11-11.35-6L207,130.71Zm.83-21-19.44,11.22-7.62-4,5.27-8,9,1.1,3.57-8.38,9.52-.58Z" transform="translate(-36.55 -43.48)" fill="#f48798"/><path d="M44.81,187.8l30.44-17.57-7.6-35.64L27.48,157.78Z" fill="none"/><path d="M98.27,244.99l18.43-10.64-4.38-17.48-17.85,10.3Z" fill="none"/><rect width="34.66" height="20.8" transform="translate(53.324 70.81) rotate(-30)" fill="none"/><path d="M180.32,177.61l12.95,12.53,18.45-10.65L198.17,167.3Z" fill="none"/><path d="M269.58,210.67l-15,8.66L137.75,114,125.89,93.5l12-6.93-3.47-6-12,6.93-6.94-12-6,3.47,6.93,12-30,17.33-6.93-12-6,3.47,6.93,12-12,6.94,3.47,6,12-6.93,11.86,20.54,7,32.64-42.18,24.3-6.93-12-6,3.47,6.93,12-18,10.4,3.47,6,18-10.4,17.33,30-18,10.4,3.46,6,18-10.4,6.94,12,6-3.47-6.93-12,28.48-16.45,15.19,71.28-15,8.67,3.46,6L130,299.25l4,16.28,6-3.46q-1.83-8.24-3.64-16.47L155,284.83q2,8.16,3.92,16.31l6.87-4q-2.26-8-4.54-15.95L177,272.13l-3.47-6-14,8.1-10.5-42,43.5-25.11,31.09,30.08-14,8.1,3.46,6,15.75-9.09,11.89,11.64,6.54-3.7q-6.09-5.77-12.19-11.54l18.67-10.78,12.83,11.25,6.35-3.74L260,224.22l13.07-7.55ZM153.25,277.83l-18.43,10.65L131,270.66l17.85-10.31ZM111.8,213.71,81.36,231.28,64,201.26l40.17-23.19ZM89.87,114.3l30-17.33,10.4,18-30,17.33Zm42.87,91.39L119,157.59l22.7-13.1,34.77,36Zm97.08,27.93-12.95-12.53,17.85-10.31L248.27,223Z" transform="translate(-36.55 -43.48)" fill="#fff"/><path d="M82.44,114.11,96.19,162.2l43.72-25.23L105.14,101Z" fill="none"/></g></g></g></svg>