<svg xmlns="http://www.w3.org/2000/svg" xmlns:xlink="http://www.w3.org/1999/xlink" width="216" height="256" viewBox="0 0 216 256"><defs><clipPath id="a"><rect width="216" height="256" rx="12" transform="translate(-2779 -2769)" fill="#fff" stroke="#707070" stroke-width="1"/></clipPath><clipPath id="b"><rect width="215.5" height="256" rx="12" transform="translate(-5.52 -35.28)" fill="none"/></clipPath></defs><g transform="translate(2779 2769)" clip-path="url(#a)"><g transform="translate(-2772.48 -2733.72)"><g clip-path="url(#b)"><path d="M132.94,140.54,224.68,35.28,220.9,163.21l-88.82,18.27Q132.51,161,132.94,140.54Z" transform="translate(-5.52 -35.28)" fill="#fff"/><path d="M51.32,170.22l6.6-3.95,4.57,7.71-6.6,3.94Z" fill="#c67eb5"/><path d="M37.33,169.93l15.79-3.18,6.67,11.24-10.3,12.43Z" fill="#c67eb5"/><path d="M112.66,112.89A22.72,22.72,0,1,1,81.55,105a22.72,22.72,0,0,1,31.11,7.89Z" transform="translate(-5.52 -35.28)" fill="#c67eb5"/><path d="M77.65,99.64a29.34,29.34,0,1,0,40.11,10.2,29.34,29.34,0,0,0-40.11-10.2Zm14.22,4.13a5.91,5.91,0,1,1,.631,4.508,5.92,5.92,0,0,1-.631-4.508ZM67.3,118.46a5.93,5.93,0,1,1,.647,4.5,5.92,5.92,0,0,1-.647-4.5Zm2.87,19.84a5.92,5.92,0,1,1,8.12,2.06,6,6,0,0,1-8.12-2.06ZM93.42,146a5.93,5.93,0,1,1-.647-4.5,5.92,5.92,0,0,1,.647,4.5ZM106,147.41a5.91,5.91,0,1,1,2.727-3.641A5.94,5.94,0,0,1,106,147.41ZM85.31,112.54a5.91,5.91,0,1,1,2.7-3.658,5.94,5.94,0,0,1-2.7,3.658ZM118,131.34a5.92,5.92,0,1,1-.639-4.5,5.92,5.92,0,0,1,.639,4.5Zm-5-11.75a5.94,5.94,0,1,1,2.06-8.15,6,6,0,0,1-2.06,8.15Z" transform="translate(-5.52 -35.28)" fill="#fff"/><path d="M95.07,171.24l5.25-44.56a7.39,7.39,0,1,0-14.67-1.75L80.39,169.5Z" transform="translate(-5.52 -35.28)" fill="#c67eb5"/><path d="M130.27,139.02l-13.65,8.16-9.45-15.93,13.65-8.16Z" fill="#c67eb5"/><path d="M116.88,193.12l-9.6,5.74L92.74,174.35l9.6-5.74Z" fill="#c67eb5"/><path d="M54.82,133.62a22.72,22.72,0,1,1-31.11-7.91,22.72,22.72,0,0,1,31.11,7.91Z" transform="translate(-5.52 -35.28)" fill="#c67eb5"/><path d="M19.8,120.38a29.34,29.34,0,1,0,40.11,10.2,29.34,29.34,0,0,0-40.11-10.2ZM34,124.5a5.92,5.92,0,1,1,.639,4.5A5.92,5.92,0,0,1,34,124.5ZM9.46,139.19a5.91,5.91,0,1,1,.636,4.5,5.92,5.92,0,0,1-.636-4.5ZM12.32,159a5.93,5.93,0,1,1,8.12,2.07A6,6,0,0,1,12.32,159Zm23.25,7.74a16.472,16.472,0,1,0,0,.03Zm12.58,1.38a3.774,3.774,0,1,1,0,.03ZM27.46,133.28a5.91,5.91,0,1,1,2.732-3.645,5.94,5.94,0,0,1-2.732,3.645Zm32.67,18.8a5.91,5.91,0,1,1-.636-4.5,5.92,5.92,0,0,1,.636,4.5Zm-5-11.76a2.819,2.819,0,1,1,.05,0Z" transform="translate(-5.52 -35.28)" fill="#fff"/><path d="M95.89,123a3.78,3.78,0,1,1-5.18-1.32A3.78,3.78,0,0,1,95.89,123Z" transform="translate(-5.52 -35.28)" fill="#c67eb5"/><path d="M126.38,159.27,72.41,191.54,47.26,149.16l53.96-32.27Z" fill="#c67eb5"/><path d="M112.95,157.55,77.3,178.87l-16.62-28,35.66-21.32Z" fill="#c67eb5"/><path d="M159.22,139.63l-32.66,6.58-13.8-23.27,21.31-25.69Z" fill="#c67eb5"/><path d="M215.41,253.82l3.9-2.33-86.23-70.62-.08.04-7.22-12.17L81.83,195.02l7.23,12.17,20.8,109.74,3.91-2.33L104.2,204.11l2.44-1.45,56.79,82.24,2.47-1.48-45.21-89.17,2.49-1.49Z" fill="#c67eb5"/><path d="M83.63,168.28,39,139.6a7.416,7.416,0,1,0-8,12.49L68.62,176.3Z" transform="translate(-5.52 -35.28)" fill="#c67eb5"/><path d="M38,143.7a3.78,3.78,0,1,1-5.18-1.32A3.78,3.78,0,0,1,38,143.7Z" transform="translate(-5.52 -35.28)" fill="#c67eb5"/><path d="M215.45,253.89l3.9-2.33-30.12-24.67-7.66,4.58Z" fill="#c67eb5"/><path d="M142.61,254.76l20.86,30.21,2.47-1.48-16.6-32.75Z" fill="#c67eb5"/><path d="M102.64,278.67,109.9,317l3.91-2.34-3.52-40.57Z" fill="#c67eb5"/></g></g></g></svg>