<svg xmlns="http://www.w3.org/2000/svg" xmlns:xlink="http://www.w3.org/1999/xlink" width="216" height="256" viewBox="0 0 216 256"><defs><clipPath id="a"><rect width="216" height="256" rx="12" transform="translate(-2521 -2409)" fill="#fff" stroke="#707070" stroke-width="1"/></clipPath><clipPath id="b"><rect width="216" height="256" rx="12" transform="translate(-23.83 -60.85)" fill="none"/></clipPath></defs><g transform="translate(2521 2409)" clip-path="url(#a)"><g transform="translate(-2497.17 -2348.15)"><g clip-path="url(#b)"><path d="M43,213.91a3,3,0,0,0-4.1-1.06l-12.49,7.34a3,3,0,0,0-1.06,4.1l4.7,8a3,3,0,0,0,4.1,1.06L46.61,226a3,3,0,0,0,1.06-4.09Z" transform="translate(-23.83 -60.85)" fill="#fff"/><path d="M60.39,186.33,27.51,205.66a8.82,8.82,0,0,0-3.41,4.55l5-3,2.6,4.41-7.15,4.21c.17.32,0,.53.1.69l12.19,20.74c2.13,3.62,7,4.57,10.67,2.4l32.88-19.33a7.67,7.67,0,0,0,3-10.42l-12.2-20.74a8.07,8.07,0,0,0-10.8-2.84Z" transform="translate(-23.83 -60.85)" fill="#f58045"/><path d="M29.12,207.26l-5,3a8.59,8.59,0,0,0,.47,5.67l7.15-4.21Z" transform="translate(-23.83 -60.85)" fill="#f58045"/><path d="M94,262.12s.14-.13.13-.15L74.72,229c-2.17-3.68-7.15-4.63-11.15-2.28l-2.89,1.7c-4,2.35-5.77,7.28-3.61,11l19.37,32.94c2.16,3.68,7.22,4.33,11.21,2l2.72-1.59.18-.11,6.69-3.93c1.9-1.12,2.5-3,1.47-4.74l-.2-.33A3.59,3.59,0,0,0,94,262.12Z" transform="translate(-23.83 -60.85)" fill="#f58045"/><path d="M148.44,157.1a14.12,14.12,0,1,1-19.34-5,14.12,14.12,0,0,1,19.34,5Z" transform="translate(-23.83 -60.85)" fill="#fff"/><path d="M171.22,214a5.3,5.3,0,0,1-1.88,7.25l-.18.1a5.29,5.29,0,0,1-7.24-1.88L99.94,114a5.29,5.29,0,0,1,1.88-7.24l.18-.11a5.29,5.29,0,0,1,7.24,1.88Z" transform="translate(-23.83 -60.85)" fill="#f58045"/><path d="M43.61,185.19H62.75a7.74,7.74,0,0,1,7.74,7.74v40.73a7.73,7.73,0,0,1-7.73,7.73H43.61a7.73,7.73,0,0,1-7.73-7.73V192.92a7.73,7.73,0,0,1,7.73-7.73Z" transform="matrix(0.862, -0.507, 0.507, 0.862, -124.6, -4.47)" fill="#f58045"/><path d="M100.14,114.35s10.65,42.34-41.33,72.9l20.12,34.23s67.93-27.68,83.09-1.89Z" transform="translate(-23.83 -60.85)" fill="#fff"/><path d="M165.42,61.92c-.7,1.27-1.48,2.49-2.15,3.55s-1.43,2.16-2.29,3.4c-.75,1.07-1.55,2.2-2.39,3.32-.52.71-1.06,1.42-1.59,2.11l-.86,1.12c-1.88,2.41-3.89,4.85-6.13,7.44,1,.39,1.91.74,2.71,1.09l6.39,2.76-5,4.14c-1.95,1.62-3.91,3.19-5.82,4.66-2.14,1.65-4.12,3.1-6,4.44-1,.73-2.05,1.44-3.1,2.13a16.744,16.744,0,0,1-1.57,1l-.57.37c-.33.22-.67.44-1,.65-1.18.74-2.24,1.38-3.24,2s-2.13,1.22-3.37,1.83l-.58.29.34-.55c.74-1.17,1.51-2.26,2.17-3.17s1.43-1.94,2.28-3c.24-.32.49-.63.74-1l.43-.53c.39-.49.79-1,1.19-1.46.78-1,1.59-1.91,2.42-2.87,1.52-1.76,3.16-3.58,5-5.55l.37-.38-.29-.11c-.72-.26-1.44-.55-2.14-.84l-6.1-2.56,4.47-4.2c4-3.85,8.11-7.45,12.12-10.72l1.12-.89c.67-.54,1.37-1.1,2.07-1.63,1-.79,2-1.55,3.26-2.46s2.33-1.65,3.36-2.36,2.26-1.49,3.51-2.22l.57-.34Z" transform="translate(-23.83 -60.85)" fill="#fff"/><path d="M129.33,107.78c.68-1.09,1.41-2.13,2.15-3.16s1.51-2,2.28-3c.38-.5.78-1,1.17-1.48s.79-1,1.19-1.46c.79-1,1.61-1.92,2.42-2.86,1.63-1.9,3.31-3.74,5-5.55.18-.19.37-.38.55-.58l-.54-.2c-.72-.26-1.44-.54-2.14-.84l-5.84-2.45,4.28-4.08c3.89-3.71,7.91-7.3,12.11-10.71,1.06-.84,2.1-1.7,3.18-2.52s2.16-1.64,3.26-2.45,2.22-1.59,3.35-2.36,2.29-1.51,3.5-2.22c-.68,1.22-1.41,2.38-2.15,3.54s-1.51,2.28-2.29,3.4-1.57,2.22-2.38,3.31-1.64,2.15-2.46,3.24c-2,2.6-4.13,5.13-6.28,7.62,1,.37,2,.75,2.94,1.17l6.12,2.65L154,90.71q-2.85,2.39-5.81,4.66-3,2.28-6,4.44c-1,.71-2.05,1.43-3.1,2.12a16.744,16.744,0,0,1-1.57,1l-1.58,1c-1.07.67-2.15,1.32-3.24,2s-2.21,1.26-3.36,1.83m-1,.9,1.16-.57c1.24-.62,2.4-1.28,3.38-1.85s2.07-1.23,3.25-2l1-.65.57-.37c.53-.34,1-.68,1.58-1,1.05-.69,2.06-1.4,3.1-2.13,1.91-1.34,3.88-2.79,6-4.44,1.91-1.48,3.87-3,5.83-4.67L159,87l.45-.38-.54-.23-6.12-2.65c-.74-.32-1.54-.64-2.47-1,2.17-2.53,4.13-4.9,6-7.25.29-.38.57-.76.86-1.13.53-.69,1.08-1.4,1.6-2.12.83-1.11,1.64-2.25,2.39-3.31.86-1.25,1.61-2.37,2.29-3.41s1.46-2.29,2.16-3.56l.65-1.16-1.15.67c-1.25.73-2.47,1.54-3.51,2.23s-2.14,1.48-3.36,2.37-2.26,1.67-3.27,2.46c-.7.53-1.4,1.09-2.08,1.63l-1.11.89c-4,3.27-8.1,6.88-12.13,10.72l-4.29,4.09-.4.38.51.22L141.29,89c.7.29,1.43.58,2.15.84h0l-.17.18c-1.86,2-3.5,3.8-5,5.56-.84,1-1.65,1.91-2.43,2.87-.41.5-.81,1-1.19,1.47l-.43.53-.75,1c-.85,1.09-1.59,2.09-2.28,3s-1.43,2-2.17,3.18l-.69,1.09Z" transform="translate(-23.83 -60.85)" fill="#fff"/><path d="M208.56,111.71c-.92,1.11-1.91,2.17-2.77,3.09s-1.8,1.86-2.88,2.92c-.94.91-1.93,1.87-3,2.81-.64.61-1.31,1.21-2,1.79l-1.05.94c-2.29,2-4.71,4-7.39,6.18.94.58,1.73,1.08,2.46,1.57l5.77,3.89-5.66,3.15c-2.22,1.23-4.44,2.41-6.59,3.51-2.41,1.22-4.61,2.29-6.74,3.25-1.15.52-2.28,1-3.44,1.52-.57.25-1.15.5-1.74.73l-.62.25-1.13.46c-1.29.51-2.45.94-3.55,1.33s-2.32.8-3.65,1.18l-.62.18.44-.47c.94-1,1.9-2,2.71-2.72s1.77-1.64,2.8-2.56l.91-.79.52-.45c.47-.41,1-.82,1.44-1.22.94-.79,1.91-1.57,2.91-2.37,1.82-1.45,3.77-2.93,6-4.53l.43-.3-.26-.16c-.66-.39-1.32-.8-2-1.22L174.42,130l5.2-3.38c4.67-3,9.35-5.82,13.89-8.29l1.26-.67c.76-.4,1.55-.83,2.34-1.22,1.14-.59,2.29-1.15,3.66-1.81s2.59-1.2,3.74-1.7,2.49-1,3.85-1.54l.63-.22Z" transform="translate(-23.83 -60.85)" fill="#fff"/><path d="M164.61,150.11c.88-1,1.79-1.83,2.7-2.71s1.86-1.72,2.8-2.56c.47-.42.95-.82,1.43-1.23s1-.82,1.43-1.22c1-.81,1.94-1.59,2.91-2.37,2-1.56,4-3.06,6-4.52l.65-.47-.5-.29c-.66-.4-1.31-.8-2-1.23L174.76,130l5-3.23c4.51-2.92,9.13-5.7,13.88-8.28,1.2-.63,2.38-1.28,3.59-1.89s2.43-1.21,3.66-1.8,2.47-1.15,3.73-1.7,2.53-1.07,3.84-1.54c-.89,1.07-1.82,2.08-2.76,3.08s-1.91,2-2.88,2.92-1.95,1.89-2.95,2.81-2,1.82-3,2.73c-2.48,2.18-5,4.29-7.59,6.33.9.55,1.8,1.11,2.68,1.7l5.52,3.73-5.4,3q-3.25,1.81-6.58,3.51c-2.22,1.12-4.46,2.21-6.73,3.25-1.14.51-2.28,1-3.44,1.51-.57.25-1.15.5-1.73.73l-1.75.71c-1.17.46-2.35.91-3.55,1.33s-2.4.83-3.64,1.18m-1.15.7,1.25-.35c1.34-.38,2.6-.82,3.66-1.19s2.26-.82,3.56-1.33l1.13-.46.62-.25,1.75-.73c1.16-.49,2.28-1,3.43-1.52,2.14-1,4.34-2,6.75-3.26,2.16-1.1,4.38-2.28,6.6-3.51l5.4-3,.51-.28-.49-.33-5.52-3.73c-.67-.46-1.4-.92-2.25-1.44,2.6-2.08,5-4,7.2-6l1.05-1c.65-.58,1.32-1.18,2-1.79,1-.94,2-1.9,2.95-2.81,1.08-1.07,2-2,2.89-2.93s1.85-2,2.78-3.1l.85-1-1.25.45c-1.37.49-2.71,1-3.86,1.55s-2.38,1-3.75,1.7-2.52,1.22-3.66,1.81c-.79.39-1.58.81-2.34,1.22l-1.26.67c-4.55,2.47-9.23,5.26-13.91,8.3l-5,3.22-.47.31.47.3,5.28,3.49c.65.42,1.3.83,2,1.23h0l-.2.15c-2.19,1.59-4.14,3.08-6,4.53-1,.8-2,1.58-2.92,2.38-.49.4-1,.8-1.44,1.22l-.52.44-.91.79c-1,.92-2,1.76-2.8,2.57s-1.78,1.7-2.72,2.72l-.89.95Z" transform="translate(-23.83 -60.85)" fill="#fff"/><path d="M236.38,187.43c-1.33.58-2.69,1.09-3.87,1.51s-2.44.86-3.88,1.32c-1.25.39-2.57.8-3.91,1.18-.85.26-1.71.49-2.55.72l-1.37.37c-3,.77-6,1.49-9.38,2.2.59.93,1.07,1.73,1.49,2.5l3.41,6.07-6.47.27c-2.54.11-5,.16-7.46.17-2.7,0-5.15,0-7.49-.12-1.26-.05-2.49-.1-3.75-.19-.63,0-1.25-.07-1.88-.13l-.67-.05-1.21-.1c-1.39-.13-2.62-.26-3.77-.41s-2.44-.32-3.8-.58l-.63-.13.6-.22c1.31-.49,2.58-.88,3.65-1.21s2.31-.67,3.65-1l1.17-.3.66-.16c.61-.16,1.22-.3,1.83-.44,1.21-.29,2.43-.55,3.67-.81,2.28-.48,4.69-.93,7.36-1.37l.52-.08-.16-.26c-.41-.64-.81-1.3-1.2-2l-3.29-5.73,6.16-.68c5.54-.61,11-1,16.13-1.16h8.15c1.52,0,2.85.09,4.1.16s2.7.18,4.14.36l.66.08Z" transform="translate(-23.83 -60.85)" fill="#fff"/><path d="M179.86,202c1.2-.45,2.42-.84,3.63-1.21s2.43-.7,3.65-1c.6-.17,1.21-.31,1.82-.47l1.83-.43c1.22-.3,2.45-.56,3.67-.81,2.44-.52,4.9-1,7.35-1.37l.79-.12-.31-.49c-.41-.65-.81-1.3-1.19-2l-3.16-5.49,5.89-.65c5.34-.59,10.71-1,16.12-1.16,1.35,0,2.7-.07,4.06-.07h4.08c1.36,0,2.72.08,4.09.16s2.74.18,4.13.36c-1.28.55-2.57,1-3.86,1.5s-2.58.9-3.88,1.32-2.6.81-3.9,1.18-2.61.72-3.92,1.09c-3.19.83-6.4,1.57-9.62,2.24.56.89,1.11,1.8,1.63,2.72l3.25,5.81-6.17.26q-3.72.15-7.45.17c-2.49,0-5,0-7.48-.12-1.25-.05-2.5-.11-3.75-.19-.62,0-1.25-.07-1.88-.13s-1.28-.1-1.87-.1c-1.26-.12-2.51-.25-3.77-.41s-2.52-.34-3.78-.58m-1.34.11,1.27.24c1.36.27,2.69.45,3.8.59s2.39.28,3.78.41l1.21.1h.67c.64.06,1.26.09,1.89.13,1.26.09,2.49.14,3.76.19,2.33.09,4.78.14,7.49.13,2.42,0,4.93-.07,7.46-.18l6.18-.25h.59l-.29-.51-3.26-5.82c-.39-.71-.83-1.44-1.36-2.29,3.26-.69,6.25-1.39,9.13-2.14l1.38-.38c.84-.22,1.7-.46,2.55-.71,1.34-.38,2.67-.8,3.91-1.19,1.44-.46,2.72-.89,3.89-1.31s2.55-.94,3.88-1.52l1.22-.53-1.32-.16c-1.44-.18-2.9-.28-4.14-.36s-2.6-.12-4.11-.16-2.81,0-4.09,0h-4.07c-5.18.16-10.61.55-16.15,1.16l-5.89.65-.55.06.28.48,3.16,5.49c.38.67.78,1.33,1.19,2h-.25c-2.68.44-5.09.89-7.37,1.37-1.24.26-2.46.52-3.67.81l-1.84.44-.66.17c-.39.1-.78.19-1.17.3-1.34.35-2.53.69-3.66,1s-2.34.72-3.65,1.21l-1.21.45Z" transform="translate(-23.83 -60.85)" fill="#fff"/></g></g></g></svg>