<svg xmlns="http://www.w3.org/2000/svg" xmlns:xlink="http://www.w3.org/1999/xlink" width="216" height="256" viewBox="0 0 216 256"><defs><clipPath id="a"><rect width="216" height="256" rx="12" transform="translate(-2001 -2284)" fill="#fff" stroke="#707070" stroke-width="1"/></clipPath><clipPath id="b"><rect width="216.19" height="256" rx="12" transform="translate(-13.2 -77.39)" fill="none"/></clipPath></defs><g transform="translate(2001 2284)" clip-path="url(#a)"><g transform="translate(-1987.8 -2206.61)"><g clip-path="url(#b)"><path d="M38.8,205.16l-1.4.81-2.28-2.82a.69.69,0,0,0-.32-.21c-.55-.18-13.49-4.25-16.82-4.5a3.08,3.08,0,0,0-2.74.95A4.38,4.38,0,0,0,14.7,203a23.48,23.48,0,0,1-1.26,7.67c-1,3.07,1.61,5,3.16,5.63a.61.61,0,0,0,.3,0l4.51-.47a.65.65,0,0,0,.53-.37c.77-1.61.14-7.28-.22-10l13.12,8.34a.66.66,0,0,0,.68,0l6.23-3.6a.65.65,0,0,0,.24-.89l-2.29-4a.66.66,0,0,0-.9-.15Z" transform="translate(-13.2 -77.39)" fill="#6f66ae"/><path d="M182.46,115.52a.79.79,0,0,0-.86-.13L111.34,156,41.07,196.52a.82.82,0,0,0-.32.81L42,212.08c.08,1,1.06,1.88,1.67,1.53l75.73-43.72,75.73-43.73c.61-.35.32-1.65-.49-2.21Z" transform="translate(-13.2 -77.39)" fill="#6f66ae"/><path d="M181.6,115.39a.79.79,0,0,1,.86.13L194.62,124c.81.56,1.1,1.86.49,2.21l-75.73,43.73L43.65,213.61c-.61.35-1.59-.55-1.67-1.53l-1.23-14.75a.82.82,0,0,1,.32-.81L111.34,156l70.26-40.56m-1.42-2.46L109.92,153.5,39.65,194.06a3.64,3.64,0,0,0-1.73,3.5l1.23,14.75a4.79,4.79,0,0,0,2.47,3.78,3.56,3.56,0,0,0,3.45,0l75.73-43.72,75.73-43.73a3.55,3.55,0,0,0,1.74-3,4.76,4.76,0,0,0-2-4l-12.16-8.44a3.62,3.62,0,0,0-3.9-.25Z" transform="translate(-13.2 -77.39)" fill="#6f66ae"/><rect width="158.54" height="64.91" rx="0.58" transform="translate(6.888 79.059) rotate(-30)" fill="#fff"/><path d="M47.63,204.15l4.69,8.13a.43.43,0,0,0,.59.16L189.47,133.6a.43.43,0,0,0,.15-.59l-4.69-8.13Z" transform="translate(-13.2 -77.39)" fill="#fff"/><rect width="17.31" height="8.55" transform="translate(188.493 46.583) rotate(-30)" fill="#6f66ae"/><rect width="7.72" height="15.48" rx="1.54" transform="translate(198.389 36.87) rotate(-30)" fill="#6f66ae"/><path d="M245.64,151.06c-6.64-4.87-18-12.73-23.29-18.36s-17.61-14.14-17.61-14.14l-86.25,49.79L32.25,218.14s1.22,14.9,3.44,22.32,3.36,21.17,4.25,29.36,12.11,45.52,18.61,56.77,13,9,13,9l107.61-62.13,107.61-62.13s5.21-4.51-1.28-15.77S252.29,155.92,245.64,151.06Z" transform="translate(-13.2 -77.39)" fill="#6f66ae"/><path d="M235.63,159.24h0a2.53,2.53,0,0,1-2.84-.23l-4.29-3.39a2.55,2.55,0,0,0-2.84-.23l-86,49.65-86,49.64a2.52,2.52,0,0,0-1.22,2.57l.79,5.41A2.55,2.55,0,0,1,52,265.24h0a2.52,2.52,0,0,0-1.25,2.32c.44,9.7,13.09,37.56,17.1,46.17a2.56,2.56,0,0,0,3.6,1.19l98.72-57,98.72-57a2.57,2.57,0,0,0,.77-3.71c-5.45-7.79-23.26-32.67-31.44-37.9a2.54,2.54,0,0,0-2.59-.07Z" transform="translate(-13.2 -77.39)" fill="#534a9e"/><rect width="11.95" height="10.38" rx="2.14" transform="translate(43.596 177.201) rotate(-30)" fill="#fff"/><path d="M65.66,249.47l-7.39,4.27a1.62,1.62,0,0,0-.74,2.13l2.16,3.73a13.11,13.11,0,0,0,10.34-6l-2.15-3.73a1.61,1.61,0,0,0-2.22-.4Z" transform="translate(-13.2 -77.39)" fill="#fff"/><rect width="11.95" height="10.38" rx="2.14" transform="translate(57.295 169.3) rotate(-30)" fill="#fff"/><path d="M79.36,241.56,72,245.83a1.62,1.62,0,0,0-.74,2.13l2.16,3.73A11.87,11.87,0,0,0,79.28,250a12,12,0,0,0,4.45-4.23L81.58,242a1.61,1.61,0,0,0-2.22-.44Z" transform="translate(-13.2 -77.39)" fill="#fff"/><rect width="11.95" height="10.38" rx="2.14" transform="translate(70.995 161.39) rotate(-30)" fill="#fff"/><path d="M93.06,233.65l-7.39,4.27a1.62,1.62,0,0,0-.74,2.14l2.16,3.72A11.87,11.87,0,0,0,93,242a12,12,0,0,0,4.45-4.23l-2.15-3.73a1.61,1.61,0,0,0-2.24-.39Z" transform="translate(-13.2 -77.39)" fill="#fff"/><rect width="11.95" height="10.38" rx="2.14" transform="translate(84.695 153.48) rotate(-30)" fill="#fff"/><path d="M106.76,225.74,99.37,230a1.62,1.62,0,0,0-.74,2.14l2.16,3.72a11.87,11.87,0,0,0,5.89-1.74,12.11,12.11,0,0,0,4.46-4.23L109,226.17a1.61,1.61,0,0,0-2.24-.43Z" transform="translate(-13.2 -77.39)" fill="#fff"/><rect width="11.95" height="10.38" rx="2.14" transform="translate(98.394 145.569) rotate(-30)" fill="#fff"/><path d="M120.46,217.83l-7.39,4.27a1.62,1.62,0,0,0-.74,2.14l2.16,3.72a11.87,11.87,0,0,0,5.89-1.74,12.11,12.11,0,0,0,4.46-4.23l-2.16-3.73a1.6,1.6,0,0,0-2.22-.43Z" transform="translate(-13.2 -77.39)" fill="#fff"/><rect width="11.95" height="10.38" rx="2.14" transform="translate(112.094 137.659) rotate(-30)" fill="#fff"/><path d="M134.16,209.92l-7.39,4.27a1.62,1.62,0,0,0-.74,2.14l2.16,3.72a11.87,11.87,0,0,0,5.89-1.74,12.11,12.11,0,0,0,4.46-4.23l-2.16-3.73a1.61,1.61,0,0,0-2.22-.43Z" transform="translate(-13.2 -77.39)" fill="#fff"/><rect width="11.95" height="10.38" rx="2.14" transform="translate(125.793 129.749) rotate(-30)" fill="#fff"/><path d="M147.86,202l-7.39,4.27a1.61,1.61,0,0,0-.73,2.14l2.15,3.72a11.87,11.87,0,0,0,5.89-1.74,12.11,12.11,0,0,0,4.46-4.23l-2.16-3.73a1.61,1.61,0,0,0-2.22-.43Z" transform="translate(-13.2 -77.39)" fill="#fff"/><rect width="11.95" height="10.38" rx="2.14" transform="translate(139.503 121.839) rotate(-30)" fill="#fff"/><path d="M161.56,194.1l-7.39,4.27a1.61,1.61,0,0,0-.73,2.14l2.15,3.72a11.87,11.87,0,0,0,5.89-1.74,12.11,12.11,0,0,0,4.46-4.23l-2.16-3.73a1.61,1.61,0,0,0-2.22-.43Z" transform="translate(-13.2 -77.39)" fill="#fff"/><rect width="11.95" height="10.38" rx="2.14" transform="translate(153.203 113.928) rotate(-30)" fill="#fff"/><path d="M175.26,186.19l-7.39,4.27a1.61,1.61,0,0,0-.73,2.14l2.15,3.72a11.87,11.87,0,0,0,5.89-1.74,12.11,12.11,0,0,0,4.46-4.23l-2.16-3.73a1.61,1.61,0,0,0-2.22-.43Z" transform="translate(-13.2 -77.39)" fill="#fff"/><rect width="11.95" height="10.38" rx="2.14" transform="translate(166.902 106.018) rotate(-30)" fill="#fff"/><path d="M189,178.28l-7.39,4.27a1.61,1.61,0,0,0-.73,2.14l2.15,3.72a12,12,0,0,0,5.89-1.73,12.2,12.2,0,0,0,4.46-4.24l-2.16-3.73a1.61,1.61,0,0,0-2.22-.43Z" transform="translate(-13.2 -77.39)" fill="#fff"/><rect width="11.95" height="10.38" rx="2.14" transform="translate(180.602 98.108) rotate(-30)" fill="#fff"/><path d="M202.66,170.37l-7.39,4.27a1.61,1.61,0,0,0-.73,2.14l2.15,3.72a12,12,0,0,0,5.89-1.73,12.2,12.2,0,0,0,4.46-4.24l-2.16-3.73a1.61,1.61,0,0,0-2.22-.43Z" transform="translate(-13.2 -77.39)" fill="#fff"/><rect width="11.95" height="10.38" rx="2.14" transform="translate(194.301 90.197) rotate(-30)" fill="#fff"/><path d="M216.36,162.46,209,166.73a1.61,1.61,0,0,0-.73,2.14l2.15,3.73a13.12,13.12,0,0,0,10.35-6l-2.16-3.73a1.61,1.61,0,0,0-2.25-.41Z" transform="translate(-13.2 -77.39)" fill="#fff"/><rect width="11.95" height="10.38" rx="2.14" transform="translate(64.708 213.785) rotate(-30)" fill="#fff"/><path d="M86.78,286.05l-7.39,4.26a1.62,1.62,0,0,0-.74,2.14l2.15,3.73a13.11,13.11,0,0,0,10.35-6L89,286.48a1.61,1.61,0,0,0-2.22-.43Z" transform="translate(-13.2 -77.39)" fill="#fff"/><rect width="11.95" height="10.38" rx="2.14" transform="translate(78.407 205.875) rotate(-30)" fill="#fff"/><path d="M100.48,278.14l-7.39,4.26a1.62,1.62,0,0,0-.74,2.14l2.15,3.73a13.11,13.11,0,0,0,10.35-6l-2.15-3.73A1.61,1.61,0,0,0,100.48,278.14Z" transform="translate(-13.2 -77.39)" fill="#fff"/><rect width="11.95" height="10.38" rx="2.14" transform="translate(92.115 197.969) rotate(-30)" fill="#fff"/><path d="M114.18,270.23l-7.39,4.26a1.62,1.62,0,0,0-.74,2.14l2.15,3.73a13.11,13.11,0,0,0,10.35-6l-2.15-3.73a1.61,1.61,0,0,0-2.22-.4Z" transform="translate(-13.2 -77.39)" fill="#fff"/><rect width="11.95" height="10.38" rx="2.14" transform="translate(105.815 190.059) rotate(-30)" fill="#fff"/><path d="M127.88,262.32l-7.39,4.26a1.62,1.62,0,0,0-.74,2.14l2.15,3.73a13.11,13.11,0,0,0,10.35-6l-2.15-3.73a1.61,1.61,0,0,0-2.22-.4Z" transform="translate(-13.2 -77.39)" fill="#fff"/><rect width="11.95" height="10.38" rx="2.14" transform="translate(119.515 182.149) rotate(-30)" fill="#fff"/><path d="M141.58,254.41l-7.39,4.27a1.6,1.6,0,0,0-.74,2.13l2.15,3.73a13.11,13.11,0,0,0,10.35-6l-2.15-3.73A1.61,1.61,0,0,0,141.58,254.41Z" transform="translate(-13.2 -77.39)" fill="#fff"/><rect width="11.95" height="10.38" rx="2.14" transform="translate(133.214 174.238) rotate(-30)" fill="#fff"/><path d="M155.28,246.5l-7.39,4.27a1.6,1.6,0,0,0-.74,2.13l2.16,3.73a13.11,13.11,0,0,0,10.34-6l-2.15-3.73a1.61,1.61,0,0,0-2.22-.4Z" transform="translate(-13.2 -77.39)" fill="#fff"/><rect width="11.95" height="10.38" rx="2.14" transform="translate(146.924 166.328) rotate(-30)" fill="#fff"/><path d="M169,238.59l-7.39,4.27a1.61,1.61,0,0,0-.74,2.13l2.16,3.73a13.11,13.11,0,0,0,10.34-6L171.2,239a1.61,1.61,0,0,0-2.2-.41Z" transform="translate(-13.2 -77.39)" fill="#fff"/><rect width="11.95" height="10.38" rx="2.14" transform="translate(160.624 158.418) rotate(-30)" fill="#fff"/><path d="M182.68,230.68,175.29,235a1.62,1.62,0,0,0-.74,2.13l2.16,3.73a13.11,13.11,0,0,0,10.34-6l-2.15-3.73a1.61,1.61,0,0,0-2.22-.45Z" transform="translate(-13.2 -77.39)" fill="#fff"/><rect width="11.95" height="10.38" rx="2.14" transform="translate(174.323 150.508) rotate(-30)" fill="#fff"/><path d="M196.38,222.77,189,227a1.62,1.62,0,0,0-.74,2.13l2.16,3.73a13.11,13.11,0,0,0,10.34-6l-2.15-3.73A1.61,1.61,0,0,0,196.38,222.77Z" transform="translate(-13.2 -77.39)" fill="#fff"/><rect width="11.95" height="10.38" rx="2.14" transform="translate(188.023 142.597) rotate(-30)" fill="#fff"/><path d="M210.08,214.86l-7.39,4.27a1.62,1.62,0,0,0-.74,2.13l2.16,3.73a13.11,13.11,0,0,0,10.34-6l-2.15-3.73a1.61,1.61,0,0,0-2.22-.4Z" transform="translate(-13.2 -77.39)" fill="#fff"/><rect width="11.95" height="10.38" rx="2.14" transform="translate(201.722 134.687) rotate(-30)" fill="#fff"/><path d="M223.78,207l-7.39,4.27a1.62,1.62,0,0,0-.74,2.13l2.16,3.73a13.11,13.11,0,0,0,10.34-6L226,207.38a1.61,1.61,0,0,0-2.22-.38Z" transform="translate(-13.2 -77.39)" fill="#fff"/><rect width="11.95" height="10.38" rx="2.14" transform="translate(215.422 126.777) rotate(-30)" fill="#fff"/><path d="M237.48,199l-7.39,4.27a1.62,1.62,0,0,0-.74,2.13l2.16,3.73a13.11,13.11,0,0,0,10.34-6l-2.15-3.73a1.61,1.61,0,0,0-2.22-.4Z" transform="translate(-13.2 -77.39)" fill="#fff"/><rect width="11.95" height="10.38" rx="2.14" transform="translate(77.089 190.39) rotate(-30)" fill="#fff"/><path d="M99.15,262.65l-7.39,4.26a1.63,1.63,0,0,0-.74,2.14l2.16,3.73a13.15,13.15,0,0,0,10.35-6l-2.16-3.73A1.61,1.61,0,0,0,99.15,262.65Z" transform="translate(-13.2 -77.39)" fill="#fff"/><rect width="11.95" height="10.38" rx="2.14" transform="translate(90.789 182.48) rotate(-30)" fill="#fff"/><path d="M112.85,254.74,105.46,259a1.63,1.63,0,0,0-.74,2.14l2.16,3.73a13.15,13.15,0,0,0,10.35-6l-2.16-3.73a1.6,1.6,0,0,0-2.22-.4Z" transform="translate(-13.2 -77.39)" fill="#fff"/><rect width="11.95" height="10.38" rx="2.14" transform="translate(104.488 174.569) rotate(-30)" fill="#fff"/><path d="M126.55,246.83l-7.39,4.26a1.63,1.63,0,0,0-.74,2.14l2.16,3.73a13.15,13.15,0,0,0,10.35-6l-2.16-3.73a1.6,1.6,0,0,0-2.22-.4Z" transform="translate(-13.2 -77.39)" fill="#fff"/><rect width="11.95" height="10.38" rx="2.14" transform="translate(118.188 166.659) rotate(-30)" fill="#fff"/><path d="M140.25,238.92l-7.39,4.26a1.61,1.61,0,0,0-.73,2.14l2.15,3.73a13.15,13.15,0,0,0,10.35-6l-2.16-3.73a1.6,1.6,0,0,0-2.22-.4Z" transform="translate(-13.2 -77.39)" fill="#fff"/><rect width="11.95" height="10.38" rx="2.14" transform="translate(131.887 158.749) rotate(-30)" fill="#fff"/><path d="M154,231l-7.39,4.27a1.6,1.6,0,0,0-.73,2.13l2.15,3.73a13.15,13.15,0,0,0,10.35-6l-2.16-3.73A1.6,1.6,0,0,0,154,231Z" transform="translate(-13.2 -77.39)" fill="#fff"/><rect width="11.95" height="10.38" rx="2.14" transform="translate(145.587 150.838) rotate(-30)" fill="#fff"/><path d="M167.65,223.1l-7.39,4.27a1.6,1.6,0,0,0-.73,2.13l2.15,3.73a13.15,13.15,0,0,0,10.35-6l-2.16-3.73a1.6,1.6,0,0,0-2.22-.4Z" transform="translate(-13.2 -77.39)" fill="#fff"/><rect width="11.95" height="10.38" rx="2.14" transform="translate(159.287 142.928) rotate(-30)" fill="#fff"/><path d="M181.35,215.19,174,219.46a1.6,1.6,0,0,0-.73,2.13l2.15,3.73a13.15,13.15,0,0,0,10.35-6l-2.16-3.73a1.6,1.6,0,0,0-2.26-.4Z" transform="translate(-13.2 -77.39)" fill="#fff"/><rect width="11.95" height="10.38" rx="2.14" transform="translate(172.986 135.018) rotate(-30)" fill="#fff"/><path d="M195.05,207.28l-7.39,4.27a1.6,1.6,0,0,0-.73,2.13l2.15,3.73a13.148,13.148,0,0,0,10.35-5.97l-2.16-3.73a1.6,1.6,0,0,0-2.22-.43Z" transform="translate(-13.2 -77.39)" fill="#fff"/><rect width="11.95" height="10.38" rx="2.14" transform="translate(186.686 127.107) rotate(-30)" fill="#fff"/><path d="M208.75,199.37l-7.39,4.27a1.6,1.6,0,0,0-.73,2.13l2.15,3.73a13.148,13.148,0,0,0,10.35-5.97L211,199.8a1.6,1.6,0,0,0-2.25-.43Z" transform="translate(-13.2 -77.39)" fill="#fff"/><rect width="11.95" height="10.38" rx="2.14" transform="translate(200.386 119.197) rotate(-30)" fill="#fff"/><path d="M222.45,191.46l-7.39,4.27a1.6,1.6,0,0,0-.73,2.13l2.15,3.73a13.15,13.15,0,0,0,10.35-6l-2.16-3.73a1.6,1.6,0,0,0-2.22-.4Z" transform="translate(-13.2 -77.39)" fill="#fff"/><rect width="11.95" height="10.38" rx="2.14" transform="translate(214.085 111.287) rotate(-30)" fill="#fff"/><path d="M236.15,183.55l-7.39,4.27A1.6,1.6,0,0,0,228,190l2.15,3.73a13.15,13.15,0,0,0,10.35-6L238.37,184a1.6,1.6,0,0,0-2.22-.45Z" transform="translate(-13.2 -77.39)" fill="#fff"/><rect width="11.95" height="10.38" rx="2.14" transform="translate(227.785 103.377) rotate(-30)" fill="#fff"/><path d="M249.86,175.64l-7.4,4.27a1.6,1.6,0,0,0-.73,2.13l2.15,3.73a13.15,13.15,0,0,0,10.35-6l-2.16-3.73a1.59,1.59,0,0,0-2.21-.4Z" transform="translate(-13.2 -77.39)" fill="#fff"/><rect width="11.95" height="10.38" rx="2.14" transform="translate(40.558 195.218) rotate(-30)" fill="#fff"/><path d="M62.62,267.48l-7.39,4.27a1.61,1.61,0,0,0-.73,2.14l2.15,3.72a11.87,11.87,0,0,0,5.89-1.74A12,12,0,0,0,67,271.64l-2.16-3.73a1.6,1.6,0,0,0-2.22-.43Z" transform="translate(-13.2 -77.39)" fill="#fff"/><rect width="11.95" height="10.38" rx="2.14" transform="translate(54.8 186.999) rotate(-30)" fill="#fff"/><path d="M76.86,259.26l-7.39,4.27a1.62,1.62,0,0,0-.74,2.13l2.16,3.73a13.147,13.147,0,0,0,10.35-5.97l-2.16-3.73a1.61,1.61,0,0,0-2.22-.43Z" transform="translate(-13.2 -77.39)" fill="#fff"/><rect width="11.95" height="10.38" rx="2.14" transform="translate(69.042 178.77) rotate(-30)" fill="#fff"/><path d="M91.1,251l-7.39,4.27a1.61,1.61,0,0,0-.74,2.13l2.15,3.73a13.11,13.11,0,0,0,10.35-6l-2.15-3.73A1.61,1.61,0,0,0,91.1,251Z" transform="translate(-13.2 -77.39)" fill="#fff"/><rect width="11.95" height="10.38" rx="2.14" transform="translate(83.266 170.556) rotate(-30)" fill="#fff"/><path d="M105.34,242.82,98,247.09a1.6,1.6,0,0,0-.74,2.13l2.1,3.78a13.11,13.11,0,0,0,10.35-6l-2.15-3.73a1.61,1.61,0,0,0-2.22-.45Z" transform="translate(-13.2 -77.39)" fill="#fff"/><rect width="11.95" height="10.38" rx="2.14" transform="translate(97.508 162.338) rotate(-30)" fill="#fff"/><path d="M119.58,234.6l-7.39,4.27a1.6,1.6,0,0,0-.74,2.13l2.15,3.73a13.11,13.11,0,0,0,10.35-6L121.8,235a1.61,1.61,0,0,0-2.22-.4Z" transform="translate(-13.2 -77.39)" fill="#fff"/><rect width="11.95" height="10.38" rx="2.14" transform="translate(111.751 154.119) rotate(-30)" fill="#fff"/><path d="M133.81,226.38l-7.39,4.27a1.6,1.6,0,0,0-.73,2.13l2.15,3.73a13.15,13.15,0,0,0,10.35-6l-2.19-3.7a1.6,1.6,0,0,0-2.19-.43Z" transform="translate(-13.2 -77.39)" fill="#fff"/><rect width="11.95" height="10.38" rx="2.14" transform="translate(125.993 145.9) rotate(-30)" fill="#fff"/><path d="M148.05,218.16l-7.39,4.27a1.62,1.62,0,0,0-.74,2.13l2.16,3.73a13.15,13.15,0,0,0,10.35-6l-2.16-3.73a1.61,1.61,0,0,0-2.22-.4Z" transform="translate(-13.2 -77.39)" fill="#fff"/><rect width="11.95" height="10.38" rx="2.14" transform="translate(140.225 137.671) rotate(-30)" fill="#fff"/><path d="M162.29,209.94l-7.39,4.27a1.6,1.6,0,0,0-.74,2.13l2.15,3.73a13.11,13.11,0,0,0,10.35-6l-2.15-3.73a1.61,1.61,0,0,0-2.22-.4Z" transform="translate(-13.2 -77.39)" fill="#fff"/><rect width="11.95" height="10.38" rx="2.14" transform="translate(154.459 129.458) rotate(-30)" fill="#fff"/><path d="M176.53,201.72,169.14,206a1.6,1.6,0,0,0-.74,2.13l2.15,3.73a13.11,13.11,0,0,0,10.35-6l-2.15-3.73a1.61,1.61,0,0,0-2.22-.41Z" transform="translate(-13.2 -77.39)" fill="#fff"/><rect width="11.95" height="10.38" rx="2.14" transform="translate(168.701 121.239) rotate(-30)" fill="#fff"/><path d="M190.77,193.5l-7.39,4.26a1.61,1.61,0,0,0-.74,2.14l2.15,3.73a13.11,13.11,0,0,0,10.35-6l-2.14-3.7A1.61,1.61,0,0,0,190.77,193.5Z" transform="translate(-13.2 -77.39)" fill="#fff"/><rect width="11.95" height="10.38" rx="2.14" transform="translate(182.943 113.02) rotate(-30)" fill="#fff"/><path d="M205,185.28l-7.39,4.26a1.61,1.61,0,0,0-.73,2.14l2.15,3.73a13.15,13.15,0,0,0,10.35-6l-2.16-3.73a1.6,1.6,0,0,0-2.22-.4Z" transform="translate(-13.2 -77.39)" fill="#fff"/><rect width="11.95" height="10.38" rx="2.14" transform="translate(197.176 104.791) rotate(-30)" fill="#fff"/><path d="M219.24,177.06l-7.39,4.26a1.63,1.63,0,0,0-.74,2.14l2.16,3.73a13.11,13.11,0,0,0,10.34-6l-2.15-3.73A1.61,1.61,0,0,0,219.24,177.06Z" transform="translate(-13.2 -77.39)" fill="#fff"/><rect width="11.95" height="10.38" rx="2.14" transform="translate(211.413 96.564) rotate(-30)" fill="#fff"/><path d="M233.48,168.84l-7.39,4.26a1.62,1.62,0,0,0-.74,2.14L227.5,179a13.11,13.11,0,0,0,10.35-6l-2.15-3.73A1.61,1.61,0,0,0,233.48,168.84Z" transform="translate(-13.2 -77.39)" fill="#fff"/><rect width="125.06" height="10.66" rx="2.18" transform="translate(101.169 208.888) rotate(-30)" fill="#6f66ae"/><path d="M117,290.88l1.89,3.26a1.62,1.62,0,0,0,2.23.52l105.4-60.86a1.62,1.62,0,0,0,.67-2.19l-1.88-3.26Z" transform="translate(-13.2 -77.39)" fill="#6f66ae"/></g></g></g></svg>