<svg xmlns="http://www.w3.org/2000/svg" xmlns:xlink="http://www.w3.org/1999/xlink" width="216" height="256" viewBox="0 0 216 256"><defs><clipPath id="a"><rect width="216" height="256" rx="12" transform="translate(-1362 -2246)" fill="#fff" stroke="#707070" stroke-width="1"/></clipPath><clipPath id="b"><rect width="216.29" height="256" rx="12" transform="translate(-7.4 -30.59)" fill="none"/></clipPath></defs><g transform="translate(1362 2246)" clip-path="url(#a)"><g transform="translate(-1354.6 -2215.41)"><g clip-path="url(#b)"><path d="M125.79,132.4l-18.12,18h0l7.64,51.13h67.9c-4.1-17.79-14-41.48-14-41.48-1.51-3.62-5.15-5.93-8.62-7.36l-23.47-10.8Z" transform="translate(-7.4 -30.59)" fill="#eed17c"/><path d="M105.57,150.42h0l-18.12-18-11.27,9.51L52.7,152.71c-3.47,1.43-6.89,3.59-8.62,7.36,0,0-9.95,23.69-14,41.48H97.92Z" transform="translate(-7.4 -30.59)" fill="#eed17c"/><path d="M105.88,132.05c17.9,0,41.91-22.36,42.32-59.86.26-26-12.13-41.6-42.32-41.6S63.29,46.16,63.55,72.19c.41,37.5,21.37,59.86,42.33,59.86ZM97.37,82.64c21.89,2.33,41-28.28,40.66-.87-.18,16.4-15.4,41.18-32.15,41.18-17.58,0-29.7-20.59-32.15-41.17-2.66-22.33,38.32-17.24,23.64.86Z" transform="translate(-7.4 -30.59)" fill="#eed17c"/><path d="M206,207.09a8.67,8.67,0,0,0-5.85-2.17H15.3a8.66,8.66,0,0,0-5.84,2.17,6,6,0,0,0-2,5.07l15.8,98.53c.39,3.39,3.79,6,7.86,6H184.36c4.08,0,7.48-2.59,7.87-6L208,212.16a5.92,5.92,0,0,0-2-5.07Z" transform="translate(-7.4 -30.59)" fill="#fff"/><rect width="44.46" height="2.26" transform="translate(40.373 158.351) rotate(-45)" fill="#fff"/><path d="M80.88,159.67l-2.35-2.56a.67.67,0,0,1,0-.85l4.68-6.34,5.29,5.64-6.73,4.23a.66.66,0,0,1-.89-.12Z" transform="translate(-7.4 -30.59)" fill="#fff"/><path d="M89,156.19l-6.13-6.48a2,2,0,0,1,.08-2.83l5.9-5.58a6.46,6.46,0,0,1,9.13.26h0a6.46,6.46,0,0,1-.25,9.13l-5.9,5.58a2,2,0,0,1-2.83-.08Z" transform="translate(-7.4 -30.59)" fill="#fff"/><path d="M44.18,225.38h-5.9v-4.21A2.22,2.22,0,0,1,40.51,219H42a2.21,2.21,0,0,1,2.22,2.22Z" transform="translate(-7.4 -30.59)" fill="#fff"/><path d="M43.29,219.62c.14,0-.12-6.9-.14-7.46a35.87,35.87,0,0,1,.45-8.72,20.38,20.38,0,0,1,2.21-6.24,34.07,34.07,0,0,1,2.3-3.59c1.5-1.93,2.34-2.42,2.24-3.36A2.92,2.92,0,0,0,47.41,188c-.38,0-1.12.23-3.38,3.77a27.387,27.387,0,0,0-2,3.36,30.51,30.51,0,0,0-2.74,7.63,40.29,40.29,0,0,0-.58,8.84c0,.6.38,8.16.32,8.16Z" transform="translate(-7.4 -30.59)" fill="#fff"/></g></g></g></svg>