<svg xmlns="http://www.w3.org/2000/svg" xmlns:xlink="http://www.w3.org/1999/xlink" width="216" height="256" viewBox="0 0 216 256">
  <defs>
    <clipPath id="clip-path">
      <rect id="Rectangle_354" data-name="Rectangle 354" width="216" height="256" rx="12" transform="translate(264)" fill="#fff" stroke="#707070" stroke-width="1"/>
    </clipPath>
  </defs>
  <g id="Mask_Group_626" data-name="Mask Group 626" transform="translate(-264)" clip-path="url(#clip-path)">
    <g id="Group_6" data-name="Group 6" transform="translate(-2094.794 -1159.5)">
      <g id="instagram_1_" data-name="instagram(1)" transform="translate(2370 1335.115)">
        <rect id="Rectangle_10" data-name="Rectangle 10" width="63" height="64" rx="18" transform="translate(-0.206 -0.615)" fill="#fff"/>
        <path id="Path_10" data-name="Path 10" d="M168.576,150a16.576,16.576,0,1,0,16.576,16.576A16.6,16.6,0,0,0,168.576,150Zm0,0" transform="translate(-137.102 -135.346)" fill="#198ce4"/>
        <path id="Path_9" data-name="Path 9" d="M163.457,150a11.457,11.457,0,1,0,11.457,11.457A11.471,11.471,0,0,0,163.457,150Zm0,0" transform="translate(-131.983 -130.228)" fill="#fff"/>
        <path id="Path_11" data-name="Path 11" d="M155.932,150a3.932,3.932,0,1,0,3.932,3.932A3.937,3.937,0,0,0,155.932,150Zm0,0" transform="translate(-105.457 -142.702)" fill="#198ce4"/>
      </g>
      <g id="whatsapp" transform="translate(2399.281 1291.161)">
        <path id="Subtraction_1" data-name="Subtraction 1" d="M16.718,33.428a16.569,16.569,0,0,1-9.195-2.762L1.1,32.72l2.083-6.209A16.59,16.59,0,0,1,0,16.714a16.786,16.786,0,0,1,.34-3.365A16.629,16.629,0,0,1,2.857,7.375a16.793,16.793,0,0,1,7.354-6.059A16.619,16.619,0,0,1,16.71,0h.008A16.7,16.7,0,0,1,30.571,26.052a16.8,16.8,0,0,1-7.354,6.06,16.617,16.617,0,0,1-6.5,1.316Zm-6.3-25.783a2.425,2.425,0,0,0-1.709.6l-.044.045A5.344,5.344,0,0,0,7,12.312a9.237,9.237,0,0,0,1.963,5.011l0,0,.02.027c.019.024.052.073.1.148a19.824,19.824,0,0,0,8.218,7.2,14.224,14.224,0,0,0,4.9,1.369,4.351,4.351,0,0,0,.958-.111,5.871,5.871,0,0,0,1.968-.856,3.344,3.344,0,0,0,1.313-1.5,6.192,6.192,0,0,0,.338-1.51,1.839,1.839,0,0,0-.052-.809c-.094-.164-.316-.271-.651-.432-.085-.041-.181-.087-.282-.138-.785-.391-2.913-1.437-3.33-1.582a1.21,1.21,0,0,0-.424-.085.933.933,0,0,0-.775.449l-.181.254-.009.012a16.168,16.168,0,0,1-1.116,1.463.943.943,0,0,1-.7.283,1.264,1.264,0,0,1-.48-.1l-.151-.061a11.893,11.893,0,0,1-1.481-.7,13.3,13.3,0,0,1-2.288-1.653,13.187,13.187,0,0,1-1.792-1.987,16.12,16.12,0,0,1-.92-1.383.713.713,0,0,1-.1-.6,1.328,1.328,0,0,1,.28-.43l.012-.014c.143-.177.285-.328.422-.473.1-.105.2-.214.305-.333l.044-.051a2.7,2.7,0,0,0,.5-.716.988.988,0,0,0-.071-.9c-.082-.172-.581-1.383-1.021-2.452l0-.006v0c-.183-.445-.357-.866-.477-1.155-.318-.762-.555-.8-1.061-.825l-.047,0C10.782,7.653,10.609,7.645,10.421,7.645Z" transform="translate(0 0)" fill="#fff"/>
      </g>
      <path id="facebook_1_" data-name="facebook(1)" d="M100.856,0H17.309A17.33,17.33,0,0,0,0,17.309v83.547a17.33,17.33,0,0,0,17.309,17.309h34.85V76.392H38.311V55.621H52.159V41.543A20.794,20.794,0,0,1,72.93,20.771h21V41.543h-21V55.621h21L90.47,76.392H72.93v41.773h27.926a17.33,17.33,0,0,0,17.309-17.309V17.309A17.33,17.33,0,0,0,100.856,0Zm0,0" transform="translate(2445.1 1280.116)" fill="#fff"/>
    </g>
  </g>
</svg>
